<svg width="1136" height="881" viewBox="0 0 1136 881" fill="none" xmlns="http://www.w3.org/2000/svg">
<path d="M651.745 583.499C651.745 583.499 651.677 583.499 651.61 583.432C651.137 583.026 650.664 582.552 650.124 582.146C649.111 581.267 648.099 580.522 647.018 579.778C575.654 523.891 474.851 477.95 366.622 450.006C481.94 409.411 584.431 349.667 641.752 275.512C648.301 266.986 650.124 255.755 646.478 245.606C578.354 55.6846 363.111 -45.6023 166.638 19.9602C69.2793 52.4369 -8.43235 120.029 -52.1831 210.22C-92.693 293.847 -98.9721 387.556 -70.3451 475.311C-87.2242 556.435 -71.8304 639.86 -26.2568 711.444C26.2036 793.922 114.718 852.854 216.465 873.151C243.067 878.497 269.668 881 295.865 881C466.884 881 621.7 772.271 660.184 613.337C662.817 602.58 659.576 591.28 651.745 583.499ZM558.369 589.386C349.608 627.681 164.545 584.717 52.2651 509.412C112.895 507.923 178.183 499.601 242.932 485.257C357.575 499.736 472.016 537.897 558.369 589.386ZM4.26067 237.757C40.5846 162.926 105.266 106.768 186.42 79.7039C345.017 26.7938 517.994 103.114 580.92 250.477C465.534 380.858 178.724 459.208 -14.0363 445.067C-33.7511 376.054 -27.4046 303.117 4.26067 237.757ZM228.753 811.446C143.682 794.463 70.0219 745.68 26.6762 677.614C-0.397934 635.056 -14.3063 587.356 -14.2388 539.115C53.0752 594.528 143.75 633.365 251.911 652.58C357.102 671.322 472.083 669.901 581.257 649.062C523.733 770.038 376.885 841.081 228.753 811.446Z" fill="#EFEFEF"/>
<path d="M65.971 388.707C57.2614 388.504 50.1045 382.076 49.0243 373.754C39.7745 302.034 91.1546 168.812 203.637 133.02C306.667 100.205 427.927 148.379 484.169 232.142C488.895 239.111 487.747 248.312 481.333 253.928C400.38 325.106 207.823 392.09 65.971 388.774V388.707Z" fill="#EFEFEF"/>
<path d="M747.078 290.328L883.259 146.145C885.757 143.506 890.011 143.912 892.036 146.889L1026.46 222.127C1028.76 225.578 1026.66 230.246 1022.55 230.855L751.939 299.801C746.673 300.477 743.5 294.185 747.146 290.328H747.078Z" fill="#EFEFEF"/>
<path d="M871.511 383.091L1130.3 388.842C1133.88 388.842 1136.58 392.158 1135.77 395.676L1042.53 513.946C1041.59 518.005 1036.79 519.697 1033.55 517.126L868 393.105C863.882 389.79 866.245 383.091 871.511 383.091Z" fill="#EFEFEF"/>
<path d="M256.098 781.269C159.077 767.737 60.6374 684.854 45.0411 628.222C44.1633 625.11 46.4588 621.05 52.9404 625.99C83.7279 649.4 207.553 683.095 268.318 691.214C324.965 698.792 445.752 703.19 490.921 692.838C498.752 691.011 499.36 695.206 497.065 697.912C451.558 752.04 354.672 795.072 256.098 781.337V781.269Z" fill="#EFEFEF"/>
</svg>
