<svg width="643" height="857" viewBox="0 0 643 857" fill="none" xmlns="http://www.w3.org/2000/svg">
<path d="M55.2207 698.255C-93.242 610.756 -142.678 418.57 -54.9923 269.792C32.6931 121.014 224.773 71.1712 373.236 158.671C521.699 246.171 571.135 438.356 483.449 587.134C395.764 735.912 203.684 785.755 55.2207 698.255ZM347.653 202.079C223.113 128.679 61.906 170.473 -11.676 295.322C-85.258 420.17 -43.7796 581.421 80.8043 654.847C205.388 728.273 366.551 686.453 440.133 561.605C513.715 436.756 472.236 275.505 347.653 202.079Z" fill="#EFEFEF"/>
<path d="M172.978 493.929C89.292 444.607 29.3646 380.609 8.40946 318.144C3.69562 304.025 11.2893 288.728 25.3848 283.913C39.4983 279.168 54.7656 286.741 59.5494 300.842C94.788 405.926 288.05 519.354 404.227 503.094C418.954 501.027 432.611 511.332 434.623 526.115C436.661 540.854 426.341 554.544 411.569 556.586C344.87 565.905 255.951 542.653 173.726 494.37C173.462 494.214 173.198 494.059 172.934 493.903L172.978 493.929Z" fill="#EFEFEF"/>
<path d="M422.796 453.592C442.269 419.646 429.776 297.684 329.686 238.695C229.597 179.705 112.993 224.036 92.4043 258.869C79.3138 281.08 157.13 378.363 224.183 417.704C288.202 455.257 409.969 475.958 422.796 453.592Z" fill="#EFEFEF"/>
</svg>
