<svg width="947" height="1026" viewBox="0 0 947 1026" fill="none" xmlns="http://www.w3.org/2000/svg">
<path d="M681.88 856.045C492.912 949.375 263.133 871.259 169.604 681.889C76.0752 492.52 153.704 262.575 342.673 169.245C531.641 75.9142 761.42 154.031 854.949 343.4C948.478 532.769 870.848 762.714 681.88 856.045ZM369.961 224.496C211.443 302.788 146.253 495.748 224.738 654.659C303.224 813.57 496.018 879.112 654.592 800.793C813.166 722.474 878.3 529.541 799.815 370.631C721.329 211.72 528.535 146.177 369.961 224.496Z" fill="#EFEFEF"/>
<path d="M551.646 598.7C445.127 651.31 339.501 669.776 261.545 649.388C243.939 644.756 233.37 626.741 237.882 609.092C242.479 591.471 260.453 580.919 278.087 585.467C409.224 619.78 654.784 497.941 715.892 368.19C723.639 351.734 743.331 344.66 759.807 352.502C776.255 360.287 783.353 380.016 775.549 396.5C740.418 470.997 657.074 546.421 552.597 598.23C552.262 598.396 551.926 598.562 551.59 598.728L551.646 598.7Z" fill="#EFEFEF"/>
<path d="M637.154 761.679C543.062 808.151 392.844 774.679 343.765 706.745C341.043 702.926 344.333 697.464 348.796 698.888C393.486 712.82 518.721 673.295 577.328 643.791C632.017 616.222 729.873 550.587 756.97 501.409C759.305 497.116 765.08 498.799 766.262 503.588C787.376 593.846 732.785 714.517 637.181 761.735L637.154 761.679Z" fill="#EFEFEF"/>
</svg>
