<svg width="1440" height="1067" viewBox="0 0 1440 1067" fill="none" xmlns="http://www.w3.org/2000/svg">
<path d="M362.24 364.96L325.48 349.903V363.136L-8.5 363.136V366.853L325.48 366.853V380.511L362.24 364.974V364.96ZM329.195 355.429L352.577 365.001L329.195 374.888V355.429Z" fill="#EFEFEF"/>
<path d="M-16 327L304 327" stroke="#EFEFEF" stroke-width="2.71" stroke-miterlimit="10"/>
<path d="M304.223 315.168V340.208L334.293 327.496L304.223 315.168Z" stroke="#EFEFEF" stroke-width="2.71" stroke-miterlimit="10"/>
<path d="M1258.06 537.005H1266.96V540.721H1258.06V537.005ZM1186.77 540.721H1195.68V537.005H1186.77V540.721ZM1240.24 540.721H1249.15V537.005H1240.24V540.721ZM1168.95 540.721H1177.86V537.005H1168.95V540.721ZM1222.42 540.721H1231.33V537.005H1222.42V540.721ZM1204.6 540.721H1213.51V537.005H1204.6V540.721ZM1454.09 537.005V540.721H1463V537.005H1454.09ZM1115.5 540.721H1124.41V537.005H1115.5V540.721ZM1151.14 540.721H1160.05V537.005H1151.14V540.721ZM1133.32 540.721H1142.23V537.005H1133.32V540.721ZM1418.44 540.721H1427.35V537.005H1418.44V540.721ZM1275.87 540.721H1284.78V537.005H1275.87V540.721ZM1364.98 540.721H1373.88V537.005H1364.98V540.721ZM1400.61 540.721H1409.52V537.005H1400.61V540.721ZM1436.25 540.721H1445.15V537.005H1436.25V540.721ZM1382.78 540.721H1391.69V537.005H1382.78V540.721ZM1347.14 540.721H1356.05V537.005H1347.14V540.721ZM1293.68 540.721H1302.59V537.005H1293.68V540.721ZM1311.5 540.721H1320.4V537.005H1311.5V540.721ZM1329.31 540.721H1338.22V537.005H1329.31V540.721ZM1102.07 537.005H1106.56V540.721H1102.07V554.379L1065.31 538.843L1102.07 523.786V537.019V537.005ZM1098.36 529.312L1074.97 538.884L1098.36 548.771V529.312Z" fill="#EFEFEF"/>
<path d="M1431.72 509.044H1068.97" stroke="#EFEFEF" stroke-width="2.71" stroke-miterlimit="10"/>
<path d="M1068.97 496.729V521.756L1038.9 509.044L1068.97 496.729Z" stroke="#EFEFEF" stroke-width="2.71" stroke-miterlimit="10"/>
<path d="M946.535 226.979H931.034V-42.2784H927.319V226.979H911.832V230.695H926.127L914.902 252.307L918.205 254.021L927.319 236.441V253.171H931.034V236.441L940.162 254.021L943.451 252.307L932.24 230.695H946.535V226.979Z" fill="#EFEFEF"/>
<path d="M895.467 -64V231.449" stroke="#EFEFEF" stroke-width="2.71" stroke-miterlimit="10"/>
<path d="M912.832 207.122H878.115" stroke="#EFEFEF" stroke-width="2.71" stroke-miterlimit="10"/>
<path d="M895.467 207.122L908.104 231.449" stroke="#EFEFEF" stroke-width="2.71" stroke-miterlimit="10"/>
<path d="M895.467 207.122L882.844 231.449" stroke="#EFEFEF" stroke-width="2.71" stroke-miterlimit="10"/>
<path d="M461.496 1066.49L461.496 823.495" stroke="#EFEFEF" stroke-width="2.71" stroke-miterlimit="10"/>
<path d="M461.344 797.974V764.857" stroke="#EFEFEF" stroke-width="2.71" stroke-miterlimit="10"/>
<path d="M461.344 789.184L448.721 764.857" stroke="#EFEFEF" stroke-width="2.71" stroke-miterlimit="10"/>
<path d="M461.344 789.184L473.981 764.857" stroke="#EFEFEF" stroke-width="2.71" stroke-miterlimit="10"/>
<path d="M461.344 823.316C468.338 823.316 474.008 817.643 474.008 810.645C474.008 803.647 468.338 797.974 461.344 797.974C454.35 797.974 448.68 803.647 448.68 810.645C448.68 817.643 454.35 823.316 461.344 823.316Z" stroke="#EFEFEF" stroke-width="2.71" stroke-miterlimit="10"/>
<path d="M419.664 1062.86V784.459" stroke="#EFEFEF" stroke-width="2.71" stroke-miterlimit="10"/>
<path d="M419.664 759.117V726" stroke="#EFEFEF" stroke-width="2.71" stroke-miterlimit="10"/>
<path d="M419.664 750.327L407.041 726" stroke="#EFEFEF" stroke-width="2.71" stroke-miterlimit="10"/>
<path d="M419.664 750.327L432.301 726" stroke="#EFEFEF" stroke-width="2.71" stroke-miterlimit="10"/>
<path d="M419.664 784.459C426.658 784.459 432.328 778.786 432.328 771.788C432.328 764.79 426.658 759.117 419.664 759.117C412.67 759.117 407 764.79 407 771.788C407 778.786 412.67 784.459 419.664 784.459Z" stroke="#EFEFEF" stroke-width="2.71" stroke-miterlimit="10"/>
<path d="M164.034 -17H99V48.0688H164.034V-17Z" fill="#F7F8F8"/>
<path d="M229.069 48.0687H164.034V113.137H229.069V48.0687Z" fill="#F7F8F8"/>
<path d="M294.09 113.124H229.055V178.193H294.09V113.124Z" fill="#F7F8F8"/>
<path d="M359.124 178.193H294.089V243.261H359.124V178.193Z" fill="#F7F8F8"/>
<path d="M424.145 243.248H359.11V308.316H424.145V243.248Z" fill="#F7F8F8"/>
<path d="M1143.26 708.378H1212.66V638.935H1143.26V708.378Z" fill="#F7F8F8"/>
<path d="M1073.85 777.821H1143.26V708.378H1073.85V777.821Z" fill="#F7F8F8"/>
<path d="M1004.44 847.264H1073.85V777.821H1004.44V847.264Z" fill="#F7F8F8"/>
<path d="M935.036 916.707H1004.44V847.264H935.036V916.707Z" fill="#F7F8F8"/>
<path d="M1270.47 -33.2116L1239.53 1.21793C1321.63 1.28918 1390.36 59.4258 1406.94 136.71L1444.62 170.961L1476.92 141.911C1461.77 24.355 1361.26 -66.8041 1239.76 -67L1270.45 -33.1938L1270.47 -33.2116Z" fill="#F7F8F8"/>
<path d="M1033.52 129.407L1068.4 160.773C1074 79.8912 1135.87 14.2915 1215.01 2.98125L1247.47 -33.1404L1217.65 -65.9847C1099.89 -55.3513 1006.43 40.8128 1000.07 159.793L1033.5 129.407H1033.52Z" fill="#F7F8F8"/>
<path d="M1444.59 193.956L1410.5 162.982C1410.68 166.223 1410.8 169.465 1410.8 172.742C1410.8 262.779 1341.11 336.768 1252.86 343.679L1221.58 378.126L1252.15 412.146C1378.36 405.485 1479 300.647 1479 172.742C1479 169.554 1478.88 166.384 1478.75 163.231L1444.59 193.956Z" fill="#F7F8F8"/>
<path d="M1198.58 378.055L1229.56 343.928C1143.2 339.03 1073.75 269.886 1068.32 183.607L1033.59 152.366L1000 182.895C1005.22 307.041 1105.21 407.034 1229.31 412.2L1198.6 378.037L1198.58 378.055Z" fill="#F7F8F8"/>
<path d="M17.077 565L38.7603 595.26L32.0668 631.882L103.792 580.667L17.077 565Z" fill="#F7F8F8"/>
<path d="M381.148 833.849L344.123 837.567L315.728 813.493L324.324 901.242L381.148 833.849Z" fill="#F7F8F8"/>
<path d="M49.6812 591.962C-39.0775 621.94 -103 705.881 -103 804.82C-103 832.348 -98.0328 858.696 -88.979 883.069" stroke="#F7F8F8" stroke-width="5.83" stroke-miterlimit="10" stroke-linecap="round"/>
<path d="M341.78 849.056C344.633 834.763 346.131 819.959 346.131 804.82C346.131 693.545 265.263 601.232 159.154 583.326" stroke="#F7F8F8" stroke-width="5.83" stroke-miterlimit="10" stroke-linecap="round"/>
<path d="M-26.7475 973.252C12.7967 1008.11 64.7062 1029.26 121.565 1029.26C191.142 1029.26 253.321 997.59 294.503 947.891" stroke="#F7F8F8" stroke-width="5.83" stroke-miterlimit="10" stroke-linecap="round"/>
<path d="M-33.4585 1014.86L-18.1693 980.901L16.8481 968.335L-63.4205 931.942L-33.4585 1014.86Z" fill="#F7F8F8"/>
</svg>
