<svg width="1439" height="946" viewBox="0 0 1439 946" fill="none" xmlns="http://www.w3.org/2000/svg">
<path opacity="0.75" d="M14.3813 793.037C2.72643 779.467 4.29072 758.931 17.8537 747.27C31.4167 735.609 51.9417 737.174 63.5966 750.744C75.2515 764.314 73.6872 784.85 60.1242 796.511C46.5612 808.172 26.0362 806.607 14.3813 793.037ZM59.6257 754.15C49.8445 742.764 32.6372 741.457 21.2574 751.243C9.87751 761.029 8.57106 778.246 18.3522 789.632C28.1334 801.017 45.3407 802.325 56.7205 792.538C68.1004 782.752 69.4068 765.535 59.6257 754.15Z" fill="#504D4C"/>
<path opacity="0.75" d="M58.6286 781.359C61.6713 778.676 64.5077 766.292 56.6518 757.142C48.8819 748.078 35.869 748.422 32.6888 751.157C30.6604 752.894 35.061 765.071 40.3212 771.177C45.3579 777.007 56.6174 783.13 58.6115 781.376L58.6286 781.359Z" fill="#2B85C8"/>
<path opacity="0.75" d="M1031.38 274.035L1046.51 272.366C1046.78 272.332 1047.03 272.573 1046.99 272.848L1051.15 283.924C1051.12 284.234 1050.76 284.406 1050.5 284.234L1031.23 274.826C1030.88 274.602 1031 274.086 1031.42 274.035H1031.38Z" fill="#F9B900"/>
<path opacity="0.75" d="M1034.08 285.644L1048.97 298.836C1049.17 299.008 1049.17 299.352 1048.95 299.507L1037.62 301.794C1037.36 301.983 1037 301.846 1036.93 301.536L1033.38 286.057C1033.31 285.661 1033.77 285.386 1034.08 285.644Z" fill="#F9B900"/>
<path opacity="0.75" d="M1131.12 836.671L1157.61 833.747C1158.09 833.696 1158.5 834.109 1158.43 834.59L1165.71 853.991C1165.64 854.541 1165.02 854.834 1164.55 854.541L1130.79 838.064C1130.19 837.686 1130.41 836.757 1131.12 836.671Z" fill="#DD4736"/>
<path opacity="0.75" d="M1135.85 857.001L1161.91 880.099C1162.28 880.409 1162.27 880.994 1161.87 881.286L1142.03 885.293C1141.59 885.637 1140.95 885.38 1140.83 884.829L1134.59 857.723C1134.45 857.018 1135.28 856.537 1135.81 857.001H1135.85Z" fill="#DD4736"/>
<path opacity="0.75" d="M1297.88 309.706L1324.37 306.782C1324.85 306.73 1325.26 307.143 1325.2 307.625L1332.47 327.025C1332.4 327.576 1331.78 327.868 1331.32 327.576L1297.55 311.099C1296.95 310.721 1297.18 309.792 1297.88 309.706Z" fill="#1FA156"/>
<path opacity="0.75" d="M1302.61 330.035L1328.67 353.134C1329.05 353.443 1329.03 354.028 1328.63 354.32L1308.8 358.328C1308.35 358.672 1307.71 358.414 1307.59 357.863L1301.35 330.758C1301.22 330.052 1302.04 329.571 1302.57 330.035H1302.61Z" fill="#1FA156"/>
<path opacity="0.75" d="M1225.87 298.578C1212.12 288.62 1209.02 269.322 1218.98 255.563C1228.93 241.803 1248.22 238.708 1261.97 248.666C1275.72 258.624 1278.82 277.922 1268.86 291.681C1258.91 305.44 1239.62 308.536 1225.87 298.578ZM1259.08 252.69C1247.55 244.332 1231.35 246.929 1223 258.469C1214.65 270.01 1217.24 286.212 1228.78 294.57C1240.31 302.929 1256.5 300.332 1264.86 288.792C1273.21 277.251 1270.62 261.049 1259.08 252.69Z" fill="#504D4C"/>
<path opacity="0.75" d="M1230.91 291.853C1224.07 286.9 1220.78 274.946 1223.77 268.892C1223.95 268.548 1224.46 268.583 1224.53 268.961C1225.22 272.659 1232.75 280.106 1237.04 283.167C1241.07 286.023 1249.42 290.546 1253.94 290.632C1254.34 290.632 1254.44 291.113 1254.13 291.371C1248.51 296.256 1237.85 296.892 1230.91 291.853Z" fill="#2B85C8"/>
<path opacity="0.75" d="M37.6739 468.97C24.1797 474.973 8.33042 468.901 2.31388 455.4C-3.68546 441.899 2.38266 426.041 15.8769 420.021C29.3711 414.019 45.2204 420.09 51.2197 433.591C57.2191 447.093 51.151 462.95 37.6567 468.953L37.6739 468.97ZM17.6475 423.977C6.33638 429.016 1.23091 442.329 6.26761 453.646C11.3043 464.963 24.6095 470.071 35.9205 465.032C47.2316 459.992 52.3371 446.68 47.3004 435.363C42.2637 424.046 28.9586 418.938 17.6475 423.977Z" fill="#504D4C"/>
<path opacity="0.75" d="M38.9117 431.201C37.5193 428.156 28.3913 422.98 19.2978 427.039C10.2042 431.098 7.48817 441.417 8.89776 444.582C9.79164 446.594 20.4495 445.992 26.5348 443.275C32.3451 440.678 39.8399 433.213 38.9117 431.201Z" fill="#DD4736"/>
<path opacity="0.75" d="M315.466 462.4C305.599 450.55 307.197 432.886 319.041 423.014C330.885 413.142 348.54 414.741 358.407 426.591C368.274 438.442 366.675 456.105 354.831 465.977C342.987 475.85 325.333 474.25 315.466 462.4ZM354.952 429.464C346.666 419.522 331.848 418.181 321.912 426.454C311.976 434.744 310.636 449.569 318.904 459.511C327.19 469.452 342.007 470.793 351.943 462.52C361.879 454.23 363.22 439.405 354.952 429.464Z" fill="#504D4C"/>
<path opacity="0.75" d="M353.731 452.906C356.378 450.636 358.991 439.989 352.339 432.009C345.755 424.097 334.547 424.235 331.762 426.54C329.992 428.019 333.619 438.562 338.088 443.894C342.351 448.985 351.978 454.402 353.731 452.906Z" fill="#1FA156"/>
<path opacity="0.75" d="M225.906 626.343C207.718 625.053 193.966 609.195 195.256 590.998C196.545 572.802 212.394 559.042 230.581 560.332C248.768 561.622 262.52 577.48 261.231 595.676C259.942 613.873 244.093 627.633 225.906 626.343ZM230.203 565.647C214.938 564.563 201.65 576.104 200.567 591.377C199.484 606.65 211.019 619.945 226.284 621.028C241.549 622.112 254.837 610.571 255.919 595.298C257.002 580.025 245.468 566.73 230.203 565.647Z" fill="#504D4C"/>
<path opacity="0.75" d="M249.181 585.89C249.422 581.762 242.494 570.824 230.22 569.947C217.947 569.069 209.008 578.753 208.698 583.018C208.509 585.735 220.473 591.274 228.673 591.841C236.873 592.409 249.026 588.608 249.181 585.89Z" fill="#F9B900"/>
<path opacity="0.75" d="M293.359 616.264C280.725 622.49 265.391 617.262 259.168 604.62C252.946 591.979 258.171 576.637 270.806 570.411C283.441 564.185 298.774 569.413 304.997 582.055C311.22 594.696 305.994 610.038 293.359 616.264ZM272.628 574.092C262.022 579.303 257.638 592.185 262.864 602.797C268.073 613.409 280.948 617.795 291.555 612.566C302.161 607.355 306.544 594.473 301.319 583.861C296.11 573.249 283.235 568.863 272.628 574.092Z" fill="#504D4C"/>
<path opacity="0.75" d="M290.386 609.969C284.094 613.065 274.072 610.829 270.806 606.288C270.617 606.03 270.84 605.669 271.15 605.755C274.124 606.684 282.495 604.053 286.415 602.092C290.076 600.252 296.626 595.883 298.431 592.598C298.585 592.305 298.981 592.426 299.049 592.736C300.442 598.755 296.78 606.804 290.386 609.952V609.969Z" fill="#2B85C8"/>
<path opacity="0.75" d="M324.766 903.955C312.131 910.181 296.797 904.952 290.575 892.311C284.352 879.669 289.578 864.328 302.212 858.101C314.847 851.875 330.181 857.104 336.403 869.745C342.626 882.387 337.401 897.728 324.766 903.955ZM304.035 861.782C293.428 866.993 289.045 879.876 294.271 890.488C299.479 901.099 312.354 905.485 322.961 900.257C333.567 895.028 337.951 882.163 332.725 871.551C327.516 860.939 314.641 856.554 304.035 861.782Z" fill="#504D4C"/>
<path opacity="0.75" d="M321.792 897.66C315.5 900.755 305.478 898.52 302.212 893.979C302.023 893.721 302.247 893.36 302.556 893.446C305.53 894.375 313.902 891.743 317.821 889.782C321.482 887.942 328.032 883.574 329.837 880.288C329.992 879.996 330.387 880.117 330.456 880.426C331.848 886.446 328.187 894.495 321.792 897.642V897.66Z" fill="#DD4736"/>
<path opacity="0.75" d="M1151.51 623.591C1134.83 617.003 1126.62 598.084 1133.2 581.401C1139.78 564.718 1158.69 556.497 1175.37 563.084C1192.04 569.671 1200.24 588.59 1193.67 605.274C1187.09 621.957 1168.18 630.178 1151.51 623.591ZM1173.44 567.951C1159.45 562.43 1143.58 569.327 1138.06 583.31C1132.55 597.31 1139.44 613.185 1153.41 618.706C1167.41 624.227 1183.27 617.33 1188.79 603.347C1194.31 589.364 1187.42 573.472 1173.44 567.951Z" fill="#504D4C"/>
<path opacity="0.75" d="M1185.27 592.546C1186.71 588.745 1183.45 576.431 1172.2 571.993C1161.08 567.607 1149.7 573.988 1148.17 577.893C1147.19 580.386 1156.77 589.106 1164.3 592.065C1171.83 595.023 1184.32 595.04 1185.29 592.546H1185.27Z" fill="#F9B900"/>
<path opacity="0.75" d="M1262.5 625.827C1244.59 622.043 1233.11 604.396 1236.87 586.492C1240.65 568.571 1258.29 557.081 1276.19 560.848C1294.1 564.632 1305.58 582.278 1301.82 600.183C1298.03 618.104 1280.4 629.593 1262.5 625.827ZM1275.1 566.077C1260.08 562.912 1245.28 572.561 1242.12 587.593C1238.95 602.625 1248.6 617.433 1263.62 620.598C1278.64 623.763 1293.45 614.114 1296.61 599.082C1299.77 584.05 1290.13 569.241 1275.1 566.077Z" fill="#504D4C"/>
<path opacity="0.75" d="M1264.51 617.003C1255.59 615.129 1247.14 604.792 1247.43 597.534C1247.43 597.121 1247.96 596.932 1248.2 597.276C1250.5 600.613 1261.18 604.654 1266.77 605.772C1271.97 606.822 1282.19 607.613 1286.67 605.704C1287.07 605.532 1287.36 605.962 1287.19 606.34C1283.78 613.615 1273.59 618.913 1264.53 617.003H1264.51Z" fill="#DD4736"/>
<path opacity="0.75" d="M986.602 806.418C972.162 796.872 968.174 777.351 977.715 762.904C987.255 748.457 1006.77 744.467 1021.21 754.012C1035.65 763.558 1039.63 783.079 1030.09 797.526C1020.55 811.973 1001.04 815.964 986.602 806.418ZM1018.4 758.226C1006.28 750.211 989.92 753.565 981.926 765.69C973.916 777.816 977.268 794.189 989.387 802.187C1001.51 810.185 1017.87 806.848 1025.86 794.723C1033.87 782.597 1030.52 766.223 1018.4 758.226Z" fill="#504D4C"/>
<path opacity="0.75" d="M1024.68 783.818C1026.79 780.516 1026.16 768.236 1016.43 761.803C1006.78 755.44 994.784 759.206 992.533 762.577C991.106 764.727 998.412 774.892 1004.94 779.175C1011.48 783.457 1023.27 785.985 1024.68 783.801V783.818Z" fill="#1FA156"/>
<path opacity="0.75" d="M1056.22 791.111C1043.05 790.062 1033.2 778.487 1034.25 765.312C1035.3 752.137 1046.87 742.282 1060.04 743.331C1073.21 744.381 1083.06 755.956 1082.01 769.13C1080.96 782.305 1069.39 792.16 1056.22 791.111ZM1059.73 747.184C1048.69 746.307 1038.98 754.563 1038.1 765.622C1037.23 776.664 1045.48 786.381 1056.53 787.258C1067.57 788.135 1077.28 779.88 1078.16 768.821C1079.03 757.779 1070.78 748.061 1059.73 747.184Z" fill="#504D4C"/>
<path opacity="0.75" d="M1056.84 784.609C1050.29 784.076 1043.28 777.472 1042.83 772.243C1042.81 771.951 1043.16 771.762 1043.36 771.985C1045.32 774.17 1053.32 776.062 1057.43 776.354C1061.26 776.629 1068.63 776.251 1071.66 774.479C1071.92 774.324 1072.17 774.6 1072.09 774.892C1070.32 780.413 1063.51 785.143 1056.86 784.609H1056.84Z" fill="#F9B900"/>
<path opacity="0.75" d="M1305.05 794.912C1289.78 795.6 1276.82 783.749 1276.13 768.477C1275.45 753.204 1287.29 740.236 1302.56 739.548C1317.82 738.86 1330.78 750.71 1331.47 765.983C1332.16 781.256 1320.31 794.224 1305.05 794.912ZM1302.75 744.002C1289.94 744.587 1280 755.474 1280.57 768.287C1281.15 781.101 1292.04 791.042 1304.84 790.474C1317.65 789.89 1327.58 779.002 1327.02 766.189C1326.45 753.376 1315.55 743.435 1302.75 744.002Z" fill="#504D4C"/>
<path opacity="0.75" d="M1320.5 759C1320.3 755.543 1313.47 747.098 1303.19 747.58C1293.02 748.044 1286.4 756.97 1286.55 760.548C1286.66 762.835 1297.14 766.275 1304.03 765.948C1310.6 765.639 1320.66 761.287 1320.52 759.017L1320.5 759Z" fill="#2B85C8"/>
<path opacity="0.75" d="M1401.21 794.499C1386.19 789.58 1377.95 773.361 1382.87 758.329C1387.78 743.297 1403.99 735.059 1419.02 739.978C1434.04 744.897 1442.28 761.115 1437.36 776.148C1432.44 791.18 1416.23 799.418 1401.21 794.499ZM1417.59 744.363C1404.99 740.236 1391.38 747.15 1387.25 759.774C1383.13 772.381 1390.04 786.003 1402.65 790.13C1415.25 794.258 1428.87 787.344 1432.99 774.72C1437.12 762.113 1430.21 748.491 1417.59 744.363Z" fill="#504D4C"/>
<path opacity="0.75" d="M1403.75 787.103C1396.28 784.661 1389.97 774.995 1390.9 768.786C1390.95 768.442 1391.41 768.322 1391.58 768.631C1393.25 771.71 1402.04 776.165 1406.73 777.661C1411.11 779.054 1419.79 780.671 1423.83 779.45C1424.18 779.347 1424.4 779.742 1424.21 780.052C1420.62 785.985 1411.35 789.58 1403.75 787.103Z" fill="#DD4736"/>
<path opacity="0.75" d="M591.762 934.69C579.832 923.166 579.489 904.092 591.006 892.156C602.523 880.22 621.587 879.876 633.517 891.399C645.447 902.923 645.791 921.997 634.274 933.933C622.756 945.869 603.692 946.213 591.762 934.69ZM630.165 894.873C620.16 885.207 604.156 885.483 594.496 895.51C584.835 905.52 585.11 921.532 595.132 931.198C605.136 940.864 621.14 940.589 630.801 930.562C640.462 920.552 640.187 904.539 630.165 894.873Z" fill="#504D4C"/>
<path opacity="0.75" d="M597.556 928.893C591.608 923.149 590.095 911.144 593.808 905.709C594.014 905.399 594.513 905.503 594.53 905.881C594.685 909.562 600.942 917.783 604.689 921.343C608.179 924.662 615.64 930.166 620.006 930.871C620.384 930.94 620.418 931.404 620.092 931.611C613.972 935.567 603.606 934.707 597.573 928.876L597.556 928.893Z" fill="#1FA156"/>
<path opacity="0.75" d="M844.938 941.535C829.244 941.587 816.42 928.859 816.368 913.156C816.317 897.453 829.038 884.623 844.732 884.571C860.427 884.52 873.25 897.247 873.302 912.95C873.354 928.653 860.633 941.483 844.938 941.535ZM844.732 889.163C831.564 889.215 820.889 899.982 820.941 913.156C820.993 926.331 831.754 937.012 844.921 936.96C858.089 936.908 868.764 926.142 868.712 912.967C868.661 899.793 857.9 889.112 844.732 889.163Z" fill="#504D4C"/>
<path opacity="0.75" d="M862.317 905.313C862.266 901.753 855.613 892.809 845.024 892.844C834.555 892.878 827.37 901.77 827.387 905.451C827.387 907.79 838.011 911.78 845.093 911.746C851.849 911.711 862.352 907.67 862.317 905.313Z" fill="#DD4736"/>
<path opacity="0.75" d="M262.881 20.5532C274.399 32.4894 274.055 51.5805 262.125 63.0867C250.195 74.6102 231.114 74.2662 219.614 62.33C208.097 50.3937 208.44 31.3026 220.37 19.7964C232.3 8.27295 251.381 8.61693 262.881 20.5532ZM259.392 23.9242C249.731 13.9143 233.727 13.6219 223.722 23.2878C213.718 32.9538 213.426 48.9662 223.086 58.9761C232.747 68.9861 248.751 69.2784 258.756 59.6125C268.76 49.9466 269.053 33.9341 259.392 23.9242Z" fill="#504D4C"/>
<path opacity="0.75" d="M226.163 25.6097C220.216 31.3543 218.703 43.3593 222.416 48.7942C222.622 49.1038 223.121 49.0006 223.138 48.6222C223.293 44.9416 229.55 36.7204 233.297 33.1602C236.787 29.8407 244.247 24.337 248.614 23.6318C248.992 23.563 249.026 23.0987 248.7 22.8923C242.58 18.9365 232.214 19.7964 226.181 25.6269L226.163 25.6097Z" fill="#2B85C8"/>
<path opacity="0.75" d="M473.426 28.5852C473.374 44.2881 460.55 57.0154 444.856 56.9638C429.161 56.9122 416.441 44.0817 416.492 28.3788C416.544 12.676 429.368 -0.0514412 445.062 0.000156332C460.757 0.0517539 473.477 12.8823 473.426 28.5852ZM468.836 28.568C468.888 15.3934 458.213 4.62674 445.045 4.57514C431.877 4.52355 421.116 15.2042 421.065 28.3788C421.013 41.5534 431.688 52.3201 444.856 52.3717C458.023 52.4233 468.784 41.7426 468.836 28.568Z" fill="#504D4C"/>
<path opacity="0.75" d="M462.458 36.2044C462.407 39.7647 455.754 48.7082 445.165 48.6738C434.696 48.6394 427.511 39.7475 427.528 36.0668C427.528 33.7278 438.152 29.7376 445.234 29.7719C451.99 29.8063 462.493 33.8482 462.458 36.2044Z" fill="#DD4736"/>
<path opacity="0.75" d="M1304.93 940.227C1289.96 949.567 1270.17 944.974 1260.84 929.994C1251.5 915.014 1256.09 895.217 1271.06 885.878C1286.04 876.539 1305.82 881.131 1315.16 896.112C1324.49 911.092 1319.9 930.888 1304.93 940.227ZM1273.78 890.247C1261.21 898.089 1257.36 914.687 1265.2 927.259C1273.04 939.832 1289.63 943.684 1302.2 935.842C1314.76 927.999 1318.61 911.402 1310.77 898.829C1302.93 886.256 1286.35 882.404 1273.78 890.247Z" fill="#504D4C"/>
<path opacity="0.75" d="M1300.42 932.746C1292.96 937.39 1280.17 935.859 1275.53 930.613C1275.28 930.321 1275.5 929.839 1275.89 929.908C1279.73 930.699 1289.84 926.365 1294.48 923.424C1298.81 920.672 1306.42 914.395 1308.28 910.078C1308.43 909.699 1308.93 909.785 1309.07 910.181C1311.56 917.525 1308.01 928.016 1300.42 932.746Z" fill="#2B85C8"/>
<path opacity="0.75" d="M423.201 169.444L439.497 152.211C439.789 151.901 440.305 151.935 440.546 152.297L456.635 161.292C456.91 161.705 456.653 162.272 456.171 162.324L423.768 170.562C423.132 170.648 422.754 169.891 423.184 169.427L423.201 169.444Z" fill="#2B85C8"/>
<path opacity="0.75" d="M438.087 180.538L469.064 181.226C469.494 181.226 469.82 181.621 469.717 182.051L458.544 196.189C458.44 196.67 457.856 196.877 457.461 196.567L437.64 181.742C437.142 181.346 437.434 180.555 438.053 180.538H438.087Z" fill="#2B85C8"/>
<path opacity="0.75" d="M371.867 768.631L391.532 789.425C391.893 789.804 392.512 789.752 392.787 789.322L412.195 778.469C412.521 777.971 412.229 777.3 411.627 777.214L372.554 767.273C371.798 767.169 371.334 768.081 371.867 768.631Z" fill="#F9B900"/>
<path opacity="0.75" d="M389.848 755.268L427.219 754.442C427.735 754.442 428.13 753.961 428.01 753.445L414.533 736.383C414.395 735.798 413.707 735.557 413.226 735.936L389.315 753.823C388.713 754.304 389.057 755.268 389.813 755.268H389.848Z" fill="#F9B900"/>
<path opacity="0.75" d="M113.448 849.76L97.1517 832.526C96.8594 832.217 96.3437 832.251 96.1031 832.612L80.0131 841.608C79.7381 842.02 79.9959 842.588 80.4773 842.639L112.881 850.878C113.517 850.964 113.895 850.207 113.465 849.743L113.448 849.76Z" fill="#1FA156"/>
<path opacity="0.75" d="M98.5442 860.836L67.5676 861.524C67.1379 861.524 66.8112 861.92 66.9144 862.35L78.088 876.487C78.1911 876.969 78.7755 877.175 79.1709 876.866L98.9911 862.04C99.4896 861.645 99.1974 860.853 98.5786 860.836H98.5442Z" fill="#1FA156"/>
<path opacity="0.75" d="M82.1962 94.6988L77.7268 71.394C77.6409 70.964 77.1939 70.7232 76.7986 70.9124L58.4051 69.8288C57.9582 70.0352 57.855 70.6372 58.2504 70.964L81.1304 95.3524C81.6118 95.7652 82.3509 95.3352 82.2306 94.716L82.1962 94.6988Z" fill="#DD4736"/>
<path opacity="0.75" d="M63.6825 96.0232L37.1926 79.9248C36.8316 79.684 36.3503 79.856 36.1956 80.2687L38.0005 98.1903C37.8286 98.6547 38.2068 99.1362 38.7053 99.0846L63.3903 97.2615C64.0263 97.1927 64.2154 96.3672 63.6825 96.0232Z" fill="#DD4736"/>
<path opacity="0.75" d="M819.6 82.6078C807.206 74.5758 803.648 57.9442 811.675 45.5436C819.703 33.143 836.326 29.5827 848.72 37.6148C861.114 45.6468 864.673 62.2784 856.645 74.679C848.617 87.0796 831.994 90.6398 819.6 82.6078ZM846.382 41.2438C835.982 34.5017 822.041 37.4772 815.303 47.8999C808.564 58.3054 811.538 72.2539 821.955 78.996C832.355 85.7381 846.296 82.7626 853.035 72.3399C859.773 61.9344 856.799 47.9859 846.382 41.2438Z" fill="#504D4C"/>
<path opacity="0.75" d="M851.935 63.0352C853.722 60.1973 853.086 49.723 844.732 44.3053C836.464 38.9392 826.235 42.2414 824.344 45.148C823.141 47.0055 829.467 55.6223 835.071 59.2342C840.675 62.846 850.766 64.9099 851.952 63.0352H851.935Z" fill="#DD4736"/>
<path opacity="0.75" d="M98.8363 220.769C90.4648 230.779 75.5266 232.12 65.5219 223.744C55.5173 215.368 54.1765 200.422 62.548 190.412C70.9196 180.402 85.8578 179.061 95.8625 187.437C105.867 195.813 107.208 210.759 98.8363 220.769ZM65.4532 192.855C58.4396 201.248 59.557 213.803 67.9457 220.82C76.3345 227.838 88.8833 226.72 95.8968 218.327C102.91 209.933 101.793 197.378 93.4043 190.361C85.0155 183.343 72.4667 184.461 65.4532 192.855Z" fill="#504D4C"/>
<path opacity="0.75" d="M85.1358 190.326C82.8495 188.452 73.6012 187.901 67.9629 194.643C62.3761 201.317 64.1811 210.638 66.5189 212.616C68.0145 213.872 76.2313 209.245 79.996 204.722C83.5887 200.405 86.6485 191.565 85.1358 190.326Z" fill="#F9B900"/>
<path opacity="0.75" d="M197.714 228.371C185.165 236.506 168.336 232.894 160.205 220.339C152.074 207.783 155.684 190.945 168.233 182.81C180.782 174.675 197.611 178.287 205.742 190.842C213.873 203.398 210.263 220.236 197.714 228.371ZM170.605 186.474C160.067 193.302 157.042 207.422 163.867 217.965C170.691 228.508 184.804 231.536 195.342 224.707C205.879 217.879 208.905 203.759 202.08 193.216C195.256 182.673 181.143 179.646 170.605 186.474Z" fill="#504D4C"/>
<path opacity="0.75" d="M193.794 222.11C187.537 226.152 176.69 225.051 172.685 220.666C172.462 220.425 172.651 220.012 172.977 220.064C176.243 220.683 184.735 216.865 188.637 214.302C192.265 211.911 198.625 206.476 200.138 202.796C200.275 202.469 200.688 202.538 200.808 202.864C203.026 209.039 200.155 218 193.812 222.11H193.794Z" fill="#1FA156"/>
<path opacity="0.75" d="M894.652 182.449C885.026 170.53 886.882 152.987 898.795 143.355C910.708 133.724 928.242 135.581 937.868 147.5C947.494 159.419 945.638 176.962 933.725 186.594C921.812 196.226 904.279 194.368 894.652 182.449ZM934.396 150.321C926.316 140.311 911.619 138.763 901.614 146.847C891.609 154.93 890.062 169.636 898.142 179.646C906.221 189.655 920.918 191.203 930.923 183.12C940.928 175.036 942.475 160.331 934.396 150.321Z" fill="#504D4C"/>
<path opacity="0.75" d="M932.831 173.591C935.513 171.373 938.263 160.847 931.766 152.798C925.268 144.748 914.197 144.8 911.412 147.053C909.625 148.498 913.08 159.024 917.446 164.39C921.812 169.756 931.095 175.053 932.849 173.591H932.831Z" fill="#2B85C8"/>
<path opacity="0.75" d="M1146.44 170.392C1138.53 159.144 1141.24 143.544 1152.5 135.633C1163.75 127.721 1179.34 130.439 1187.24 141.704C1195.15 152.97 1192.44 168.552 1181.18 176.464C1169.93 184.375 1154.34 181.658 1146.44 170.392ZM1183.96 144.009C1177.33 134.567 1164.24 132.279 1154.81 138.918C1145.37 145.557 1143.08 158.645 1149.72 168.088C1156.35 177.53 1169.44 179.818 1178.87 173.179C1188.31 166.54 1190.6 153.451 1183.96 144.009Z" fill="#504D4C"/>
<path opacity="0.75" d="M1181.16 164.751C1183.69 162.928 1186.78 153.658 1181.45 146.073C1176.12 138.488 1166.2 137.852 1163.56 139.709C1161.87 140.896 1164.33 150.527 1167.91 155.601C1171.33 160.434 1179.47 165.972 1181.14 164.768L1181.16 164.751Z" fill="#DD4736"/>
<path opacity="0.75" d="M1314.8 83.5022C1301.9 90.915 1285.4 86.4604 1277.99 73.5611C1270.58 60.6617 1275.03 44.1505 1287.93 36.7376C1300.82 29.3248 1317.32 33.7794 1324.73 46.6787C1332.14 59.5781 1327.69 76.0893 1314.8 83.5022ZM1290.08 40.5042C1279.26 46.7303 1275.53 60.5757 1281.74 71.394C1287.94 82.2123 1301.8 85.9445 1312.61 79.7356C1323.42 73.5095 1327.15 59.6641 1320.95 48.8458C1314.74 38.0276 1300.89 34.2953 1290.08 40.5042Z" fill="#504D4C"/>
<path opacity="0.75" d="M1311.24 77.0696C1304.83 80.7675 1294.12 79.0819 1290.35 74.5242C1290.14 74.2662 1290.35 73.8706 1290.68 73.9394C1293.87 74.7134 1302.52 71.3767 1306.51 69.0376C1310.24 66.8533 1316.84 61.7968 1318.53 58.2194C1318.68 57.9098 1319.09 57.9958 1319.18 58.3225C1321.05 64.5658 1317.75 73.303 1311.22 77.0524L1311.24 77.0696Z" fill="#F9B900"/>
</svg>
