<?xml version="1.0" encoding="UTF-8"?><svg id="capsules" xmlns="http://www.w3.org/2000/svg" viewBox="0 0 750 1334"><defs><style>.cls-1{fill:#f8b800;}.cls-1,.cls-2,.cls-3,.cls-4,.cls-5{opacity:.79;}.cls-2{fill:#504c4c;}.cls-3{fill:#2b84c7;}.cls-4{fill:#1ca055;}.cls-5{fill:#dc4735;}</style></defs><path class="cls-1" d="m699.58,306.07l23.16-2.56c.42-.05.78.31.73.73l6.36,16.96c-.06.49-.6.74-1.01.48l-29.52-14.4c-.52-.34-.33-1.14.28-1.21Z"/><path class="cls-1" d="m703.72,323.84l22.8,20.19c.32.27.31.78-.03,1.03l-17.35,3.5c-.39.29-.95.08-1.05-.4l-5.45-23.7c-.12-.61.6-1.03,1.07-.63Z"/><path class="cls-2" d="m16.81,921.71c-27.86-1.97-48.92-26.24-46.95-54.1,1.97-27.86,26.24-48.92,54.1-46.95s48.92,26.24,46.95,54.1c-1.97,27.86-26.24,48.92-54.1,46.95Zm6.58-92.91c-23.37-1.65-43.74,16.02-45.39,39.39-1.65,23.37,16.02,43.74,39.39,45.39,23.37,1.65,43.74-16.02,45.39-39.39,1.65-23.37-16.02-43.74-39.39-45.39Z"/><path class="cls-1" d="m52.46,859.79c.37-6.32-10.25-23.07-29.04-24.4-18.59-1.32-32.5,13.49-32.97,20.01-.3,4.16,18.03,12.64,30.6,13.5,12,.82,31.16-4.95,31.41-9.11Z"/><path class="cls-2" d="m120.13,906.28c-19.35,9.52-42.85,1.52-52.37-17.83-9.52-19.35-1.52-42.85,17.83-52.37,19.35-9.52,42.85-1.52,52.37,17.83,9.52,19.35,1.52,42.85-17.83,52.37Zm-31.75-64.55c-16.24,7.99-22.95,27.7-14.96,43.94,7.99,16.24,27.7,22.95,43.94,14.96,16.24-7.99,22.95-27.7,14.96-43.94-7.99-16.24-27.7-22.95-43.94-14.96Z"/><path class="cls-3" d="m115.57,896.64c-9.64,4.74-24.99,1.31-30-5.63-.28-.39.06-.95.52-.8,4.56,1.43,17.39-2.6,23.39-5.61,5.6-2.81,15.63-9.51,18.41-14.54.24-.44.83-.27.95.22,2.14,9.22-3.48,21.55-13.27,26.37Z"/><path class="cls-2" d="m105.94,1325.41c-19.35,9.52-42.85,1.52-52.37-17.83-9.52-19.35-1.52-42.85,17.83-52.37,19.35-9.52,42.85-1.52,52.37,17.83,9.52,19.35,1.52,42.85-17.83,52.37Zm-31.75-64.55c-16.24,7.99-22.95,27.7-14.96,43.94,7.99,16.24,27.7,22.95,43.94,14.96,16.24-7.99,22.95-27.7,14.96-43.94-7.99-16.24-27.7-22.95-43.94-14.96Z"/><path class="cls-5" d="m101.39,1315.77c-9.64,4.74-24.99,1.31-30-5.63-.28-.39.06-.95.52-.8,4.56,1.43,17.39-2.6,23.39-5.61,5.6-2.81,15.63-9.51,18.41-14.54.24-.44.83-.27.95.22,2.14,9.22-3.48,21.55-13.27,26.37Z"/><path class="cls-2" d="m661.69,841.18c-25.54-10.08-38.11-39.05-28.03-64.58,10.08-25.54,39.05-38.11,64.58-28.03,25.54,10.08,38.11,39.05,28.03,64.58-10.08,25.54-39.05,38.11-64.58,28.03Zm33.61-85.16c-21.42-8.45-45.73,2.1-54.19,23.52-8.45,21.42,2.1,45.73,23.52,54.19,21.42,8.45,45.73-2.1,54.19-23.52,8.45-21.42-2.1-45.73-23.52-54.19Z"/><path class="cls-1" d="m713.4,793.66c2.21-5.81-2.79-24.66-20.01-31.45-17.04-6.72-34.45,3.05-36.82,9.03-1.51,3.81,13.17,17.18,24.7,21.7s30.68,4.56,32.14.73Z"/><path class="cls-2" d="m583.46,1165.61c-22.12-14.61-28.23-44.48-13.62-66.6,14.61-22.12,44.48-28.23,66.6-13.62,22.12,14.61,28.22,44.48,13.62,66.6-14.61,22.12-44.48,28.23-66.6,13.62Zm48.72-73.76c-18.56-12.26-43.62-7.13-55.88,11.43-12.26,18.56-7.13,43.62,11.43,55.88,18.56,12.26,43.62,7.13,55.88-11.43,12.26-18.56,7.13-43.62-11.43-55.88Z"/><path class="cls-4" d="m641.78,1131.02c3.25-5.05,2.27-23.85-12.64-33.7-14.76-9.75-33.16-3.98-36.58,1.19-2.19,3.3,9.02,18.85,19.01,25.42,9.54,6.27,28.07,10.42,30.22,7.09Z"/><path class="cls-2" d="m690.09,1142.19c-20.16-1.61-35.25-19.33-33.64-39.49,1.61-20.16,19.33-35.25,39.49-33.64,20.16,1.61,35.25,19.33,33.64,39.49-1.61,20.16-19.33,35.25-39.49,33.64Zm5.38-67.24c-16.92-1.35-31.78,11.31-33.13,28.22-1.35,16.92,11.31,31.78,28.22,33.13,16.92,1.35,31.78-11.31,33.13-28.22,1.35-16.92-11.31-31.78-28.22-33.13Z"/><path class="cls-1" d="m691.05,1132.24c-10.04-.8-20.77-10.93-21.47-18.93-.04-.45.5-.73.8-.4,2.99,3.34,15.26,6.25,21.54,6.7,5.86.42,17.15-.17,21.81-2.88.41-.24.8.19.66.63-2.7,8.46-13.14,15.69-23.34,14.88Z"/><path class="cls-2" d="m159.35,1309c-18.27-17.64-18.79-46.85-1.15-65.12,17.64-18.27,46.85-18.79,65.12-1.15,18.27,17.64,18.79,46.85,1.15,65.12-17.64,18.27-46.85,18.79-65.12,1.15Zm58.83-60.94c-15.33-14.8-39.84-14.37-54.64.96-14.8,15.33-14.37,39.84.96,54.64,15.33,14.8,39.84,14.37,54.64-.96,14.8-15.33,14.37-39.84-.96-54.64Z"/><path class="cls-4" d="m168.22,1300.11c-9.1-8.78-11.43-27.16-5.74-35.48.32-.46,1.07-.31,1.1.25.24,5.63,9.82,18.22,15.56,23.67,5.35,5.08,16.77,13.52,23.45,14.59.58.09.63.82.13,1.14-9.36,6.05-25.26,4.75-34.5-4.17Z"/><path class="cls-2" d="m490.52,1351.59c-24.04.09-43.67-19.39-43.76-43.43-.09-24.04,19.39-43.67,43.43-43.76,24.04-.09,43.67,19.39,43.76,43.43.09,24.04-19.39,43.67-43.43,43.76Zm-.3-80.18c-20.17.08-36.52,16.55-36.44,36.72.08,20.17,16.55,36.52,36.72,36.44,20.17-.08,36.52-16.55,36.44-36.72-.08-20.17-16.55-36.52-36.72-36.44Z"/><path class="cls-5" d="m517.15,1296.16c-.09-5.45-10.28-19.15-26.49-19.09-16.04.06-27.03,13.66-27.02,19.29,0,3.59,16.28,9.7,27.13,9.63,10.35-.06,26.43-6.24,26.38-9.83Z"/><path class="cls-2" d="m333.64-14.65c-.09,24.04-19.72,43.52-43.76,43.43-24.04-.09-43.52-19.72-43.43-43.76.09-24.04,19.72-43.52,43.76-43.43s43.52,19.72,43.43,43.76Zm-7.02-.03c.08-20.17-16.27-36.64-36.44-36.72-20.17-.08-36.64,16.27-36.72,36.44-.08,20.17,16.27,36.64,36.44,36.72,20.17.08,36.64-16.27,36.72-36.44Z"/><path class="cls-5" d="m316.85-2.98c-.09,5.45-10.28,19.15-26.49,19.09-16.04-.06-27.03-13.66-27.02-19.29,0-3.59,16.28-9.7,27.13-9.63,10.35.06,26.43,6.24,26.38,9.83Z"/><path class="cls-3" d="m247.1,162.84l24.97-26.38c.45-.48,1.24-.41,1.6.14l24.65,13.76c.42.63.03,1.49-.72,1.59l-49.62,12.62c-.96.13-1.55-1.02-.88-1.73Z"/><path class="cls-3" d="m269.91,179.81l47.46,1.05c.66,0,1.15.61,1.01,1.26l-17.1,21.64c-.17.74-1.06,1.05-1.65.58l-30.36-22.69c-.76-.61-.33-1.83.64-1.83Z"/><path class="cls-1" d="m178.1,1118.25l30.12,31.82c.55.58,1.49.5,1.93-.16l29.74-16.6c.51-.76.04-1.8-.87-1.92l-59.86-15.22c-1.16-.15-1.87,1.23-1.06,2.08Z"/><path class="cls-1" d="m205.62,1097.78l57.25-1.27c.8,0,1.39-.74,1.22-1.51l-20.63-26.11c-.2-.9-1.27-1.27-1.99-.69l-36.62,27.37c-.91.73-.4,2.2.77,2.21Z"/><path class="cls-2" d="m439.59,13.03c-18.99-12.3-24.43-37.76-12.13-56.74,12.3-18.99,37.76-24.43,56.74-12.13,18.99,12.3,24.43,37.76,12.13,56.74-12.3,18.99-37.76,24.43-56.74,12.13Zm41.02-63.33c-15.93-10.32-37.29-5.76-47.61,10.18-10.32,15.93-5.76,37.29,10.18,47.61,15.93,10.32,37.29,5.76,47.61-10.18,10.32-15.93,5.76-37.29-10.18-47.61Z"/><path class="cls-2" d="m35.47,279.57c-12.81,15.33-35.71,17.37-51.03,4.56-15.33-12.81-17.37-35.71-4.56-51.03,12.81-15.33,35.71-17.37,51.03-4.56,15.33,12.81,17.37,35.71,4.56,51.03Zm-51.12-42.73c-10.75,12.86-9.03,32.07,3.83,42.82,12.86,10.75,32.07,9.03,42.82-3.83,10.75-12.86,9.03-32.07-3.83-42.82-12.86-10.75-32.07-9.03-42.82,3.83Z"/><path class="cls-1" d="m14.5,232.97c-3.51-2.86-17.67-3.72-26.31,6.61-8.55,10.23-5.79,24.5-2.2,27.5,2.29,1.92,14.88-5.16,20.65-12.09,5.5-6.61,10.18-20.14,7.87-22.03Z"/><path class="cls-2" d="m183.15,274.66c-19.23,12.45-45,6.93-57.45-12.29-12.45-19.23-6.93-45,12.29-57.45,19.23-12.45,45-6.93,57.45,12.29,12.45,19.23,6.93,45-12.29,57.45Zm-41.52-64.13c-16.13,10.45-20.76,32.07-10.32,48.2,10.45,16.13,32.07,20.76,48.2,10.32,16.13-10.45,20.76-32.07,10.32-48.2-10.45-16.13-32.07-20.76-48.2-10.32Z"/><path class="cls-4" d="m177.15,265.06c-9.57,6.2-26.2,4.49-32.34-2.21-.34-.37-.05-1.01.45-.91,4.99.94,18.02-4.91,23.97-8.83,5.56-3.66,15.3-11.98,17.61-17.62.2-.49.85-.38,1.03.12,3.4,9.46-.99,23.16-10.72,29.46Z"/><path class="cls-2" d="m554.55,165.88c-14.75-18.25-11.9-45.09,6.35-59.84,18.25-14.75,45.09-11.9,59.84,6.35,14.75,18.25,11.9,45.09-6.35,59.84-18.25,14.75-45.09,11.9-59.84-6.35Zm60.87-49.18c-12.37-15.31-34.9-17.7-50.21-5.33-15.31,12.37-17.7,34.9-5.33,50.21,12.37,15.31,34.9,17.7,50.21,5.33,15.31-12.37,17.7-34.9,5.33-50.21Z"/><path class="cls-3" d="m613.02,152.32c4.09-3.39,8.31-19.52-1.64-31.82s-26.91-12.24-31.19-8.8c-2.73,2.2,2.56,18.32,9.23,26.54,6.37,7.85,20.89,16.32,23.59,14.08Z"/></svg>