<?xml version="1.0" encoding="UTF-8"?><svg id="elements" xmlns="http://www.w3.org/2000/svg" viewBox="0 0 750 1334"><defs><style>.cls-1{stroke-dasharray:0 20.24;}.cls-1,.cls-2{stroke-width:8.43px;}.cls-1,.cls-2,.cls-3{fill:none;stroke:#eeeeef;stroke-miterlimit:10;}.cls-4{fill:#eeeeef;}.cls-3{stroke-linecap:round;stroke-width:10.44px;}</style></defs><path class="cls-4" d="m231.88,277.02l-83.48-34.18v30.03H-449.74v8.43H148.4v31l83.48-35.28Zm-75.05-21.62l53.1,21.74-53.1,22.44v-44.18Z"/><line class="cls-2" x1="-502.23" y1="191.96" x2="100.13" y2="191.96"/><polygon class="cls-2" points="100.13 164 100.13 220.82 168.42 191.96 100.13 164"/><path class="cls-4" d="m998.08,958.64h20.24v8.43h-20.24v-8.43Zm-161.89,8.43h20.24v-8.43h-20.24v8.43Zm121.42,0h20.24v-8.43h-20.24v8.43Zm-161.89,0h20.24v-8.43h-20.24v8.43Zm121.42,0h20.24v-8.43h-20.24v8.43Zm-40.47,0h20.24v-8.43h-20.24v8.43Zm566.61-8.43v8.43h20.24v-8.43h-20.24Zm-768.97,8.43h20.24v-8.43h-20.24v8.43Zm80.94,0h20.24v-8.43h-20.24v8.43Zm-40.47,0h20.24v-8.43h-20.24v8.43Zm647.55,0h20.24v-8.43h-20.24v8.43Zm-323.78,0h20.24v-8.43h-20.24v8.43Zm202.36,0h20.24v-8.43h-20.24v8.43Zm80.94,0h20.24v-8.43h-20.24v8.43Zm80.94,0h20.24v-8.43h-20.24v8.43Zm-121.42,0h20.24v-8.43h-20.24v8.43Zm-80.94,0h20.24v-8.43h-20.24v8.43Zm-121.42,0h20.24v-8.43h-20.24v8.43Zm40.47,0h20.24v-8.43h-20.24v8.43Zm40.47,0h20.24v-8.43h-20.24v8.43Zm-516.12-8.43h10.21v8.43h-10.21v31l-83.48-35.28,83.48-34.18v30.03Zm-8.43-17.46l-53.1,21.74,53.1,22.44v-44.18Z"/><line class="cls-1" x1="1392.53" y1="895.19" x2="568.65" y2="895.19"/><polygon class="cls-2" points="568.65 867.23 568.65 924.05 500.36 895.19 568.65 867.23"/><path class="cls-4" d="m751.06-34.65l-26.13,29.07c69.36.07,127.43,49.15,141.44,114.4l31.85,28.92,27.29-24.53c-12.81-99.26-97.72-176.23-200.36-176.41l25.92,28.55Z"/><path class="cls-4" d="m550.89,102.65l29.46,26.48c4.73-68.29,56.99-123.68,123.87-133.23l27.42-30.51-25.19-27.74c-99.48,8.97-178.44,90.18-183.82,190.65l28.25-25.66Z"/><path class="cls-4" d="m898.16,157.15l-28.81-26.16c.15,2.73.25,5.48.25,8.24,0,76.02-58.89,138.5-133.43,144.33l-26.42,29.09,25.83,28.73c106.63-5.63,191.65-94.15,191.65-202.15,0-2.69-.1-5.36-.2-8.03l-28.86,25.95Z"/><path class="cls-4" d="m690.34,312.61l26.16-28.81c-72.96-4.14-131.62-62.52-136.22-135.37l-29.34-26.38-28.39,25.78c4.41,104.82,88.88,189.26,193.72,193.63l-25.94-28.85Z"/><path class="cls-3" d="m9.31,939.12c-90.16,30.43-155.09,115.66-155.09,216.09,0,27.94,5.04,54.69,14.24,79.43"/><polygon class="cls-4" points="-23.82 912 -1.78 942.71 -8.58 979.9 64.27 927.89 -23.82 912"/><path class="cls-3" d="m305.99,1200.12c2.9-14.52,4.43-29.54,4.43-44.91,0-112.96-82.13-206.68-189.92-224.86"/><polygon class="cls-4" points="345.98 1184.93 308.37 1188.71 279.54 1164.26 288.27 1253.35 345.98 1184.93"/><path class="cls-3" d="m-68.32,1326.45c40.17,35.39,92.89,56.86,150.64,56.86,70.67,0,133.83-32.15,175.67-82.61"/></svg>