<?xml version="1.0" encoding="UTF-8"?><svg id="_レイヤー_2" xmlns="http://www.w3.org/2000/svg" viewBox="0 0 430.7 230.65"><defs><style>.cls-1{fill:#f9b900;}.cls-2{fill:#009a3e;}.cls-3{fill:#dd4736;}.cls-4{fill:#2b85c8;}.cls-5{fill:#494342;}</style></defs><g id="_レイヤー_1-2"><path class="cls-5" d="m291.32,228.48c-.56,0-1.01-.46-1.01-1.01v-1.49c0-.56.33-1.33.74-1.71l9.8-9.27c.41-.38,1.05-1.03,1.44-1.43,0,0,.9-.94,1.36-1.61s.77-1.3.93-1.88c.16-.58.24-1.12.24-1.64,0-1.29-.45-2.3-1.35-3.01-.9-.71-2.23-1.07-3.98-1.07-1.35,0-2.58.24-3.7.73-1.12.48-2.16,1.48-2.16,1.48-.4.39-1.1.43-1.54.09l-2.06-1.56c-.44-.34-.49-.94-.1-1.34,0,0,1.88-1.91,3.75-2.73,1.87-.82,3.97-1.23,6.28-1.23,2.05,0,3.82.33,5.33.99s2.68,1.6,3.51,2.81c.83,1.21,1.25,2.64,1.25,4.28,0,.94-.12,1.87-.36,2.77-.24.9-.7,1.86-1.37,2.87-.67,1.01-2.24,2.64-2.24,2.64-.39.4-1.04,1.04-1.44,1.43l-8.22,7.74c-.41.38-.96.3-1.23-.19l-.11-.2c-.27-.49-.03-.89.52-.89h14.54c.56,0,1.01.46,1.01,1.01v2.41c0,.56-.46,1.01-1.01,1.01h-18.82Z"/><path class="cls-5" d="m326.02,228.88c-2.26,0-4.28-.57-6.06-1.7-1.78-1.13-3.19-2.78-4.22-4.95-1.04-2.17-1.56-4.8-1.56-7.9s.52-5.73,1.56-7.9c1.04-2.17,2.44-3.82,4.22-4.95,1.78-1.13,3.8-1.7,6.06-1.7s4.24.57,6.02,1.7c1.78,1.13,3.18,2.78,4.22,4.95,1.04,2.17,1.56,4.8,1.56,7.9s-.52,5.73-1.56,7.9c-1.04,2.17-2.44,3.82-4.22,4.95-1.78,1.13-3.78,1.7-6.02,1.7Zm0-4.57c1.29,0,2.42-.36,3.39-1.07.97-.71,1.73-1.81,2.28-3.29.55-1.48.83-3.35.83-5.62s-.28-4.13-.83-5.62c-.55-1.48-1.31-2.58-2.28-3.29-.97-.71-2.1-1.07-3.39-1.07s-2.43.36-3.41,1.07c-.98.71-1.76,1.81-2.32,3.29-.57,1.48-.85,3.35-.85,5.62s.28,4.13.85,5.62c.56,1.48,1.34,2.58,2.32,3.29.98.71,2.12,1.07,3.41,1.07Z"/><path class="cls-5" d="m342.02,228.48c-.56,0-1.01-.46-1.01-1.01v-1.49c0-.56.33-1.33.74-1.71l9.8-9.27c.41-.38,1.05-1.03,1.44-1.43,0,0,.9-.94,1.36-1.61s.77-1.3.93-1.88c.16-.58.24-1.12.24-1.64,0-1.29-.45-2.3-1.35-3.01-.9-.71-2.23-1.07-3.98-1.07-1.35,0-2.58.24-3.7.73-1.12.48-2.16,1.48-2.16,1.48-.4.39-1.1.43-1.54.09l-2.06-1.56c-.44-.34-.49-.94-.1-1.34,0,0,1.88-1.91,3.75-2.73,1.87-.82,3.97-1.23,6.28-1.23,2.05,0,3.82.33,5.33.99,1.51.66,2.68,1.6,3.51,2.81.83,1.21,1.25,2.64,1.25,4.28,0,.94-.12,1.87-.36,2.77-.24.9-.7,1.86-1.37,2.87-.67,1.01-2.24,2.64-2.24,2.64-.39.4-1.04,1.04-1.44,1.43l-8.22,7.74c-.41.38-.96.3-1.23-.19l-.11-.2c-.27-.49-.03-.89.52-.89h14.54c.56,0,1.01.46,1.01,1.01v2.41c0,.56-.46,1.01-1.01,1.01h-18.82Z"/><path class="cls-5" d="m365.49,222.02c-.56,0-1.01-.46-1.01-1.01v-1.57c0-.56.28-1.38.62-1.82l12.71-16.61c.34-.44,1.07-.81,1.63-.81h3.59c.56,0,.74.36.4.81l-12.48,16.6c-.34.45-1.05.68-1.58.52l-.72-.22c-.53-.16-.51-.29.04-.29h20.35c.56,0,1.01.46,1.01,1.01v2.37c0,.56-.46,1.01-1.01,1.01h-23.54Zm15.55,6.46c-.56,0-1.01-.46-1.01-1.01v-4.43c0-.56.01-1.47.03-2.03l.06-2.37c.02-.56.03-1.47.03-2.03v-3.67c0-.56.46-1.01,1.01-1.01h2.94c.56,0,1.01.46,1.01,1.01v14.53c0,.56-.46,1.01-1.01,1.01h-3.06Z"/><path class="cls-5" d="m39.72,157.86c-.79-1.87-1.9-3.49-3.33-4.86-1.43-1.37-3.12-2.43-5.07-3.18-1.95-.75-4.07-1.12-6.36-1.12s-4.45.38-6.41,1.15c-1.95.76-3.65,1.83-5.09,3.2-1.44,1.37-2.56,2.98-3.35,4.84-.79,1.85-1.19,3.88-1.19,6.09s.4,4.19,1.19,6.05c.79,1.85,1.91,3.47,3.35,4.86,1.44,1.39,3.15,2.46,5.11,3.23,1.97.76,4.09,1.15,6.39,1.15s4.41-.38,6.36-1.12c1.95-.75,3.64-1.82,5.07-3.2,1.43-1.39,2.54-3,3.33-4.86.79-1.85,1.19-3.88,1.19-6.09s-.4-4.24-1.19-6.11Zm-5.15,10.31c-.52,1.27-1.25,2.38-2.19,3.31-.93.93-2.03,1.65-3.29,2.16-1.26.51-2.64.76-4.14.76s-2.89-.25-4.18-.76c-1.29-.51-2.4-1.24-3.33-2.18-.93-.95-1.67-2.06-2.21-3.33-.54-1.27-.81-2.66-.81-4.16s.27-2.92.81-4.18c.54-1.26,1.27-2.36,2.21-3.31.93-.95,2.04-1.68,3.33-2.19,1.29-.51,2.68-.76,4.18-.76s2.88.25,4.14.76c1.26.51,2.36,1.23,3.31,2.16.95.93,1.68,2.04,2.18,3.31.51,1.27.76,2.67.76,4.2s-.26,2.93-.78,4.2Z"/><path class="cls-5" d="m49.32,178.2c-.47,0-.85-.38-.85-.85v-28.53c0-.47.38-.85.85-.85h3.35c.47,0,.85.38.85.85v11.82c0,.47-.03,1.24-.06,1.7l-.29,4.08c-.03.47-.05,1.23-.03,1.7l.14,4.08c.02.47.03,1.24.03,1.71v3.43c0,.47-.38.85-.85.85h-3.14Z"/><path class="cls-5" d="m70.09,161.45c-.96-1.68-2.28-2.99-3.93-3.91-1.66-.92-3.54-1.39-5.66-1.39-1.79,0-3.41.4-4.85,1.2-1.44.8-2.58,2.02-3.42,3.67-.84,1.64-1.26,3.74-1.26,6.3s.4,4.62,1.2,6.28c.8,1.66,1.94,2.89,3.4,3.69,1.47.8,3.11,1.2,4.93,1.2,2.12,0,4.01-.46,5.66-1.39,1.66-.92,2.97-2.22,3.93-3.89.96-1.67,1.45-3.63,1.45-5.89s-.48-4.18-1.45-5.87Zm-4.58,9.47c-.57,1.05-1.34,1.85-2.3,2.4-.96.56-2.07.83-3.32.83s-2.28-.28-3.26-.83c-.98-.56-1.75-1.36-2.32-2.4-.57-1.05-.86-2.25-.86-3.61s.28-2.59.86-3.61c.57-1.02,1.34-1.81,2.32-2.36.98-.56,2.06-.84,3.26-.84s2.36.28,3.32.84c.96.56,1.73,1.34,2.3,2.36.57,1.02.86,2.22.86,3.61s-.29,2.56-.86,3.61Z"/><path class="cls-5" d="m76.41,186.98c-.95,0-1.86-.11-2.73-.33-.88-.22-1.46-.54-1.46-.54-.42-.23-.63-.78-.45-1.23l.87-2.25c.17-.45.67-.64,1.1-.44,0,0,1.03.5,2.26.5.94,0,1.68-.3,2.21-.9.53-.6.68-1.78.68-1.78.06-.48.11-1.26.11-1.74v-21.06c0-.48.39-.87.87-.87h3.47c.48,0,.87.39.87.87v20.93c0,.48-.06,1.26-.13,1.74,0,0-.54,3.52-1.89,4.95-1.35,1.43-3.27,2.15-5.77,2.15Z"/><path class="cls-5" d="m81.58,152.67c-.97,0-1.77-.31-2.4-.92s-.94-1.36-.94-2.25c0-.83.31-1.56.94-2.17.63-.61,1.42-.92,2.4-.92s1.77.29,2.4.85c.63.57.94,1.3.94,2.19s-.31,1.65-.92,2.27c-.61.63-1.42.94-2.42.94Z"/><path class="cls-5" d="m76.41,186.98c-.95,0-1.86-.11-2.73-.33-.88-.22-1.46-.54-1.46-.54-.42-.23-.63-.78-.45-1.23l.87-2.25c.17-.45.67-.64,1.1-.44,0,0,1.03.5,2.26.5.94,0,1.68-.3,2.21-.9.53-.6.68-1.78.68-1.78.06-.48.11-1.26.11-1.74v-21.06c0-.48.39-.87.87-.87h3.47c.48,0,.87.39.87.87v20.93c0,.48-.06,1.26-.13,1.74,0,0-.54,3.52-1.89,4.95-1.35,1.43-3.27,2.15-5.77,2.15Z"/><path class="cls-5" d="m81.58,152.67c-.97,0-1.77-.31-2.4-.92s-.94-1.36-.94-2.25c0-.83.31-1.56.94-2.17.63-.61,1.42-.92,2.4-.92s1.77.29,2.4.85c.63.57.94,1.3.94,2.19s-.31,1.65-.92,2.27c-.61.63-1.42.94-2.42.94Z"/><path class="cls-5" d="m103.62,179.11c-2.52,0-4.72-.5-6.6-1.51-1.88-1-3.34-2.38-4.37-4.12-1.03-1.74-1.55-3.74-1.55-6s.5-4.26,1.51-6c1-1.74,2.39-3.11,4.16-4.12,1.77-1,3.78-1.51,6.05-1.51s4.17.49,5.9,1.46c1.73.98,3.08,2.34,4.07,4.09.99,1.75,1.48,3.83,1.48,6.24,0,.2,0,.45-.02.74v.3c-.04.27-.46.49-.95.49h-17.1c-.49,0-.89-.4-.89-.89v-1.74c0-.49.4-.89.89-.89h14.3c.49,0,.53.18.1.41l-.55.28c-.43.23-.83.01-.87-.47,0,0-.15-1.53-.7-2.53-.55-1-1.31-1.78-2.27-2.33-.96-.55-2.09-.83-3.39-.83s-2.41.28-3.42.83c-1,.55-1.78,1.34-2.31,2.35-.54,1.02-.71,2.64-.71,2.64-.05.49-.09,1.07-.09,1.31s.05.82.1,1.31c0,0,.2,1.68.81,2.72.61,1.05,1.48,1.86,2.61,2.44,1.13.58,2.45.87,3.95.87,1.27,0,2.42-.21,3.44-.64,1.02-.42,2.04-1.29,2.04-1.29.37-.32.94-.27,1.26.09l1.72,1.97c.32.37.29.94-.08,1.26,0,0-1.68,1.5-3.22,2.12-1.54.62-3.3.93-5.28.93Z"/><path class="cls-5" d="m103.62,179.11c-2.52,0-4.72-.5-6.6-1.51-1.88-1-3.34-2.38-4.37-4.12-1.03-1.74-1.55-3.74-1.55-6s.5-4.26,1.51-6c1-1.74,2.39-3.11,4.16-4.12,1.77-1,3.78-1.51,6.05-1.51s4.17.49,5.9,1.46c1.73.98,3.08,2.34,4.07,4.09.99,1.75,1.48,3.83,1.48,6.24,0,.2,0,.45-.02.74v.3c-.04.27-.46.49-.95.49h-17.1c-.49,0-.89-.4-.89-.89v-1.74c0-.49.4-.89.89-.89h14.3c.49,0,.53.18.1.41l-.55.28c-.43.23-.83.01-.87-.47,0,0-.15-1.53-.7-2.53-.55-1-1.31-1.78-2.27-2.33-.96-.55-2.09-.83-3.39-.83s-2.41.28-3.42.83c-1,.55-1.78,1.34-2.31,2.35-.54,1.02-.71,2.64-.71,2.64-.05.49-.09,1.07-.09,1.31s.05.82.1,1.31c0,0,.2,1.68.81,2.72.61,1.05,1.48,1.86,2.61,2.44,1.13.58,2.45.87,3.95.87,1.27,0,2.42-.21,3.44-.64,1.02-.42,2.04-1.29,2.04-1.29.37-.32.94-.27,1.26.09l1.72,1.97c.32.37.29.94-.08,1.26,0,0-1.68,1.5-3.22,2.12-1.54.62-3.3.93-5.28.93Z"/><path class="cls-5" d="m131.45,179.11c-2.38,0-4.49-.5-6.34-1.51-1.85-1-3.3-2.38-4.35-4.12-1.05-1.74-1.57-3.74-1.57-6s.52-4.3,1.57-6.02c1.05-1.73,2.5-3.09,4.35-4.09,1.85-1,3.97-1.51,6.34-1.51,2.18,0,4.12.45,5.81,1.36,1.7.91,3.31,3.22,3.31,3.22.28.4.16.93-.26,1.18l-2.5,1.47c-.42.25-1.02.14-1.33-.23,0,0-.94-1.15-1.92-1.67-.98-.52-2.03-.78-3.16-.78-1.3,0-2.48.29-3.52.87s-1.87,1.4-2.46,2.46c-.59,1.06-.89,2.31-.89,3.76s.3,2.7.89,3.78c.59,1.07,1.41,1.9,2.46,2.48,1.05.58,2.22.87,3.52.87,1.13,0,2.18-.26,3.16-.78.98-.52,1.93-1.7,1.93-1.7.31-.38.9-.49,1.32-.24l2.5,1.47c.42.25.53.78.25,1.18,0,0-1.61,2.28-3.31,3.2-1.7.92-3.64,1.38-5.81,1.38Z"/><path class="cls-5" d="m131.45,179.11c-2.38,0-4.49-.5-6.34-1.51-1.85-1-3.3-2.38-4.35-4.12-1.05-1.74-1.57-3.74-1.57-6s.52-4.3,1.57-6.02c1.05-1.73,2.5-3.09,4.35-4.09,1.85-1,3.97-1.51,6.34-1.51,2.18,0,4.12.45,5.81,1.36,1.7.91,3.31,3.22,3.31,3.22.28.4.16.93-.26,1.18l-2.5,1.47c-.42.25-1.02.14-1.33-.23,0,0-.94-1.15-1.92-1.67-.98-.52-2.03-.78-3.16-.78-1.3,0-2.48.29-3.52.87s-1.87,1.4-2.46,2.46c-.59,1.06-.89,2.31-.89,3.76s.3,2.7.89,3.78c.59,1.07,1.41,1.9,2.46,2.48,1.05.58,2.22.87,3.52.87,1.13,0,2.18-.26,3.16-.78.98-.52,1.93-1.7,1.93-1.7.31-.38.9-.49,1.32-.24l2.5,1.47c.42.25.53.78.25,1.18,0,0-1.61,2.28-3.31,3.2-1.7.92-3.64,1.38-5.81,1.38Z"/><rect class="cls-5" x="144.39" y="156.33" width="15.1" height="4.24" rx=".89" ry=".89"/><path class="cls-5" d="m155.93,179.11c-2.49,0-4.41-.64-5.77-1.93-1.36-1.29-1.9-4.79-1.9-4.79-.07-.48-.14-1.28-.14-1.77v-18.59c0-.49.4-.89.89-.89h3.48c.49,0,.89.4.89.89v18.42c0,.49.06,1.28.13,1.77,0,0,.15,1.03.72,1.62.57.59,1.36.89,2.38.89,1.16,0,2.1-.51,2.1-.51.43-.23.93-.05,1.11.4l.86,2.13c.18.45,0,1.03-.42,1.29,0,0-.68.42-1.58.68-.91.25-1.82.38-2.76.38Z"/><rect class="cls-5" x="144.39" y="156.33" width="15.1" height="4.24" rx=".89" ry=".89"/><path class="cls-5" d="m155.93,179.11c-2.49,0-4.41-.64-5.77-1.93-1.36-1.29-1.9-4.79-1.9-4.79-.07-.48-.14-1.28-.14-1.77v-18.59c0-.49.4-.89.89-.89h3.48c.49,0,.89.4.89.89v18.42c0,.49.06,1.28.13,1.77,0,0,.15,1.03.72,1.62.57.59,1.36.89,2.38.89,1.16,0,2.1-.51,2.1-.51.43-.23.93-.05,1.11.4l.86,2.13c.18.45,0,1.03-.42,1.29,0,0-.68.42-1.58.68-.91.25-1.82.38-2.76.38Z"/><path class="cls-5" d="m217.23,157.86c-.79-1.87-1.9-3.49-3.33-4.86-1.43-1.37-3.12-2.43-5.07-3.18-1.95-.75-4.07-1.12-6.36-1.12s-4.45.38-6.41,1.15-3.65,1.83-5.09,3.2c-1.44,1.37-2.56,2.98-3.35,4.84-.79,1.85-1.19,3.88-1.19,6.09s.4,4.19,1.19,6.05c.79,1.85,1.91,3.47,3.35,4.86,1.44,1.39,3.15,2.46,5.11,3.23,1.97.76,4.09,1.15,6.39,1.15s4.41-.38,6.36-1.12c1.95-.75,3.64-1.82,5.07-3.2,1.43-1.39,2.54-3,3.33-4.86.79-1.85,1.19-3.88,1.19-6.09s-.4-4.24-1.19-6.11Zm-5.15,10.31c-.52,1.27-1.25,2.38-2.19,3.31-.93.93-2.03,1.65-3.29,2.16-1.26.51-2.64.76-4.14.76s-2.89-.25-4.18-.76c-1.29-.51-2.4-1.24-3.33-2.18-.93-.95-1.67-2.06-2.21-3.33s-.81-2.66-.81-4.16.27-2.92.81-4.18c.54-1.26,1.27-2.36,2.21-3.31.93-.95,2.04-1.68,3.33-2.19,1.29-.51,2.68-.76,4.18-.76s2.88.25,4.14.76c1.26.51,2.36,1.23,3.31,2.16.95.93,1.68,2.04,2.18,3.31.51,1.27.76,2.67.76,4.2s-.26,2.93-.78,4.2Z"/><path class="cls-5" d="m226.39,178.81c-.49,0-.89-.4-.89-.89v-20.88c0-.49.4-.89.89-.89h3.27c.49,0,.89.4.89.89v4.46c0,.49-.12.51-.27.04l-.04-.13c-.15-.46-.06-1.18.2-1.59,0,0,1.23-1.94,2.71-2.75,1.47-.81,4.5-1.12,4.5-1.12.49-.05.88.31.88.8v3.27c0,.49-.18.87-.4.84h-.2c-.2-.03-.38-.04-.55-.04-2.04,0-3.65.58-4.84,1.74-1.19,1.16-1.66,4.42-1.66,4.42-.07.48-.13,1.28-.13,1.77v9.17c0,.49-.4.89-.89.89h-3.48Z"/><path class="cls-5" d="m226.39,178.81c-.49,0-.89-.4-.89-.89v-20.88c0-.49.4-.89.89-.89h3.27c.49,0,.89.4.89.89v4.46c0,.49-.12.51-.27.04l-.04-.13c-.15-.46-.06-1.18.2-1.59,0,0,1.23-1.94,2.71-2.75,1.47-.81,4.5-1.12,4.5-1.12.49-.05.88.31.88.8v3.27c0,.49-.18.87-.4.84h-.2c-.2-.03-.38-.04-.55-.04-2.04,0-3.65.58-4.84,1.74-1.19,1.16-1.66,4.42-1.66,4.42-.07.48-.13,1.28-.13,1.77v9.17c0,.49-.4.89-.89.89h-3.48Z"/><path class="cls-5" d="m247.65,152.42c-.99,0-1.8-.31-2.44-.93s-.95-1.39-.95-2.29c0-.85.32-1.58.95-2.21.64-.62,1.45-.93,2.44-.93s1.8.29,2.44.87c.64.58.95,1.32.95,2.23s-.31,1.68-.93,2.31c-.62.64-1.44.95-2.46.95Z"/><rect class="cls-5" x="245.02" y="156.16" width="5.26" height="22.66" rx=".89" ry=".89"/><path class="cls-5" d="m247.65,152.42c-.99,0-1.8-.31-2.44-.93s-.95-1.39-.95-2.29c0-.85.32-1.58.95-2.21.64-.62,1.45-.93,2.44-.93s1.8.29,2.44.87c.64.58.95,1.32.95,2.23s-.31,1.68-.93,2.31c-.62.64-1.44.95-2.46.95Z"/><rect class="cls-5" x="245.02" y="156.16" width="5.26" height="22.66" rx=".89" ry=".89"/><path class="cls-5" d="m269.58,179.11c-2.52,0-4.72-.5-6.6-1.51-1.88-1-3.34-2.38-4.37-4.12-1.03-1.74-1.55-3.74-1.55-6s.5-4.26,1.51-6c1-1.74,2.39-3.11,4.16-4.12,1.77-1,3.78-1.51,6.05-1.51s4.17.49,5.9,1.46,3.08,2.34,4.07,4.09c.99,1.75,1.48,3.83,1.48,6.24,0,.2,0,.45-.02.74v.3c-.04.27-.46.49-.95.49h-17.1c-.49,0-.89-.4-.89-.89v-1.74c0-.49.4-.89.89-.89h14.3c.49,0,.53.18.1.41l-.55.28c-.43.23-.83.01-.87-.47,0,0-.15-1.53-.7-2.53-.55-1-1.31-1.78-2.27-2.33-.96-.55-2.09-.83-3.39-.83s-2.41.28-3.42.83c-1,.55-1.78,1.34-2.31,2.35-.54,1.02-.71,2.64-.71,2.64-.05.49-.09,1.07-.09,1.31s.05.82.1,1.31c0,0,.2,1.68.81,2.72.61,1.05,1.48,1.86,2.61,2.44,1.13.58,2.45.87,3.95.87,1.27,0,2.42-.21,3.44-.64,1.02-.42,2.04-1.29,2.04-1.29.37-.32.94-.27,1.26.09l1.72,1.97c.32.37.29.94-.08,1.26,0,0-1.68,1.5-3.22,2.12-1.54.62-3.3.93-5.28.93Z"/><path class="cls-5" d="m269.58,179.11c-2.52,0-4.72-.5-6.6-1.51-1.88-1-3.34-2.38-4.37-4.12-1.03-1.74-1.55-3.74-1.55-6s.5-4.26,1.51-6c1-1.74,2.39-3.11,4.16-4.12,1.77-1,3.78-1.51,6.05-1.51s4.17.49,5.9,1.46,3.08,2.34,4.07,4.09c.99,1.75,1.48,3.83,1.48,6.24,0,.2,0,.45-.02.74v.3c-.04.27-.46.49-.95.49h-17.1c-.49,0-.89-.4-.89-.89v-1.74c0-.49.4-.89.89-.89h14.3c.49,0,.53.18.1.41l-.55.28c-.43.23-.83.01-.87-.47,0,0-.15-1.53-.7-2.53-.55-1-1.31-1.78-2.27-2.33-.96-.55-2.09-.83-3.39-.83s-2.41.28-3.42.83c-1,.55-1.78,1.34-2.31,2.35-.54,1.02-.71,2.64-.71,2.64-.05.49-.09,1.07-.09,1.31s.05.82.1,1.31c0,0,.2,1.68.81,2.72.61,1.05,1.48,1.86,2.61,2.44,1.13.58,2.45.87,3.95.87,1.27,0,2.42-.21,3.44-.64,1.02-.42,2.04-1.29,2.04-1.29.37-.32.94-.27,1.26.09l1.72,1.97c.32.37.29.94-.08,1.26,0,0-1.68,1.5-3.22,2.12-1.54.62-3.3.93-5.28.93Z"/><path class="cls-5" d="m299.88,155.86c1.84,0,3.46.35,4.86,1.06s2.52,1.8,3.35,3.27c.83,1.47,1.16,4.76,1.16,4.76.05.49.09,1.28.09,1.77v11.21c0,.49-.4.89-.89.89h-3.53c-.49,0-.89-.4-.89-.89v-10.53c0-.49-.05-1.28-.12-1.77,0,0-.35-2.63-1.28-3.62-.93-.99-2.26-1.48-3.99-1.48-1.24,0-2.35.25-3.31.76-.96.51-1.7,1.27-2.23,2.27-.52,1-.7,2.91-.7,2.91-.05.49-.08,1.28-.08,1.77v9.68c0,.49-.4.89-.89.89h-3.48c-.49,0-.89-.4-.89-.89v-20.88c0-.49.4-.89.89-.89h3.27c.49,0,.89.4.89.89v4.38c0,.49-.17.53-.38.08l-.14-.3c-.21-.44-.14-1.13.15-1.52,0,0,1.37-1.85,2.89-2.64,1.51-.79,3.26-1.19,5.24-1.19Z"/><path class="cls-5" d="m299.88,155.86c1.84,0,3.46.35,4.86,1.06s2.52,1.8,3.35,3.27c.83,1.47,1.16,4.76,1.16,4.76.05.49.09,1.28.09,1.77v11.21c0,.49-.4.89-.89.89h-3.53c-.49,0-.89-.4-.89-.89v-10.53c0-.49-.05-1.28-.12-1.77,0,0-.35-2.63-1.28-3.62-.93-.99-2.26-1.48-3.99-1.48-1.24,0-2.35.25-3.31.76-.96.51-1.7,1.27-2.23,2.27-.52,1-.7,2.91-.7,2.91-.05.49-.08,1.28-.08,1.77v9.68c0,.49-.4.89-.89.89h-3.48c-.49,0-.89-.4-.89-.89v-20.88c0-.49.4-.89.89-.89h3.27c.49,0,.89.4.89.89v4.38c0,.49-.17.53-.38.08l-.14-.3c-.21-.44-.14-1.13.15-1.52,0,0,1.37-1.85,2.89-2.64,1.51-.79,3.26-1.19,5.24-1.19Z"/><rect class="cls-5" x="314.77" y="156.33" width="15.1" height="4.24" rx=".89" ry=".89"/><path class="cls-5" d="m326.31,179.11c-2.49,0-4.41-.64-5.77-1.93-1.36-1.29-1.9-4.79-1.9-4.79-.07-.48-.14-1.28-.14-1.77v-18.59c0-.49.4-.89.89-.89h3.48c.49,0,.89.4.89.89v18.42c0,.49.06,1.28.13,1.77,0,0,.15,1.03.72,1.62.57.59,1.36.89,2.38.89,1.16,0,2.1-.51,2.1-.51.43-.23.93-.05,1.11.4l.86,2.13c.18.45,0,1.03-.42,1.29,0,0-.68.42-1.58.68-.91.25-1.82.38-2.76.38Z"/><rect class="cls-5" x="314.77" y="156.33" width="15.1" height="4.24" rx=".89" ry=".89"/><path class="cls-5" d="m326.31,179.11c-2.49,0-4.41-.64-5.77-1.93-1.36-1.29-1.9-4.79-1.9-4.79-.07-.48-.14-1.28-.14-1.77v-18.59c0-.49.4-.89.89-.89h3.48c.49,0,.89.4.89.89v18.42c0,.49.06,1.28.13,1.77,0,0,.15,1.03.72,1.62.57.59,1.36.89,2.38.89,1.16,0,2.1-.51,2.1-.51.43-.23.93-.05,1.11.4l.86,2.13c.18.45,0,1.03-.42,1.29,0,0-.68.42-1.58.68-.91.25-1.82.38-2.76.38Z"/><path class="cls-5" d="m348.12,179.11c-2.52,0-4.72-.5-6.6-1.51-1.88-1-3.34-2.38-4.37-4.12-1.03-1.74-1.55-3.74-1.55-6s.5-4.26,1.51-6c1-1.74,2.39-3.11,4.16-4.12,1.77-1,3.78-1.51,6.05-1.51s4.17.49,5.9,1.46c1.72.98,3.08,2.34,4.07,4.09.99,1.75,1.49,3.83,1.49,6.24,0,.2,0,.45-.02.74v.3c-.04.27-.46.49-.95.49h-17.1c-.49,0-.89-.4-.89-.89v-1.74c0-.49.4-.89.89-.89h14.3c.49,0,.53.18.1.41l-.54.28c-.43.23-.83.01-.87-.47,0,0-.15-1.53-.7-2.53-.55-1-1.31-1.78-2.27-2.33-.96-.55-2.09-.83-3.39-.83s-2.41.28-3.42.83c-1,.55-1.78,1.34-2.31,2.35-.54,1.02-.71,2.64-.71,2.64-.05.49-.09,1.07-.09,1.31s.05.82.1,1.31c0,0,.2,1.68.81,2.72.61,1.05,1.48,1.86,2.61,2.44,1.13.58,2.45.87,3.95.87,1.27,0,2.42-.21,3.44-.64,1.02-.42,2.04-1.29,2.04-1.29.37-.32.94-.27,1.26.09l1.72,1.97c.32.37.29.94-.08,1.26,0,0-1.68,1.5-3.22,2.12-1.54.62-3.3.93-5.28.93Z"/><path class="cls-5" d="m348.12,179.11c-2.52,0-4.72-.5-6.6-1.51-1.88-1-3.34-2.38-4.37-4.12-1.03-1.74-1.55-3.74-1.55-6s.5-4.26,1.51-6c1-1.74,2.39-3.11,4.16-4.12,1.77-1,3.78-1.51,6.05-1.51s4.17.49,5.9,1.46c1.72.98,3.08,2.34,4.07,4.09.99,1.75,1.49,3.83,1.49,6.24,0,.2,0,.45-.02.74v.3c-.04.27-.46.49-.95.49h-17.1c-.49,0-.89-.4-.89-.89v-1.74c0-.49.4-.89.89-.89h14.3c.49,0,.53.18.1.41l-.54.28c-.43.23-.83.01-.87-.47,0,0-.15-1.53-.7-2.53-.55-1-1.31-1.78-2.27-2.33-.96-.55-2.09-.83-3.39-.83s-2.41.28-3.42.83c-1,.55-1.78,1.34-2.31,2.35-.54,1.02-.71,2.64-.71,2.64-.05.49-.09,1.07-.09,1.31s.05.82.1,1.31c0,0,.2,1.68.81,2.72.61,1.05,1.48,1.86,2.61,2.44,1.13.58,2.45.87,3.95.87,1.27,0,2.42-.21,3.44-.64,1.02-.42,2.04-1.29,2.04-1.29.37-.32.94-.27,1.26.09l1.72,1.97c.32.37.29.94-.08,1.26,0,0-1.68,1.5-3.22,2.12-1.54.62-3.3.93-5.28.93Z"/><path class="cls-5" d="m383.8,160.93c-.88-1.71-2.06-2.98-3.56-3.82-1.5-.83-3.2-1.25-5.09-1.25-2.18,0-4.14.48-5.88,1.44-1.74.96-3.1,2.32-4.09,4.07-.99,1.75-1.48,3.79-1.48,6.11s.49,4.39,1.48,6.13c.99,1.74,2.35,3.09,4.09,4.05,1.74.96,3.7,1.44,5.88,1.44,1.98,0,3.71-.42,5.2-1.25,1.48-.83,2.65-2.11,3.5-3.84.85-1.72,1.27-3.9,1.27-6.53s-.44-4.84-1.31-6.56Zm-2.18,10.31c-.61,1.09-1.41,1.92-2.42,2.5-1,.58-2.14.87-3.42.87s-2.41-.29-3.41-.87c-1-.58-1.81-1.41-2.42-2.5-.61-1.09-.91-2.34-.91-3.76s.3-2.69.91-3.76c.61-1.06,1.41-1.88,2.42-2.46,1-.58,2.14-.87,3.41-.87s2.41.29,3.42.87c1,.58,1.81,1.4,2.42,2.46.61,1.06.91,2.31.91,3.76s-.3,2.67-.91,3.76Z"/><path class="cls-5" d="m383.58,178.81c-.49,0-.89-.4-.89-.89v-3.57c0-.49,0-1.29.02-1.78l.09-4.25c.01-.49,0-1.29-.04-1.77l-.3-4.25c-.03-.49-.06-1.29-.06-1.77v-12.31c0-.49.4-.89.89-.89h3.57c.49,0,.89.4.89.89v29.7c0,.49-.4.89-.89.89h-3.27Z"/><path class="cls-5" d="m24.23,230.65c-2.29,0-4.4-.38-6.32-1.12-1.92-.75-3.6-1.82-5.03-3.2-1.43-1.39-2.54-3-3.33-4.84-.79-1.84-1.19-3.87-1.19-6.11s.4-4.27,1.19-6.11c.79-1.84,1.91-3.45,3.35-4.84,1.44-1.39,3.12-2.45,5.05-3.2,1.92-.75,4.03-1.12,6.32-1.12,2.43,0,4.65.42,6.66,1.25,2.01.83,4.44,3.11,4.44,3.11.36.33.36.88,0,1.21l-2.27,2.14c-.36.33-.95.35-1.32.02,0,0-1.65-1.44-2.98-2.02-1.33-.58-2.76-.87-4.29-.87s-2.98.25-4.26.76c-1.29.51-2.4,1.23-3.35,2.16-.95.93-1.69,2.04-2.23,3.31-.54,1.27-.81,2.67-.81,4.2s.27,2.93.81,4.2c.54,1.27,1.28,2.38,2.23,3.31.95.93,2.06,1.65,3.35,2.16,1.29.51,2.71.76,4.26.76s2.96-.29,4.29-.87c1.33-.58,2.99-2.06,2.99-2.06.36-.33.95-.32,1.31.02l2.27,2.13c.36.33.36.88,0,1.22,0,0-2.43,2.28-4.44,3.13-2.01.85-4.24,1.27-6.7,1.27Z"/><path class="cls-5" d="m24.23,230.65c-2.29,0-4.4-.38-6.32-1.12-1.92-.75-3.6-1.82-5.03-3.2-1.43-1.39-2.54-3-3.33-4.84-.79-1.84-1.19-3.87-1.19-6.11s.4-4.27,1.19-6.11c.79-1.84,1.91-3.45,3.35-4.84,1.44-1.39,3.12-2.45,5.05-3.2,1.92-.75,4.03-1.12,6.32-1.12,2.43,0,4.65.42,6.66,1.25,2.01.83,4.44,3.11,4.44,3.11.36.33.36.88,0,1.21l-2.27,2.14c-.36.33-.95.35-1.32.02,0,0-1.65-1.44-2.98-2.02-1.33-.58-2.76-.87-4.29-.87s-2.98.25-4.26.76c-1.29.51-2.4,1.23-3.35,2.16-.95.93-1.69,2.04-2.23,3.31-.54,1.27-.81,2.67-.81,4.2s.27,2.93.81,4.2c.54,1.27,1.28,2.38,2.23,3.31.95.93,2.06,1.65,3.35,2.16,1.29.51,2.71.76,4.26.76s2.96-.29,4.29-.87c1.33-.58,2.99-2.06,2.99-2.06.36-.33.95-.32,1.31.02l2.27,2.13c.36.33.36.88,0,1.22,0,0-2.43,2.28-4.44,3.13-2.01.85-4.24,1.27-6.7,1.27Z"/><path class="cls-5" d="m63.25,212.9c-1.03-1.73-2.46-3.09-4.29-4.09-1.82-1-3.91-1.51-6.26-1.51s-4.39.5-6.19,1.51c-1.81,1-3.24,2.37-4.29,4.09-1.05,1.72-1.57,3.73-1.57,6.02s.52,4.23,1.57,5.98c1.05,1.76,2.48,3.13,4.31,4.14,1.83,1,3.88,1.51,6.17,1.51s4.4-.5,6.24-1.51c1.84-1,3.27-2.38,4.31-4.11,1.03-1.74,1.55-3.74,1.55-6s-.52-4.3-1.55-6.02Zm-4.67,9.78c-.58,1.09-1.38,1.92-2.4,2.5-1.02.58-2.18.87-3.48.87s-2.38-.29-3.39-.87c-1.02-.58-1.83-1.41-2.42-2.5-.59-1.09-.89-2.34-.89-3.76s.3-2.69.89-3.76c.59-1.06,1.4-1.88,2.42-2.46s2.16-.87,3.44-.87,2.42.29,3.44.87,1.82,1.4,2.4,2.46c.58,1.06.87,2.31.87,3.76s-.29,2.67-.87,3.76Z"/><path class="cls-5" d="m84.44,207.28c1.84,0,3.46.35,4.86,1.06,1.4.71,2.52,1.8,3.35,3.27.83,1.47,1.16,4.76,1.16,4.76.05.49.09,1.28.09,1.77v11.21c0,.49-.4.89-.89.89h-3.53c-.49,0-.89-.4-.89-.89v-10.53c0-.49-.05-1.28-.12-1.77,0,0-.35-2.63-1.28-3.62-.93-.99-2.26-1.48-3.99-1.48-1.24,0-2.35.25-3.31.76-.96.51-1.7,1.27-2.23,2.27-.52,1-.7,2.91-.7,2.91-.05.49-.08,1.28-.08,1.77v9.68c0,.49-.4.89-.89.89h-3.48c-.49,0-.89-.4-.89-.89v-20.88c0-.49.4-.89.89-.89h3.27c.49,0,.89.4.89.89v4.38c0,.49-.17.53-.38.08l-.14-.3c-.21-.44-.14-1.13.15-1.52,0,0,1.37-1.85,2.89-2.64,1.51-.79,3.26-1.19,5.24-1.19Z"/><path class="cls-5" d="m84.44,207.28c1.84,0,3.46.35,4.86,1.06,1.4.71,2.52,1.8,3.35,3.27.83,1.47,1.16,4.76,1.16,4.76.05.49.09,1.28.09,1.77v11.21c0,.49-.4.89-.89.89h-3.53c-.49,0-.89-.4-.89-.89v-10.53c0-.49-.05-1.28-.12-1.77,0,0-.35-2.63-1.28-3.62-.93-.99-2.26-1.48-3.99-1.48-1.24,0-2.35.25-3.31.76-.96.51-1.7,1.27-2.23,2.27-.52,1-.7,2.91-.7,2.91-.05.49-.08,1.28-.08,1.77v9.68c0,.49-.4.89-.89.89h-3.48c-.49,0-.89-.4-.89-.89v-20.88c0-.49.4-.89.89-.89h3.27c.49,0,.89.4.89.89v4.38c0,.49-.17.53-.38.08l-.14-.3c-.21-.44-.14-1.13.15-1.52,0,0,1.37-1.85,2.89-2.64,1.51-.79,3.26-1.19,5.24-1.19Z"/><rect class="cls-5" x="99.33" y="207.74" width="15.11" height="4.24" rx=".89" ry=".89"/><path class="cls-5" d="m103.95,230.23c-.49,0-.89-.4-.89-.89v-22.11c0-.49.06-1.28.14-1.76,0,0,.56-3.44,1.96-4.87,1.4-1.43,3.4-2.14,6-2.14.93,0,1.82.1,2.65.3.83.2,1.33.49,1.33.49.42.25.63.82.46,1.28l-.86,2.28c-.17.46-.66.63-1.08.39,0,0-.04-.02-.55-.19s-1.03-.25-1.57-.25c-1.1,0-1.94.3-2.5.91-.57.61-.73,1.81-.73,1.81-.07.48-.12,1.28-.12,1.77v.86c0,.49.02,1.29.05,1.78l.03.56c.03.49.05,1.29.05,1.78v17.15c0,.49-.4.89-.89.89h-3.48Z"/><rect class="cls-5" x="99.33" y="207.74" width="15.11" height="4.24" rx=".89" ry=".89"/><path class="cls-5" d="m103.95,230.23c-.49,0-.89-.4-.89-.89v-22.11c0-.49.06-1.28.14-1.76,0,0,.56-3.44,1.96-4.87,1.4-1.43,3.4-2.14,6-2.14.93,0,1.82.1,2.65.3.83.2,1.33.49,1.33.49.42.25.63.82.46,1.28l-.86,2.28c-.17.46-.66.63-1.08.39,0,0-.04-.02-.55-.19s-1.03-.25-1.57-.25c-1.1,0-1.94.3-2.5.91-.57.61-.73,1.81-.73,1.81-.07.48-.12,1.28-.12,1.77v.86c0,.49.02,1.29.05,1.78l.03.56c.03.49.05,1.29.05,1.78v17.15c0,.49-.4.89-.89.89h-3.48Z"/><path class="cls-5" d="m130.34,230.53c-2.52,0-4.72-.5-6.6-1.51-1.88-1-3.34-2.38-4.37-4.12-1.03-1.74-1.55-3.74-1.55-6s.5-4.26,1.51-6c1-1.74,2.39-3.11,4.16-4.12,1.77-1,3.78-1.51,6.05-1.51s4.17.49,5.9,1.46c1.72.98,3.08,2.34,4.07,4.09s1.49,3.83,1.49,6.24c0,.2,0,.45-.02.74v.3c-.04.27-.46.49-.95.49h-17.1c-.49,0-.89-.4-.89-.89v-1.74c0-.49.4-.89.89-.89h14.3c.49,0,.53.18.1.41l-.55.28c-.43.23-.83.01-.87-.47,0,0-.15-1.53-.7-2.53-.55-1-1.31-1.78-2.27-2.33-.96-.55-2.09-.83-3.39-.83s-2.41.28-3.41.83c-1,.55-1.78,1.34-2.31,2.35-.54,1.02-.71,2.64-.71,2.64-.05.49-.09,1.07-.09,1.31s.05.82.1,1.31c0,0,.2,1.68.81,2.72.61,1.05,1.48,1.86,2.61,2.44,1.13.58,2.45.87,3.95.87,1.27,0,2.42-.21,3.44-.64,1.02-.42,2.04-1.29,2.04-1.29.37-.32.94-.27,1.26.09l1.72,1.97c.32.37.29.94-.08,1.26,0,0-1.68,1.5-3.22,2.12-1.54.62-3.3.93-5.28.93Z"/><path class="cls-5" d="m130.34,230.53c-2.52,0-4.72-.5-6.6-1.51-1.88-1-3.34-2.38-4.37-4.12-1.03-1.74-1.55-3.74-1.55-6s.5-4.26,1.51-6c1-1.74,2.39-3.11,4.16-4.12,1.77-1,3.78-1.51,6.05-1.51s4.17.49,5.9,1.46c1.72.98,3.08,2.34,4.07,4.09s1.49,3.83,1.49,6.24c0,.2,0,.45-.02.74v.3c-.04.27-.46.49-.95.49h-17.1c-.49,0-.89-.4-.89-.89v-1.74c0-.49.4-.89.89-.89h14.3c.49,0,.53.18.1.41l-.55.28c-.43.23-.83.01-.87-.47,0,0-.15-1.53-.7-2.53-.55-1-1.31-1.78-2.27-2.33-.96-.55-2.09-.83-3.39-.83s-2.41.28-3.41.83c-1,.55-1.78,1.34-2.31,2.35-.54,1.02-.71,2.64-.71,2.64-.05.49-.09,1.07-.09,1.31s.05.82.1,1.31c0,0,.2,1.68.81,2.72.61,1.05,1.48,1.86,2.61,2.44,1.13.58,2.45.87,3.95.87,1.27,0,2.42-.21,3.44-.64,1.02-.42,2.04-1.29,2.04-1.29.37-.32.94-.27,1.26.09l1.72,1.97c.32.37.29.94-.08,1.26,0,0-1.68,1.5-3.22,2.12-1.54.62-3.3.93-5.28.93Z"/><path class="cls-5" d="m148.71,230.23c-.49,0-.89-.4-.89-.89v-20.88c0-.49.4-.89.89-.89h3.27c.49,0,.89.4.89.89v4.46c0,.49-.12.51-.27.04l-.04-.13c-.15-.46-.06-1.18.2-1.59,0,0,1.23-1.94,2.71-2.75,1.47-.81,4.5-1.12,4.5-1.12.49-.05.88.31.88.8v3.27c0,.49-.18.87-.4.84h-.2c-.2-.03-.38-.04-.55-.04-2.04,0-3.65.58-4.84,1.74-1.19,1.16-1.66,4.42-1.66,4.42-.07.48-.13,1.28-.13,1.77v9.17c0,.49-.4.89-.89.89h-3.48Z"/><path class="cls-5" d="m148.71,230.23c-.49,0-.89-.4-.89-.89v-20.88c0-.49.4-.89.89-.89h3.27c.49,0,.89.4.89.89v4.46c0,.49-.12.51-.27.04l-.04-.13c-.15-.46-.06-1.18.2-1.59,0,0,1.23-1.94,2.71-2.75,1.47-.81,4.5-1.12,4.5-1.12.49-.05.88.31.88.8v3.27c0,.49-.18.87-.4.84h-.2c-.2-.03-.38-.04-.55-.04-2.04,0-3.65.58-4.84,1.74-1.19,1.16-1.66,4.42-1.66,4.42-.07.48-.13,1.28-.13,1.77v9.17c0,.49-.4.89-.89.89h-3.48Z"/><path class="cls-5" d="m177.95,230.53c-2.52,0-4.72-.5-6.6-1.51-1.88-1-3.34-2.38-4.37-4.12-1.03-1.74-1.55-3.74-1.55-6s.5-4.26,1.51-6c1-1.74,2.39-3.11,4.16-4.12,1.77-1,3.78-1.51,6.05-1.51s4.17.49,5.9,1.46c1.72.98,3.08,2.34,4.07,4.09s1.49,3.83,1.49,6.24c0,.2,0,.45-.02.74v.3c-.04.27-.46.49-.95.49h-17.1c-.49,0-.89-.4-.89-.89v-1.74c0-.49.4-.89.89-.89h14.3c.49,0,.53.18.1.41l-.55.28c-.43.23-.83.01-.87-.47,0,0-.15-1.53-.7-2.53-.55-1-1.31-1.78-2.27-2.33-.96-.55-2.09-.83-3.39-.83s-2.41.28-3.41.83c-1,.55-1.78,1.34-2.31,2.35-.54,1.02-.71,2.64-.71,2.64-.05.49-.09,1.07-.09,1.31s.05.82.1,1.31c0,0,.2,1.68.81,2.72.61,1.05,1.48,1.86,2.61,2.44,1.13.58,2.45.87,3.95.87,1.27,0,2.42-.21,3.44-.64,1.02-.42,2.04-1.29,2.04-1.29.37-.32.94-.27,1.26.09l1.72,1.97c.32.37.29.94-.08,1.26,0,0-1.68,1.5-3.22,2.12-1.54.62-3.3.93-5.28.93Z"/><path class="cls-5" d="m177.95,230.53c-2.52,0-4.72-.5-6.6-1.51-1.88-1-3.34-2.38-4.37-4.12-1.03-1.74-1.55-3.74-1.55-6s.5-4.26,1.51-6c1-1.74,2.39-3.11,4.16-4.12,1.77-1,3.78-1.51,6.05-1.51s4.17.49,5.9,1.46c1.72.98,3.08,2.34,4.07,4.09s1.49,3.83,1.49,6.24c0,.2,0,.45-.02.74v.3c-.04.27-.46.49-.95.49h-17.1c-.49,0-.89-.4-.89-.89v-1.74c0-.49.4-.89.89-.89h14.3c.49,0,.53.18.1.41l-.55.28c-.43.23-.83.01-.87-.47,0,0-.15-1.53-.7-2.53-.55-1-1.31-1.78-2.27-2.33-.96-.55-2.09-.83-3.39-.83s-2.41.28-3.41.83c-1,.55-1.78,1.34-2.31,2.35-.54,1.02-.71,2.64-.71,2.64-.05.49-.09,1.07-.09,1.31s.05.82.1,1.31c0,0,.2,1.68.81,2.72.61,1.05,1.48,1.86,2.61,2.44,1.13.58,2.45.87,3.95.87,1.27,0,2.42-.21,3.44-.64,1.02-.42,2.04-1.29,2.04-1.29.37-.32.94-.27,1.26.09l1.72,1.97c.32.37.29.94-.08,1.26,0,0-1.68,1.5-3.22,2.12-1.54.62-3.3.93-5.28.93Z"/><path class="cls-5" d="m208.24,207.28c1.84,0,3.46.35,4.86,1.06,1.4.71,2.52,1.8,3.35,3.27.83,1.47,1.16,4.76,1.16,4.76.05.49.09,1.28.09,1.77v11.21c0,.49-.4.89-.89.89h-3.53c-.49,0-.89-.4-.89-.89v-10.53c0-.49-.05-1.28-.12-1.77,0,0-.35-2.63-1.28-3.62-.93-.99-2.26-1.48-3.99-1.48-1.24,0-2.35.25-3.31.76-.96.51-1.7,1.27-2.23,2.27-.52,1-.7,2.91-.7,2.91-.05.49-.08,1.28-.08,1.77v9.68c0,.49-.4.89-.89.89h-3.48c-.49,0-.89-.4-.89-.89v-20.88c0-.49.4-.89.89-.89h3.27c.49,0,.89.4.89.89v4.38c0,.49-.17.53-.38.08l-.14-.3c-.21-.44-.14-1.13.15-1.52,0,0,1.37-1.85,2.89-2.64,1.51-.79,3.26-1.19,5.24-1.19Z"/><path class="cls-5" d="m208.24,207.28c1.84,0,3.46.35,4.86,1.06,1.4.71,2.52,1.8,3.35,3.27.83,1.47,1.16,4.76,1.16,4.76.05.49.09,1.28.09,1.77v11.21c0,.49-.4.89-.89.89h-3.53c-.49,0-.89-.4-.89-.89v-10.53c0-.49-.05-1.28-.12-1.77,0,0-.35-2.63-1.28-3.62-.93-.99-2.26-1.48-3.99-1.48-1.24,0-2.35.25-3.31.76-.96.51-1.7,1.27-2.23,2.27-.52,1-.7,2.91-.7,2.91-.05.49-.08,1.28-.08,1.77v9.68c0,.49-.4.89-.89.89h-3.48c-.49,0-.89-.4-.89-.89v-20.88c0-.49.4-.89.89-.89h3.27c.49,0,.89.4.89.89v4.38c0,.49-.17.53-.38.08l-.14-.3c-.21-.44-.14-1.13.15-1.52,0,0,1.37-1.85,2.89-2.64,1.51-.79,3.26-1.19,5.24-1.19Z"/><path class="cls-5" d="m236.54,230.53c-2.38,0-4.49-.5-6.34-1.51-1.85-1-3.3-2.38-4.35-4.12-1.05-1.74-1.57-3.74-1.57-6s.52-4.3,1.57-6.02c1.05-1.73,2.5-3.09,4.35-4.09,1.85-1,3.97-1.51,6.34-1.51,2.18,0,4.12.45,5.81,1.36,1.7.91,3.31,3.22,3.31,3.22.28.4.16.93-.26,1.18l-2.5,1.47c-.42.25-1.02.14-1.33-.23,0,0-.94-1.15-1.92-1.67-.98-.52-2.03-.78-3.16-.78-1.3,0-2.47.29-3.52.87s-1.87,1.4-2.46,2.46c-.59,1.06-.89,2.31-.89,3.76s.3,2.7.89,3.78c.59,1.07,1.41,1.9,2.46,2.48s2.22.87,3.52.87c1.13,0,2.19-.26,3.16-.78.98-.52,1.93-1.7,1.93-1.7.31-.38.9-.49,1.32-.24l2.5,1.47c.42.25.53.78.25,1.18,0,0-1.61,2.28-3.31,3.2-1.7.92-3.64,1.38-5.81,1.38Z"/><path class="cls-5" d="m236.54,230.53c-2.38,0-4.49-.5-6.34-1.51-1.85-1-3.3-2.38-4.35-4.12-1.05-1.74-1.57-3.74-1.57-6s.52-4.3,1.57-6.02c1.05-1.73,2.5-3.09,4.35-4.09,1.85-1,3.97-1.51,6.34-1.51,2.18,0,4.12.45,5.81,1.36,1.7.91,3.31,3.22,3.31,3.22.28.4.16.93-.26,1.18l-2.5,1.47c-.42.25-1.02.14-1.33-.23,0,0-.94-1.15-1.92-1.67-.98-.52-2.03-.78-3.16-.78-1.3,0-2.47.29-3.52.87s-1.87,1.4-2.46,2.46c-.59,1.06-.89,2.31-.89,3.76s.3,2.7.89,3.78c.59,1.07,1.41,1.9,2.46,2.48s2.22.87,3.52.87c1.13,0,2.19-.26,3.16-.78.98-.52,1.93-1.7,1.93-1.7.31-.38.9-.49,1.32-.24l2.5,1.47c.42.25.53.78.25,1.18,0,0-1.61,2.28-3.31,3.2-1.7.92-3.64,1.38-5.81,1.38Z"/><path class="cls-5" d="m263.14,230.53c-2.52,0-4.72-.5-6.6-1.51-1.88-1-3.34-2.38-4.37-4.12-1.03-1.74-1.55-3.74-1.55-6s.5-4.26,1.51-6c1-1.74,2.39-3.11,4.16-4.12,1.77-1,3.78-1.51,6.05-1.51s4.17.49,5.9,1.46c1.72.98,3.08,2.34,4.07,4.09.99,1.75,1.49,3.83,1.49,6.24,0,.2,0,.45-.02.74v.3c-.04.27-.46.49-.95.49h-17.1c-.49,0-.89-.4-.89-.89v-1.74c0-.49.4-.89.89-.89h14.3c.49,0,.53.18.1.41l-.55.28c-.43.23-.83.01-.87-.47,0,0-.15-1.53-.7-2.53-.55-1-1.31-1.78-2.27-2.33-.96-.55-2.09-.83-3.39-.83s-2.41.28-3.41.83c-1,.55-1.78,1.34-2.31,2.35-.54,1.02-.71,2.64-.71,2.64-.05.49-.09,1.07-.09,1.31s.05.82.1,1.31c0,0,.2,1.68.81,2.72.61,1.05,1.48,1.86,2.61,2.44,1.13.58,2.45.87,3.95.87,1.27,0,2.42-.21,3.44-.64,1.02-.42,2.04-1.29,2.04-1.29.37-.32.94-.27,1.26.09l1.72,1.97c.32.37.29.94-.08,1.26,0,0-1.68,1.5-3.22,2.12-1.54.62-3.3.93-5.28.93Z"/><path class="cls-5" d="m263.14,230.53c-2.52,0-4.72-.5-6.6-1.51-1.88-1-3.34-2.38-4.37-4.12-1.03-1.74-1.55-3.74-1.55-6s.5-4.26,1.51-6c1-1.74,2.39-3.11,4.16-4.12,1.77-1,3.78-1.51,6.05-1.51s4.17.49,5.9,1.46c1.72.98,3.08,2.34,4.07,4.09.99,1.75,1.49,3.83,1.49,6.24,0,.2,0,.45-.02.74v.3c-.04.27-.46.49-.95.49h-17.1c-.49,0-.89-.4-.89-.89v-1.74c0-.49.4-.89.89-.89h14.3c.49,0,.53.18.1.41l-.55.28c-.43.23-.83.01-.87-.47,0,0-.15-1.53-.7-2.53-.55-1-1.31-1.78-2.27-2.33-.96-.55-2.09-.83-3.39-.83s-2.41.28-3.41.83c-1,.55-1.78,1.34-2.31,2.35-.54,1.02-.71,2.64-.71,2.64-.05.49-.09,1.07-.09,1.31s.05.82.1,1.31c0,0,.2,1.68.81,2.72.61,1.05,1.48,1.86,2.61,2.44,1.13.58,2.45.87,3.95.87,1.27,0,2.42-.21,3.44-.64,1.02-.42,2.04-1.29,2.04-1.29.37-.32.94-.27,1.26.09l1.72,1.97c.32.37.29.94-.08,1.26,0,0-1.68,1.5-3.22,2.12-1.54.62-3.3.93-5.28.93Z"/><rect class="cls-5" x="166.94" y="162.39" width="13.57" height="4.39" rx="2.2" ry="2.2"/><path class="cls-5" d="m57.07,122.66C25.6,122.66,0,97.06,0,65.59S25.6,8.52,57.07,8.52s57.07,25.6,57.07,57.07-25.6,57.07-57.07,57.07Zm0-104.29c-26.04,0-47.22,21.18-47.22,47.22s21.18,47.22,47.22,47.22,47.22-21.18,47.22-47.22-21.18-47.22-47.22-47.22Z"/><path class="cls-5" d="m57.07,79.91c14.36,0,28.9-5.23,36.79-10.6,3.48-2.37,3.69-5.43,2.42-7.54-1.36-2.25-4.35-3.29-7.88-1.32-7.4,4.12-19.32,8.97-31.32,9.16-12.01-.19-23.92-5.03-31.32-9.16-3.53-1.97-6.53-.93-7.88,1.32-1.27,2.11-1.06,5.17,2.42,7.54,7.89,5.37,22.43,10.6,36.79,10.6Z"/><path class="cls-3" d="m57.07,62.55c13.49,0,32.16-7.26,33.22-13.49s-14.47-22.81-33.22-22.81c-18.75,0-34.3,16.52-33.22,22.81s19.73,13.49,33.22,13.49Z"/><path class="cls-5" d="m364.47,80.04s-.28-.25-.39-.33c-9.25-7.41-21.83-13.6-35.7-17.61,12.1-4.55,25.83-11.94,34.82-23.69.98-1.28,1.24-2.97.7-4.49-9.42-26.23-39.2-40.21-66.39-31.16-13.47,4.48-24.23,13.81-30.28,26.27-5.61,11.54-6.48,24.48-2.52,36.6-2.27,11.15-.12,22.6,6.14,32.42,7.26,11.38,19.49,19.51,33.55,22.31,3.68.73,7.35,1.08,10.97,1.08,23.64,0,45.04-15.01,50.36-36.94.39-1.6-.09-3.3-1.27-4.46Zm-56.44-12.16c14.78,1.93,29.53,6.79,40.95,13.27-26.8,4.37-50.53-1-65.52-10.46,7.99-.17,16.34-1.12,24.58-2.8Zm-32.26-34.71c4.93-10.14,13.71-17.74,24.74-21.41,20.59-6.85,42.97,2.29,52.36,20.56.72,1.4.47,3.12-.63,4.25-7.89,8.08-20.11,14.83-35.04,19.27-13.48,4.01-28.61,5.9-41.56,5.27-1.46-.07-2.7-1.09-3-2.52-1.82-8.54-.75-17.39,3.15-25.41Zm30.47,77.96c-11.57-2.31-21.58-8.92-27.47-18.15-2.94-4.61-4.74-9.68-5.34-14.86-.13-1.18,1.21-1.94,2.18-1.25,8.91,6.39,20.32,10.92,33.65,13.28,13.34,2.37,27.82,2.39,41.78.14,1.13-.18,1.98,1.06,1.38,2.04-8.76,14.42-27.4,22.54-46.19,18.8Z"/><path class="cls-1" d="m283.83,53.65c-1.2-.03-2.17-.91-2.32-2.05-1.26-9.82,5.78-28.05,21.21-32.96,14.13-4.49,30.77,2.1,38.48,13.57.64.96.49,2.22-.39,2.99-11.11,9.75-37.52,18.91-56.98,18.46Z"/><path class="cls-5" d="m377.95,39.47l17.75-18.76c.49-.49.88-.56,1.6-.07l18.14,10.12c.63.34.58,1.03-.49,1.3l-35.83,9.11c-1.6.39-2.22-.67-1.18-1.71Z"/><path class="cls-5" d="m394.6,52.89l34.98.77c.99,0,1.4.43.91,1.07l-12.55,15.88c-.72.77-1.16.8-1.73.35l-22.17-16.57c-.94-.71-.8-1.6.55-1.51Z"/><path class="cls-4" d="m309.62,106.97c-13.31-1.85-26.37-11.73-28.6-19.46-.31-1.08.22-2.11,1.73-.96,4.21,3.22,20.05,8.52,28.38,9.63,7.77,1.03,24.03.93,30.19-.64,1.28-.33,1.76.17.91,1.11-6.51,7.18-19.09,12.19-32.62,10.31Z"/><path class="cls-5" d="m188.69,122.66c-31.47,0-57.07-25.6-57.07-57.07s25.6-57.07,57.07-57.07,57.07,25.6,57.07,57.07-25.6,57.07-57.07,57.07Zm0-104.29c-26.04,0-47.22,21.18-47.22,47.22s21.18,47.22,47.22,47.22,47.22-21.18,47.22-47.22-21.18-47.22-47.22-47.22Z"/><path class="cls-5" d="m188.69,79.91c14.36,0,28.9-5.23,36.79-10.6,3.48-2.37,3.69-5.43,2.42-7.54-1.36-2.25-4.35-3.29-7.88-1.32-7.4,4.12-19.32,8.97-31.32,9.16-12.01-.19-23.92-5.03-31.32-9.16-3.53-1.97-6.53-.93-7.88,1.32-1.27,2.11-1.06,5.17,2.42,7.54,7.89,5.37,22.43,10.6,36.79,10.6Z"/><path class="cls-2" d="m188.69,88.2c-12.29,0-23.84-3.35-33.89-9.22-1.7-.99-3.68.74-2.89,2.54,6.39,14.47,20.45,24.53,36.78,24.53s30.39-10.05,36.78-24.53c.79-1.8-1.2-3.53-2.89-2.54-10.05,5.87-21.6,9.22-33.89,9.22Z"/></g></svg>