<?xml version="1.0" encoding="UTF-8"?><svg id="_レイヤー_2" xmlns="http://www.w3.org/2000/svg" viewBox="0 0 224.51 73.87"><defs><style>.cls-1{fill:#f9b900;}.cls-2{fill:#2b85c8;}.cls-3{fill:#494342;}</style></defs><g id="_レイヤー_1-2"><path class="cls-3" d="m117.39,73.7c-.24,0-.43-.19-.43-.43v-.63c0-.24.14-.56.31-.72l4.13-3.91c.17-.16.44-.43.61-.6,0,0,.38-.4.57-.68s.32-.55.39-.79c.07-.24.1-.47.1-.69,0-.55-.19-.97-.57-1.27-.38-.3-.94-.45-1.68-.45-.57,0-1.09.1-1.56.31-.47.2-.91.62-.91.62-.17.16-.46.18-.65.04l-.87-.66c-.19-.14-.21-.4-.04-.56,0,0,.79-.81,1.58-1.15.79-.35,1.67-.52,2.65-.52.86,0,1.61.14,2.25.42s1.13.67,1.48,1.18c.35.51.53,1.11.53,1.81,0,.4-.05.79-.15,1.17-.1.38-.3.78-.58,1.21-.28.43-.95,1.11-.95,1.11-.16.17-.44.44-.61.6l-3.47,3.26c-.17.16-.4.12-.52-.08l-.05-.09c-.11-.21-.01-.37.22-.37h6.13c.24,0,.43.19.43.43v1.02c0,.24-.19.43-.43.43h-7.94Z"/><path class="cls-3" d="m132.02,73.87c-.95,0-1.81-.24-2.56-.72-.75-.48-1.34-1.17-1.78-2.09-.44-.91-.66-2.02-.66-3.33s.22-2.42.66-3.33c.44-.91,1.03-1.61,1.78-2.09.75-.48,1.6-.72,2.56-.72s1.79.24,2.54.72c.75.48,1.34,1.17,1.78,2.09.44.91.66,2.02.66,3.33s-.22,2.42-.66,3.33c-.44.91-1.03,1.61-1.78,2.09-.75.48-1.6.72-2.54.72Zm0-1.93c.55,0,1.02-.15,1.43-.45.41-.3.73-.76.96-1.39s.35-1.41.35-2.37-.12-1.74-.35-2.37c-.23-.62-.55-1.09-.96-1.39-.41-.3-.89-.45-1.43-.45s-1.03.15-1.44.45c-.41.3-.74.76-.98,1.39-.24.62-.36,1.41-.36,2.37s.12,1.74.36,2.37c.24.62.56,1.09.98,1.39s.89.45,1.44.45Z"/><path class="cls-3" d="m138.77,73.7c-.24,0-.43-.19-.43-.43v-.63c0-.24.14-.56.31-.72l4.13-3.91c.17-.16.44-.43.61-.6,0,0,.38-.4.57-.68s.32-.55.39-.79c.07-.24.1-.47.1-.69,0-.55-.19-.97-.57-1.27-.38-.3-.94-.45-1.68-.45-.57,0-1.09.1-1.56.31-.47.2-.91.62-.91.62-.17.16-.46.18-.65.04l-.87-.66c-.19-.14-.21-.4-.04-.56,0,0,.79-.81,1.58-1.15.79-.35,1.67-.52,2.65-.52.86,0,1.61.14,2.25.42s1.13.67,1.48,1.18c.35.51.53,1.11.53,1.81,0,.4-.05.79-.15,1.17-.1.38-.3.78-.58,1.21-.28.43-.95,1.11-.95,1.11-.16.17-.44.44-.61.6l-3.47,3.26c-.17.16-.4.12-.52-.08l-.05-.09c-.11-.21-.01-.37.22-.37h6.13c.24,0,.43.19.43.43v1.02c0,.24-.19.43-.43.43h-7.94Z"/><path class="cls-3" d="m148.67,70.97c-.24,0-.43-.19-.43-.43v-.66c0-.24.12-.58.26-.77l5.36-7c.14-.19.45-.34.69-.34h1.51c.24,0,.31.15.17.34l-5.26,7c-.14.19-.44.29-.67.22l-.31-.09c-.23-.07-.22-.12.02-.12h8.58c.24,0,.43.19.43.43v1c0,.24-.19.43-.43.43h-9.93Zm6.56,2.73c-.24,0-.43-.19-.43-.43v-1.87c0-.24,0-.62.01-.86l.03-1c0-.24.01-.62.01-.86v-1.55c0-.24.19-.43.43-.43h1.24c.24,0,.43.19.43.43v6.13c0,.24-.19.43-.43.43h-1.29Z"/><path class="cls-3" d="m128.98,5.21c-.32-.76-.78-1.42-1.36-1.98-.58-.56-1.27-.99-2.07-1.3-.8-.31-1.66-.46-2.6-.46s-1.82.16-2.61.47c-.8.31-1.49.75-2.08,1.31-.59.56-1.04,1.22-1.37,1.97-.32.76-.49,1.58-.49,2.48s.16,1.71.49,2.47c.32.76.78,1.42,1.37,1.98.59.57,1.28,1,2.09,1.32.8.31,1.67.47,2.61.47s1.8-.15,2.6-.46c.8-.31,1.49-.74,2.07-1.31.58-.57,1.04-1.23,1.36-1.98.32-.76.48-1.58.48-2.48s-.16-1.73-.48-2.49Zm-2.1,4.21c-.21.52-.51.97-.89,1.35-.38.38-.83.68-1.34.88-.51.21-1.08.31-1.69.31s-1.18-.1-1.71-.31c-.53-.21-.98-.51-1.36-.89-.38-.39-.68-.84-.9-1.36s-.33-1.08-.33-1.7.11-1.19.33-1.71c.22-.51.52-.96.9-1.35.38-.39.83-.68,1.36-.89.53-.21,1.09-.31,1.71-.31s1.17.1,1.69.31c.51.21.96.5,1.35.88.39.38.68.83.89,1.35.21.52.31,1.09.31,1.71s-.11,1.19-.32,1.71Z"/><path class="cls-3" d="m132.9,13.51c-.19,0-.35-.16-.35-.35V1.52c0-.19.16-.35.35-.35h1.37c.19,0,.35.16.35.35v4.82c0,.19-.01.5-.02.7l-.12,1.67c-.01.19-.02.5-.01.7l.06,1.67c0,.19.01.5.01.7v1.4c0,.19-.16.35-.35.35h-1.28Z"/><path class="cls-3" d="m141.37,6.68c-.39-.69-.93-1.22-1.6-1.6-.68-.38-1.45-.57-2.31-.57-.73,0-1.39.16-1.98.49-.59.33-1.05.83-1.4,1.5-.34.67-.52,1.53-.52,2.57s.16,1.88.49,2.56c.33.68.79,1.18,1.39,1.5.6.33,1.27.49,2.01.49.86,0,1.64-.19,2.31-.57.68-.38,1.21-.91,1.6-1.59.39-.68.59-1.48.59-2.4s-.2-1.71-.59-2.4Zm-1.87,3.87c-.23.43-.55.75-.94.98-.39.23-.85.34-1.36.34s-.93-.11-1.33-.34c-.4-.23-.72-.55-.95-.98-.23-.43-.35-.92-.35-1.47s.12-1.06.35-1.47c.23-.42.55-.74.95-.96.4-.23.84-.34,1.33-.34s.96.11,1.36.34c.39.23.71.55.94.96.23.42.35.91.35,1.47s-.12,1.04-.35,1.47Z"/><path class="cls-3" d="m143.95,17.1c-.39,0-.76-.05-1.11-.14-.36-.09-.6-.22-.6-.22-.17-.09-.26-.32-.18-.5l.36-.92c.07-.18.27-.26.45-.18,0,0,.42.2.92.2.39,0,.69-.12.9-.37.22-.24.28-.73.28-.73.03-.19.05-.51.05-.71V4.95c0-.2.16-.36.36-.36h1.41c.2,0,.36.16.36.36v8.54c0,.2-.02.51-.05.71,0,0-.22,1.44-.77,2.02s-1.34.88-2.36.88Z"/><path class="cls-3" d="m146.06,3.1c-.4,0-.72-.12-.98-.37s-.38-.56-.38-.92c0-.34.13-.64.38-.88.26-.25.58-.37.98-.37s.72.12.98.35c.26.23.38.53.38.89s-.12.67-.37.93c-.25.26-.58.38-.99.38Z"/><path class="cls-3" d="m143.95,17.1c-.39,0-.76-.05-1.11-.14-.36-.09-.6-.22-.6-.22-.17-.09-.26-.32-.18-.5l.36-.92c.07-.18.27-.26.45-.18,0,0,.42.2.92.2.39,0,.69-.12.9-.37.22-.24.28-.73.28-.73.03-.19.05-.51.05-.71V4.95c0-.2.16-.36.36-.36h1.41c.2,0,.36.16.36.36v8.54c0,.2-.02.51-.05.71,0,0-.22,1.44-.77,2.02s-1.34.88-2.36.88Z"/><path class="cls-3" d="m146.06,3.1c-.4,0-.72-.12-.98-.37s-.38-.56-.38-.92c0-.34.13-.64.38-.88.26-.25.58-.37.98-.37s.72.12.98.35c.26.23.38.53.38.89s-.12.67-.37.93c-.25.26-.58.38-.99.38Z"/><path class="cls-3" d="m155.06,13.89c-1.03,0-1.92-.2-2.69-.61-.77-.41-1.36-.97-1.78-1.68-.42-.71-.63-1.53-.63-2.45s.2-1.74.61-2.45c.41-.71.98-1.27,1.7-1.68.72-.41,1.54-.61,2.47-.61s1.7.2,2.41.6,1.26.96,1.66,1.67c.4.72.61,1.56.61,2.55,0,.08,0,.18,0,.3v.12c-.02.11-.19.2-.39.2h-6.98c-.2,0-.36-.16-.36-.36v-.71c0-.2.16-.36.36-.36h5.84c.2,0,.22.08.04.17l-.22.12c-.18.09-.34,0-.36-.19,0,0-.06-.62-.29-1.03-.23-.41-.53-.73-.93-.95-.39-.23-.85-.34-1.39-.34s-.98.11-1.39.34c-.41.22-.72.55-.94.96-.22.42-.29,1.08-.29,1.08-.02.2-.04.44-.04.53s.02.34.04.53c0,0,.08.69.33,1.11.25.43.6.76,1.06,1,.46.24,1,.36,1.61.36.52,0,.99-.09,1.4-.26.42-.17.83-.53.83-.53.15-.13.38-.11.51.04l.7.8c.13.15.12.38-.03.51,0,0-.69.61-1.31.87-.63.25-1.35.38-2.16.38Z"/><path class="cls-3" d="m155.06,13.89c-1.03,0-1.92-.2-2.69-.61-.77-.41-1.36-.97-1.78-1.68-.42-.71-.63-1.53-.63-2.45s.2-1.74.61-2.45c.41-.71.98-1.27,1.7-1.68.72-.41,1.54-.61,2.47-.61s1.7.2,2.41.6,1.26.96,1.66,1.67c.4.72.61,1.56.61,2.55,0,.08,0,.18,0,.3v.12c-.02.11-.19.2-.39.2h-6.98c-.2,0-.36-.16-.36-.36v-.71c0-.2.16-.36.36-.36h5.84c.2,0,.22.08.04.17l-.22.12c-.18.09-.34,0-.36-.19,0,0-.06-.62-.29-1.03-.23-.41-.53-.73-.93-.95-.39-.23-.85-.34-1.39-.34s-.98.11-1.39.34c-.41.22-.72.55-.94.96-.22.42-.29,1.08-.29,1.08-.02.2-.04.44-.04.53s.02.34.04.53c0,0,.08.69.33,1.11.25.43.6.76,1.06,1,.46.24,1,.36,1.61.36.52,0,.99-.09,1.4-.26.42-.17.83-.53.83-.53.15-.13.38-.11.51.04l.7.8c.13.15.12.38-.03.51,0,0-.69.61-1.31.87-.63.25-1.35.38-2.16.38Z"/><path class="cls-3" d="m166.42,13.89c-.97,0-1.83-.2-2.59-.61-.76-.41-1.35-.97-1.77-1.68-.43-.71-.64-1.53-.64-2.45s.21-1.75.64-2.46c.43-.7,1.02-1.26,1.77-1.67.76-.41,1.62-.61,2.59-.61.89,0,1.68.18,2.37.55.69.37,1.35,1.31,1.35,1.31.11.16.07.38-.1.48l-1.02.6c-.17.1-.42.06-.54-.1,0,0-.38-.47-.78-.68-.4-.21-.83-.32-1.29-.32-.53,0-1.01.12-1.44.36s-.76.57-1,1c-.24.43-.36.94-.36,1.53s.12,1.1.36,1.54c.24.44.58.78,1,1.01s.91.35,1.44.35c.46,0,.89-.11,1.29-.32.4-.21.79-.7.79-.7.12-.16.37-.2.54-.1l1.02.6c.17.1.22.32.1.48,0,0-.66.93-1.35,1.31s-1.48.56-2.37.56Z"/><path class="cls-3" d="m166.42,13.89c-.97,0-1.83-.2-2.59-.61-.76-.41-1.35-.97-1.77-1.68-.43-.71-.64-1.53-.64-2.45s.21-1.75.64-2.46c.43-.7,1.02-1.26,1.77-1.67.76-.41,1.62-.61,2.59-.61.89,0,1.68.18,2.37.55.69.37,1.35,1.31,1.35,1.31.11.16.07.38-.1.48l-1.02.6c-.17.1-.42.06-.54-.1,0,0-.38-.47-.78-.68-.4-.21-.83-.32-1.29-.32-.53,0-1.01.12-1.44.36s-.76.57-1,1c-.24.43-.36.94-.36,1.53s.12,1.1.36,1.54c.24.44.58.78,1,1.01s.91.35,1.44.35c.46,0,.89-.11,1.29-.32.4-.21.79-.7.79-.7.12-.16.37-.2.54-.1l1.02.6c.17.1.22.32.1.48,0,0-.66.93-1.35,1.31s-1.48.56-2.37.56Z"/><rect class="cls-3" x="171.7" y="4.59" width="6.16" height="1.73" rx=".36" ry=".36"/><path class="cls-3" d="m176.41,13.89c-1.02,0-1.8-.26-2.36-.79-.55-.53-.78-1.95-.78-1.95-.03-.2-.06-.52-.06-.72V2.84c0-.2.16-.36.36-.36h1.42c.2,0,.36.16.36.36v7.52c0,.2.02.52.05.72,0,0,.06.42.29.66.23.24.55.36.97.36.47,0,.86-.21.86-.21.18-.09.38-.02.45.16l.35.87c.07.18,0,.42-.17.53,0,0-.28.17-.64.28-.37.1-.74.16-1.13.16Z"/><rect class="cls-3" x="171.7" y="4.59" width="6.16" height="1.73" rx=".36" ry=".36"/><path class="cls-3" d="m176.41,13.89c-1.02,0-1.8-.26-2.36-.79-.55-.53-.78-1.95-.78-1.95-.03-.2-.06-.52-.06-.72V2.84c0-.2.16-.36.36-.36h1.42c.2,0,.36.16.36.36v7.52c0,.2.02.52.05.72,0,0,.06.42.29.66.23.24.55.36.97.36.47,0,.86-.21.86-.21.18-.09.38-.02.45.16l.35.87c.07.18,0,.42-.17.53,0,0-.28.17-.64.28-.37.1-.74.16-1.13.16Z"/><path class="cls-3" d="m128.62,25.38c-.32-.76-.78-1.42-1.36-1.98-.58-.56-1.27-.99-2.07-1.3-.8-.31-1.66-.46-2.6-.46s-1.82.16-2.61.47-1.49.75-2.08,1.31c-.59.56-1.04,1.22-1.37,1.97-.32.76-.49,1.58-.49,2.48s.16,1.71.49,2.47c.32.76.78,1.42,1.37,1.98.59.57,1.28,1,2.09,1.32.8.31,1.67.47,2.61.47s1.8-.15,2.6-.46c.8-.31,1.49-.74,2.07-1.31.58-.57,1.04-1.23,1.36-1.98.32-.76.48-1.58.48-2.48s-.16-1.73-.48-2.49Zm-2.1,4.21c-.21.52-.51.97-.89,1.35-.38.38-.83.68-1.34.88-.51.21-1.08.31-1.69.31s-1.18-.1-1.71-.31c-.53-.21-.98-.51-1.36-.89-.38-.39-.68-.84-.9-1.36s-.33-1.08-.33-1.7.11-1.19.33-1.71c.22-.51.52-.96.9-1.35.38-.39.83-.68,1.36-.89.53-.21,1.09-.31,1.71-.31s1.17.1,1.69.31c.51.21.96.5,1.35.88.39.38.68.83.89,1.35.21.52.31,1.09.31,1.71s-.11,1.19-.32,1.71Z"/><path class="cls-3" d="m132.36,33.93c-.2,0-.36-.16-.36-.36v-8.52c0-.2.16-.36.36-.36h1.34c.2,0,.36.16.36.36v1.82c0,.2-.05.21-.11.02l-.02-.05c-.06-.19-.02-.48.08-.65,0,0,.5-.79,1.1-1.12.6-.33,1.84-.46,1.84-.46.2-.02.36.13.36.33v1.34c0,.2-.07.35-.16.34h-.08c-.08-.01-.16-.01-.23-.01-.83,0-1.49.24-1.97.71-.48.47-.68,1.81-.68,1.81-.03.2-.05.52-.05.72v3.74c0,.2-.16.36-.36.36h-1.42Z"/><path class="cls-3" d="m132.36,33.93c-.2,0-.36-.16-.36-.36v-8.52c0-.2.16-.36.36-.36h1.34c.2,0,.36.16.36.36v1.82c0,.2-.05.21-.11.02l-.02-.05c-.06-.19-.02-.48.08-.65,0,0,.5-.79,1.1-1.12.6-.33,1.84-.46,1.84-.46.2-.02.36.13.36.33v1.34c0,.2-.07.35-.16.34h-.08c-.08-.01-.16-.01-.23-.01-.83,0-1.49.24-1.97.71-.48.47-.68,1.81-.68,1.81-.03.2-.05.52-.05.72v3.74c0,.2-.16.36-.36.36h-1.42Z"/><path class="cls-3" d="m141.03,23.16c-.4,0-.74-.13-1-.38s-.39-.57-.39-.94c0-.35.13-.65.39-.9.26-.25.59-.38,1-.38s.74.12,1,.35c.26.24.39.54.39.91s-.13.68-.38.94c-.25.26-.59.39-1,.39Z"/><rect class="cls-3" x="139.96" y="24.69" width="2.15" height="9.25" rx=".36" ry=".36"/><path class="cls-3" d="m141.03,23.16c-.4,0-.74-.13-1-.38s-.39-.57-.39-.94c0-.35.13-.65.39-.9.26-.25.59-.38,1-.38s.74.12,1,.35c.26.24.39.54.39.91s-.13.68-.38.94c-.25.26-.59.39-1,.39Z"/><rect class="cls-3" x="139.96" y="24.69" width="2.15" height="9.25" rx=".36" ry=".36"/><path class="cls-3" d="m149.98,34.05c-1.03,0-1.92-.2-2.69-.61-.77-.41-1.36-.97-1.78-1.68-.42-.71-.63-1.53-.63-2.45s.2-1.74.61-2.45c.41-.71.98-1.27,1.7-1.68.72-.41,1.54-.61,2.47-.61s1.7.2,2.41.6,1.26.96,1.66,1.67c.4.72.61,1.56.61,2.55,0,.08,0,.18,0,.3v.12c-.02.11-.19.2-.39.2h-6.98c-.2,0-.36-.16-.36-.36v-.71c0-.2.16-.36.36-.36h5.84c.2,0,.22.08.04.17l-.22.12c-.18.09-.34,0-.36-.19,0,0-.06-.62-.29-1.03-.23-.41-.53-.73-.93-.95-.39-.23-.85-.34-1.39-.34s-.98.11-1.39.34c-.41.22-.72.55-.94.96-.22.42-.29,1.08-.29,1.08-.02.2-.04.44-.04.53s.02.34.04.53c0,0,.08.69.33,1.11.25.43.6.76,1.06,1,.46.24,1,.36,1.61.36.52,0,.99-.09,1.4-.26.42-.17.83-.53.83-.53.15-.13.38-.11.51.04l.7.8c.13.15.12.38-.03.51,0,0-.69.61-1.31.87-.63.25-1.35.38-2.16.38Z"/><path class="cls-3" d="m149.98,34.05c-1.03,0-1.92-.2-2.69-.61-.77-.41-1.36-.97-1.78-1.68-.42-.71-.63-1.53-.63-2.45s.2-1.74.61-2.45c.41-.71.98-1.27,1.7-1.68.72-.41,1.54-.61,2.47-.61s1.7.2,2.41.6,1.26.96,1.66,1.67c.4.72.61,1.56.61,2.55,0,.08,0,.18,0,.3v.12c-.02.11-.19.2-.39.2h-6.98c-.2,0-.36-.16-.36-.36v-.71c0-.2.16-.36.36-.36h5.84c.2,0,.22.08.04.17l-.22.12c-.18.09-.34,0-.36-.19,0,0-.06-.62-.29-1.03-.23-.41-.53-.73-.93-.95-.39-.23-.85-.34-1.39-.34s-.98.11-1.39.34c-.41.22-.72.55-.94.96-.22.42-.29,1.08-.29,1.08-.02.2-.04.44-.04.53s.02.34.04.53c0,0,.08.69.33,1.11.25.43.6.76,1.06,1,.46.24,1,.36,1.61.36.52,0,.99-.09,1.4-.26.42-.17.83-.53.83-.53.15-.13.38-.11.51.04l.7.8c.13.15.12.38-.03.51,0,0-.69.61-1.31.87-.63.25-1.35.38-2.16.38Z"/><path class="cls-3" d="m162.35,24.56c.75,0,1.41.14,1.98.43s1.03.73,1.37,1.33c.34.6.47,1.94.47,1.94.02.2.04.52.04.72v4.57c0,.2-.16.36-.36.36h-1.44c-.2,0-.36-.16-.36-.36v-4.3c0-.2-.02-.52-.05-.72,0,0-.14-1.07-.52-1.48-.38-.4-.92-.61-1.63-.61-.51,0-.96.1-1.35.31-.39.21-.7.52-.91.93-.21.41-.29,1.19-.29,1.19-.02.2-.03.52-.03.72v3.95c0,.2-.16.36-.36.36h-1.42c-.2,0-.36-.16-.36-.36v-8.52c0-.2.16-.36.36-.36h1.34c.2,0,.36.16.36.36v1.79c0,.2-.07.21-.15.03l-.06-.12c-.08-.18-.06-.46.06-.62,0,0,.56-.75,1.18-1.08.62-.32,1.33-.49,2.14-.49Z"/><path class="cls-3" d="m162.35,24.56c.75,0,1.41.14,1.98.43s1.03.73,1.37,1.33c.34.6.47,1.94.47,1.94.02.2.04.52.04.72v4.57c0,.2-.16.36-.36.36h-1.44c-.2,0-.36-.16-.36-.36v-4.3c0-.2-.02-.52-.05-.72,0,0-.14-1.07-.52-1.48-.38-.4-.92-.61-1.63-.61-.51,0-.96.1-1.35.31-.39.21-.7.52-.91.93-.21.41-.29,1.19-.29,1.19-.02.2-.03.52-.03.72v3.95c0,.2-.16.36-.36.36h-1.42c-.2,0-.36-.16-.36-.36v-8.52c0-.2.16-.36.36-.36h1.34c.2,0,.36.16.36.36v1.79c0,.2-.07.21-.15.03l-.06-.12c-.08-.18-.06-.46.06-.62,0,0,.56-.75,1.18-1.08.62-.32,1.33-.49,2.14-.49Z"/><rect class="cls-3" x="168.42" y="24.75" width="6.16" height="1.73" rx=".36" ry=".36"/><path class="cls-3" d="m173.13,34.05c-1.02,0-1.8-.26-2.36-.79-.55-.53-.78-1.95-.78-1.95-.03-.2-.06-.52-.06-.72v-7.59c0-.2.16-.36.36-.36h1.42c.2,0,.36.16.36.36v7.52c0,.2.02.52.05.72,0,0,.06.42.29.66.23.24.55.36.97.36.47,0,.86-.21.86-.21.18-.09.38-.02.45.16l.35.87c.07.18,0,.42-.17.53,0,0-.28.17-.64.28-.37.1-.74.16-1.13.16Z"/><rect class="cls-3" x="168.42" y="24.75" width="6.16" height="1.73" rx=".36" ry=".36"/><path class="cls-3" d="m173.13,34.05c-1.02,0-1.8-.26-2.36-.79-.55-.53-.78-1.95-.78-1.95-.03-.2-.06-.52-.06-.72v-7.59c0-.2.16-.36.36-.36h1.42c.2,0,.36.16.36.36v7.52c0,.2.02.52.05.72,0,0,.06.42.29.66.23.24.55.36.97.36.47,0,.86-.21.86-.21.18-.09.38-.02.45.16l.35.87c.07.18,0,.42-.17.53,0,0-.28.17-.64.28-.37.1-.74.16-1.13.16Z"/><path class="cls-3" d="m182.03,34.05c-1.03,0-1.92-.2-2.69-.61-.77-.41-1.36-.97-1.78-1.68-.42-.71-.63-1.53-.63-2.45s.2-1.74.61-2.45c.41-.71.98-1.27,1.7-1.68.72-.41,1.54-.61,2.47-.61s1.7.2,2.41.6c.7.4,1.26.96,1.66,1.67.4.72.61,1.56.61,2.55,0,.08,0,.18,0,.3v.12c-.02.11-.19.2-.39.2h-6.98c-.2,0-.36-.16-.36-.36v-.71c0-.2.16-.36.36-.36h5.84c.2,0,.22.08.04.17l-.22.12c-.18.09-.34,0-.36-.19,0,0-.06-.62-.29-1.03-.22-.41-.53-.73-.93-.95-.39-.23-.85-.34-1.39-.34s-.98.11-1.39.34c-.41.22-.72.55-.94.96-.22.42-.29,1.08-.29,1.08-.02.2-.04.44-.04.53s.02.34.04.53c0,0,.08.69.33,1.11.25.43.6.76,1.06,1,.46.24,1,.36,1.61.36.52,0,.99-.09,1.4-.26.42-.17.83-.53.83-.53.15-.13.38-.11.51.04l.7.8c.13.15.12.38-.03.51,0,0-.68.61-1.31.87-.63.25-1.35.38-2.16.38Z"/><path class="cls-3" d="m182.03,34.05c-1.03,0-1.92-.2-2.69-.61-.77-.41-1.36-.97-1.78-1.68-.42-.71-.63-1.53-.63-2.45s.2-1.74.61-2.45c.41-.71.98-1.27,1.7-1.68.72-.41,1.54-.61,2.47-.61s1.7.2,2.41.6c.7.4,1.26.96,1.66,1.67.4.72.61,1.56.61,2.55,0,.08,0,.18,0,.3v.12c-.02.11-.19.2-.39.2h-6.98c-.2,0-.36-.16-.36-.36v-.71c0-.2.16-.36.36-.36h5.84c.2,0,.22.08.04.17l-.22.12c-.18.09-.34,0-.36-.19,0,0-.06-.62-.29-1.03-.22-.41-.53-.73-.93-.95-.39-.23-.85-.34-1.39-.34s-.98.11-1.39.34c-.41.22-.72.55-.94.96-.22.42-.29,1.08-.29,1.08-.02.2-.04.44-.04.53s.02.34.04.53c0,0,.08.69.33,1.11.25.43.6.76,1.06,1,.46.24,1,.36,1.61.36.52,0,.99-.09,1.4-.26.42-.17.83-.53.83-.53.15-.13.38-.11.51.04l.7.8c.13.15.12.38-.03.51,0,0-.68.61-1.31.87-.63.25-1.35.38-2.16.38Z"/><path class="cls-3" d="m196.6,26.63c-.36-.7-.84-1.22-1.45-1.56-.61-.34-1.3-.51-2.08-.51-.89,0-1.69.2-2.4.59-.71.39-1.27.95-1.67,1.66-.4.72-.61,1.55-.61,2.49s.2,1.79.61,2.5.96,1.26,1.67,1.65c.71.39,1.51.59,2.4.59.81,0,1.52-.17,2.12-.51.61-.34,1.08-.86,1.43-1.57.35-.7.52-1.59.52-2.67s-.18-1.98-.54-2.68Zm-.89,4.21c-.25.44-.58.78-.99,1.02-.41.24-.87.35-1.39.35s-.98-.12-1.39-.35c-.41-.24-.74-.58-.99-1.02-.25-.44-.37-.96-.37-1.53s.12-1.1.37-1.53c.25-.43.58-.77.99-1,.41-.24.87-.36,1.39-.36s.98.12,1.39.36c.41.24.74.57.99,1,.25.43.37.94.37,1.53s-.12,1.09-.37,1.53Z"/><path class="cls-3" d="m196.51,33.93c-.2,0-.36-.16-.36-.36v-1.46c0-.2,0-.53,0-.72l.04-1.73c0-.2,0-.53-.02-.72l-.12-1.74c-.01-.2-.03-.52-.03-.72v-5.02c0-.2.16-.36.36-.36h1.46c.2,0,.36.16.36.36v12.12c0,.2-.16.36-.36.36h-1.34Z"/><path class="cls-3" d="m122.66,53.41c-.93,0-1.79-.15-2.58-.46-.79-.31-1.47-.74-2.05-1.31s-1.04-1.22-1.36-1.97c-.32-.75-.49-1.58-.49-2.49s.16-1.74.49-2.49c.32-.75.78-1.41,1.37-1.97.59-.57,1.28-1,2.06-1.31.78-.31,1.64-.46,2.58-.46.99,0,1.9.17,2.72.51.82.34,1.81,1.27,1.81,1.27.15.14.15.36,0,.5l-.93.87c-.15.14-.39.14-.54,0,0,0-.67-.59-1.22-.83-.54-.24-1.13-.35-1.75-.35s-1.21.1-1.74.31c-.53.21-.98.5-1.37.88-.39.38-.69.83-.91,1.35s-.33,1.09-.33,1.71.11,1.19.33,1.71c.22.52.52.97.91,1.35.39.38.84.68,1.37.88.53.21,1.11.31,1.74.31s1.21-.12,1.75-.36c.54-.24,1.22-.84,1.22-.84.15-.13.39-.13.53,0l.93.87c.15.14.14.36,0,.5,0,0-.99.93-1.81,1.28-.82.35-1.73.52-2.74.52Z"/><path class="cls-3" d="m122.66,53.41c-.93,0-1.79-.15-2.58-.46-.79-.31-1.47-.74-2.05-1.31s-1.04-1.22-1.36-1.97c-.32-.75-.49-1.58-.49-2.49s.16-1.74.49-2.49c.32-.75.78-1.41,1.37-1.97.59-.57,1.28-1,2.06-1.31.78-.31,1.64-.46,2.58-.46.99,0,1.9.17,2.72.51.82.34,1.81,1.27,1.81,1.27.15.14.15.36,0,.5l-.93.87c-.15.14-.39.14-.54,0,0,0-.67-.59-1.22-.83-.54-.24-1.13-.35-1.75-.35s-1.21.1-1.74.31c-.53.21-.98.5-1.37.88-.39.38-.69.83-.91,1.35s-.33,1.09-.33,1.71.11,1.19.33,1.71c.22.52.52.97.91,1.35.39.38.84.68,1.37.88.53.21,1.11.31,1.74.31s1.21-.12,1.75-.36c.54-.24,1.22-.84,1.22-.84.15-.13.39-.13.53,0l.93.87c.15.14.14.36,0,.5,0,0-.99.93-1.81,1.28-.82.35-1.73.52-2.74.52Z"/><path class="cls-3" d="m138.58,46.16c-.42-.7-1-1.26-1.75-1.67-.74-.41-1.6-.61-2.55-.61s-1.79.21-2.53.61c-.74.41-1.32.97-1.75,1.67-.43.7-.64,1.52-.64,2.46s.21,1.73.64,2.44c.43.72,1.01,1.28,1.76,1.69.74.41,1.58.61,2.52.61s1.79-.2,2.55-.61c.75-.41,1.34-.97,1.76-1.68.42-.71.63-1.53.63-2.45s-.21-1.75-.63-2.46Zm-1.9,3.99c-.24.44-.56.78-.98,1.02-.42.24-.89.35-1.42.35s-.97-.12-1.39-.35c-.42-.24-.74-.58-.99-1.02-.24-.44-.36-.96-.36-1.53s.12-1.1.36-1.53c.24-.43.57-.77.99-1s.88-.36,1.4-.36.99.12,1.4.36.74.57.98,1c.24.43.35.94.35,1.53s-.12,1.09-.35,1.53Z"/><path class="cls-3" d="m147.23,43.87c.75,0,1.41.14,1.98.43.57.29,1.03.73,1.37,1.33.34.6.47,1.94.47,1.94.02.2.04.52.04.72v4.57c0,.2-.16.36-.36.36h-1.44c-.2,0-.36-.16-.36-.36v-4.3c0-.2-.02-.52-.05-.72,0,0-.14-1.07-.52-1.48-.38-.4-.92-.61-1.63-.61-.51,0-.96.1-1.35.31-.39.21-.7.52-.91.93-.21.41-.29,1.19-.29,1.19-.02.2-.03.52-.03.72v3.95c0,.2-.16.36-.36.36h-1.42c-.2,0-.36-.16-.36-.36v-8.52c0-.2.16-.36.36-.36h1.34c.2,0,.36.16.36.36v1.79c0,.2-.07.21-.15.03l-.06-.12c-.08-.18-.06-.46.06-.62,0,0,.56-.75,1.18-1.08.62-.32,1.33-.49,2.14-.49Z"/><path class="cls-3" d="m147.23,43.87c.75,0,1.41.14,1.98.43.57.29,1.03.73,1.37,1.33.34.6.47,1.94.47,1.94.02.2.04.52.04.72v4.57c0,.2-.16.36-.36.36h-1.44c-.2,0-.36-.16-.36-.36v-4.3c0-.2-.02-.52-.05-.72,0,0-.14-1.07-.52-1.48-.38-.4-.92-.61-1.63-.61-.51,0-.96.1-1.35.31-.39.21-.7.52-.91.93-.21.41-.29,1.19-.29,1.19-.02.2-.03.52-.03.72v3.95c0,.2-.16.36-.36.36h-1.42c-.2,0-.36-.16-.36-.36v-8.52c0-.2.16-.36.36-.36h1.34c.2,0,.36.16.36.36v1.79c0,.2-.07.21-.15.03l-.06-.12c-.08-.18-.06-.46.06-.62,0,0,.56-.75,1.18-1.08.62-.32,1.33-.49,2.14-.49Z"/><rect class="cls-3" x="153.31" y="44.06" width="6.16" height="1.73" rx=".36" ry=".36"/><path class="cls-3" d="m155.2,53.24c-.2,0-.36-.16-.36-.36v-9.02c0-.2.03-.52.06-.72,0,0,.23-1.41.8-1.99.57-.58,1.39-.87,2.45-.87.38,0,.74.04,1.08.12.34.08.54.2.54.2.17.1.26.33.19.52l-.35.93c-.07.19-.27.26-.44.16,0,0-.02,0-.22-.08s-.42-.1-.64-.1c-.45,0-.79.12-1.02.37-.23.25-.3.74-.3.74-.03.2-.05.52-.05.72v.35c0,.2,0,.53.02.72v.23c.02.2.03.53.03.72v7c0,.2-.16.36-.36.36h-1.42Z"/><rect class="cls-3" x="153.31" y="44.06" width="6.16" height="1.73" rx=".36" ry=".36"/><path class="cls-3" d="m155.2,53.24c-.2,0-.36-.16-.36-.36v-9.02c0-.2.03-.52.06-.72,0,0,.23-1.41.8-1.99.57-.58,1.39-.87,2.45-.87.38,0,.74.04,1.08.12.34.08.54.2.54.2.17.1.26.33.19.52l-.35.93c-.07.19-.27.26-.44.16,0,0-.02,0-.22-.08s-.42-.1-.64-.1c-.45,0-.79.12-1.02.37-.23.25-.3.74-.3.74-.03.2-.05.52-.05.72v.35c0,.2,0,.53.02.72v.23c.02.2.03.53.03.72v7c0,.2-.16.36-.36.36h-1.42Z"/><path class="cls-3" d="m165.97,53.36c-1.03,0-1.93-.2-2.69-.61-.77-.41-1.36-.97-1.78-1.68-.42-.71-.63-1.53-.63-2.45s.2-1.74.61-2.45c.41-.71.98-1.27,1.7-1.68.72-.41,1.54-.61,2.47-.61s1.7.2,2.41.6c.7.4,1.26.96,1.66,1.67s.61,1.56.61,2.55c0,.08,0,.18,0,.3v.12c-.02.11-.19.2-.39.2h-6.98c-.2,0-.36-.16-.36-.36v-.71c0-.2.16-.36.36-.36h5.84c.2,0,.22.08.04.17l-.22.12c-.18.09-.34,0-.36-.19,0,0-.06-.62-.29-1.03-.23-.41-.53-.73-.93-.95-.39-.23-.85-.34-1.39-.34s-.98.11-1.39.34c-.41.22-.72.55-.94.96-.22.42-.29,1.08-.29,1.08-.02.2-.04.44-.04.53s.02.34.04.53c0,0,.08.69.33,1.11.25.43.6.76,1.07,1,.46.24,1,.36,1.61.36.52,0,.99-.09,1.4-.26s.83-.53.83-.53c.15-.13.38-.11.51.04l.7.8c.13.15.12.38-.03.51,0,0-.68.61-1.31.87-.63.25-1.35.38-2.16.38Z"/><path class="cls-3" d="m165.97,53.36c-1.03,0-1.93-.2-2.69-.61-.77-.41-1.36-.97-1.78-1.68-.42-.71-.63-1.53-.63-2.45s.2-1.74.61-2.45c.41-.71.98-1.27,1.7-1.68.72-.41,1.54-.61,2.47-.61s1.7.2,2.41.6c.7.4,1.26.96,1.66,1.67s.61,1.56.61,2.55c0,.08,0,.18,0,.3v.12c-.02.11-.19.2-.39.2h-6.98c-.2,0-.36-.16-.36-.36v-.71c0-.2.16-.36.36-.36h5.84c.2,0,.22.08.04.17l-.22.12c-.18.09-.34,0-.36-.19,0,0-.06-.62-.29-1.03-.23-.41-.53-.73-.93-.95-.39-.23-.85-.34-1.39-.34s-.98.11-1.39.34c-.41.22-.72.55-.94.96-.22.42-.29,1.08-.29,1.08-.02.2-.04.44-.04.53s.02.34.04.53c0,0,.08.69.33,1.11.25.43.6.76,1.07,1,.46.24,1,.36,1.61.36.52,0,.99-.09,1.4-.26s.83-.53.83-.53c.15-.13.38-.11.51.04l.7.8c.13.15.12.38-.03.51,0,0-.68.61-1.31.87-.63.25-1.35.38-2.16.38Z"/><path class="cls-3" d="m173.46,53.24c-.2,0-.36-.16-.36-.36v-8.52c0-.2.16-.36.36-.36h1.34c.2,0,.36.16.36.36v1.82c0,.2-.05.21-.11.02l-.02-.05c-.06-.19-.02-.48.08-.65,0,0,.5-.79,1.1-1.12.6-.33,1.84-.46,1.84-.46.2-.02.36.13.36.33v1.34c0,.2-.07.35-.16.34h-.08c-.08-.01-.16-.01-.23-.01-.83,0-1.49.24-1.97.71-.48.47-.68,1.81-.68,1.81-.03.2-.05.52-.05.72v3.74c0,.2-.16.36-.36.36h-1.42Z"/><path class="cls-3" d="m173.46,53.24c-.2,0-.36-.16-.36-.36v-8.52c0-.2.16-.36.36-.36h1.34c.2,0,.36.16.36.36v1.82c0,.2-.05.21-.11.02l-.02-.05c-.06-.19-.02-.48.08-.65,0,0,.5-.79,1.1-1.12.6-.33,1.84-.46,1.84-.46.2-.02.36.13.36.33v1.34c0,.2-.07.35-.16.34h-.08c-.08-.01-.16-.01-.23-.01-.83,0-1.49.24-1.97.71-.48.47-.68,1.81-.68,1.81-.03.2-.05.52-.05.72v3.74c0,.2-.16.36-.36.36h-1.42Z"/><path class="cls-3" d="m185.39,53.36c-1.03,0-1.93-.2-2.69-.61-.77-.41-1.36-.97-1.78-1.68-.42-.71-.63-1.53-.63-2.45s.2-1.74.61-2.45c.41-.71.98-1.27,1.7-1.68.72-.41,1.54-.61,2.47-.61s1.7.2,2.41.6c.7.4,1.26.96,1.66,1.67s.61,1.56.61,2.55c0,.08,0,.18,0,.3v.12c-.02.11-.19.2-.39.2h-6.98c-.2,0-.36-.16-.36-.36v-.71c0-.2.16-.36.36-.36h5.84c.2,0,.22.08.04.17l-.22.12c-.18.09-.34,0-.36-.19,0,0-.06-.62-.29-1.03-.23-.41-.53-.73-.93-.95-.39-.23-.85-.34-1.39-.34s-.98.11-1.39.34c-.41.22-.72.55-.94.96-.22.42-.29,1.08-.29,1.08-.02.2-.04.44-.04.53s.02.34.04.53c0,0,.08.69.33,1.11.25.43.6.76,1.07,1,.46.24,1,.36,1.61.36.52,0,.99-.09,1.4-.26s.83-.53.83-.53c.15-.13.38-.11.51.04l.7.8c.13.15.12.38-.03.51,0,0-.68.61-1.31.87-.63.25-1.35.38-2.16.38Z"/><path class="cls-3" d="m185.39,53.36c-1.03,0-1.93-.2-2.69-.61-.77-.41-1.36-.97-1.78-1.68-.42-.71-.63-1.53-.63-2.45s.2-1.74.61-2.45c.41-.71.98-1.27,1.7-1.68.72-.41,1.54-.61,2.47-.61s1.7.2,2.41.6c.7.4,1.26.96,1.66,1.67s.61,1.56.61,2.55c0,.08,0,.18,0,.3v.12c-.02.11-.19.2-.39.2h-6.98c-.2,0-.36-.16-.36-.36v-.71c0-.2.16-.36.36-.36h5.84c.2,0,.22.08.04.17l-.22.12c-.18.09-.34,0-.36-.19,0,0-.06-.62-.29-1.03-.23-.41-.53-.73-.93-.95-.39-.23-.85-.34-1.39-.34s-.98.11-1.39.34c-.41.22-.72.55-.94.96-.22.42-.29,1.08-.29,1.08-.02.2-.04.44-.04.53s.02.34.04.53c0,0,.08.69.33,1.11.25.43.6.76,1.07,1,.46.24,1,.36,1.61.36.52,0,.99-.09,1.4-.26s.83-.53.83-.53c.15-.13.38-.11.51.04l.7.8c.13.15.12.38-.03.51,0,0-.68.61-1.31.87-.63.25-1.35.38-2.16.38Z"/><path class="cls-3" d="m197.76,43.87c.75,0,1.41.14,1.98.43.57.29,1.03.73,1.37,1.33.34.6.47,1.94.47,1.94.02.2.04.52.04.72v4.57c0,.2-.16.36-.36.36h-1.44c-.2,0-.36-.16-.36-.36v-4.3c0-.2-.02-.52-.05-.72,0,0-.14-1.07-.52-1.48-.38-.4-.92-.61-1.63-.61-.51,0-.96.1-1.35.31-.39.21-.7.52-.91.93-.21.41-.29,1.19-.29,1.19-.02.2-.03.52-.03.72v3.95c0,.2-.16.36-.36.36h-1.42c-.2,0-.36-.16-.36-.36v-8.52c0-.2.16-.36.36-.36h1.34c.2,0,.36.16.36.36v1.79c0,.2-.07.21-.15.03l-.06-.12c-.08-.18-.06-.46.06-.62,0,0,.56-.75,1.18-1.08.62-.32,1.33-.49,2.14-.49Z"/><path class="cls-3" d="m197.76,43.87c.75,0,1.41.14,1.98.43.57.29,1.03.73,1.37,1.33.34.6.47,1.94.47,1.94.02.2.04.52.04.72v4.57c0,.2-.16.36-.36.36h-1.44c-.2,0-.36-.16-.36-.36v-4.3c0-.2-.02-.52-.05-.72,0,0-.14-1.07-.52-1.48-.38-.4-.92-.61-1.63-.61-.51,0-.96.1-1.35.31-.39.21-.7.52-.91.93-.21.41-.29,1.19-.29,1.19-.02.2-.03.52-.03.72v3.95c0,.2-.16.36-.36.36h-1.42c-.2,0-.36-.16-.36-.36v-8.52c0-.2.16-.36.36-.36h1.34c.2,0,.36.16.36.36v1.79c0,.2-.07.21-.15.03l-.06-.12c-.08-.18-.06-.46.06-.62,0,0,.56-.75,1.18-1.08.62-.32,1.33-.49,2.14-.49Z"/><path class="cls-3" d="m209.31,53.36c-.97,0-1.83-.2-2.59-.61-.76-.41-1.35-.97-1.77-1.68-.43-.71-.64-1.53-.64-2.45s.21-1.75.64-2.46c.43-.7,1.02-1.26,1.77-1.67.76-.41,1.62-.61,2.59-.61.89,0,1.68.18,2.37.55.69.37,1.35,1.31,1.35,1.31.11.16.07.38-.1.48l-1.02.6c-.17.1-.42.06-.54-.1,0,0-.38-.47-.78-.68-.4-.21-.83-.32-1.29-.32-.53,0-1.01.12-1.44.36s-.76.57-1,1c-.24.43-.36.94-.36,1.53s.12,1.1.36,1.54c.24.44.58.78,1,1.01s.91.35,1.44.35c.46,0,.89-.11,1.29-.32.4-.21.79-.7.79-.7.12-.16.37-.2.54-.1l1.02.6c.17.1.22.32.1.48,0,0-.66.93-1.35,1.31-.69.38-1.48.56-2.37.56Z"/><path class="cls-3" d="m209.31,53.36c-.97,0-1.83-.2-2.59-.61-.76-.41-1.35-.97-1.77-1.68-.43-.71-.64-1.53-.64-2.45s.21-1.75.64-2.46c.43-.7,1.02-1.26,1.77-1.67.76-.41,1.62-.61,2.59-.61.89,0,1.68.18,2.37.55.69.37,1.35,1.31,1.35,1.31.11.16.07.38-.1.48l-1.02.6c-.17.1-.42.06-.54-.1,0,0-.38-.47-.78-.68-.4-.21-.83-.32-1.29-.32-.53,0-1.01.12-1.44.36s-.76.57-1,1c-.24.43-.36.94-.36,1.53s.12,1.1.36,1.54c.24.44.58.78,1,1.01s.91.35,1.44.35c.46,0,.89-.11,1.29-.32.4-.21.79-.7.79-.7.12-.16.37-.2.54-.1l1.02.6c.17.1.22.32.1.48,0,0-.66.93-1.35,1.31-.69.38-1.48.56-2.37.56Z"/><path class="cls-3" d="m220.16,53.36c-1.03,0-1.93-.2-2.69-.61-.77-.41-1.36-.97-1.78-1.68-.42-.71-.63-1.53-.63-2.45s.2-1.74.61-2.45c.41-.71.98-1.27,1.7-1.68.72-.41,1.54-.61,2.47-.61s1.7.2,2.41.6c.7.4,1.26.96,1.66,1.67s.61,1.56.61,2.55c0,.08,0,.18,0,.3v.12c-.02.11-.19.2-.39.2h-6.98c-.2,0-.36-.16-.36-.36v-.71c0-.2.16-.36.36-.36h5.84c.2,0,.22.08.04.17l-.22.12c-.18.09-.34,0-.36-.19,0,0-.06-.62-.29-1.03-.23-.41-.53-.73-.93-.95-.39-.23-.85-.34-1.39-.34s-.98.11-1.39.34c-.41.22-.72.55-.94.96-.22.42-.29,1.08-.29,1.08-.02.2-.04.44-.04.53s.02.34.04.53c0,0,.08.69.33,1.11.25.43.6.76,1.07,1,.46.24,1,.36,1.61.36.52,0,.99-.09,1.4-.26s.83-.53.83-.53c.15-.13.38-.11.51.04l.7.8c.13.15.12.38-.03.51,0,0-.68.61-1.31.87-.63.25-1.35.38-2.16.38Z"/><path class="cls-3" d="m220.16,53.36c-1.03,0-1.93-.2-2.69-.61-.77-.41-1.36-.97-1.78-1.68-.42-.71-.63-1.53-.63-2.45s.2-1.74.61-2.45c.41-.71.98-1.27,1.7-1.68.72-.41,1.54-.61,2.47-.61s1.7.2,2.41.6c.7.4,1.26.96,1.66,1.67s.61,1.56.61,2.55c0,.08,0,.18,0,.3v.12c-.02.11-.19.2-.39.2h-6.98c-.2,0-.36-.16-.36-.36v-.71c0-.2.16-.36.36-.36h5.84c.2,0,.22.08.04.17l-.22.12c-.18.09-.34,0-.36-.19,0,0-.06-.62-.29-1.03-.23-.41-.53-.73-.93-.95-.39-.23-.85-.34-1.39-.34s-.98.11-1.39.34c-.41.22-.72.55-.94.96-.22.42-.29,1.08-.29,1.08-.02.2-.04.44-.04.53s.02.34.04.53c0,0,.08.69.33,1.11.25.43.6.76,1.07,1,.46.24,1,.36,1.61.36.52,0,.99-.09,1.4-.26s.83-.53.83-.53c.15-.13.38-.11.51.04l.7.8c.13.15.12.38-.03.51,0,0-.68.61-1.31.87-.63.25-1.35.38-2.16.38Z"/><path class="cls-3" d="m61.31,48.02s-.17-.15-.23-.2c-5.55-4.45-13.1-8.16-21.42-10.57,7.26-2.73,15.5-7.16,20.89-14.21.59-.77.75-1.78.42-2.69C55.31,4.61,37.45-3.78,21.14,1.65,13.06,4.34,6.61,9.94,2.98,17.41c-3.36,6.93-3.89,14.69-1.51,21.95-1.36,6.69-.07,13.56,3.69,19.45,4.35,6.82,11.69,11.7,20.13,13.38,2.21.44,4.41.65,6.58.65,14.18,0,27.02-9,30.21-22.16.23-.96-.06-1.98-.76-2.67Zm-33.86-7.29c8.86,1.16,17.72,4.07,24.56,7.96-16.08,2.62-30.31-.6-39.31-6.28,4.79-.1,9.8-.67,14.74-1.68ZM8.1,19.9c2.96-6.08,8.22-10.64,14.84-12.84,12.35-4.11,25.78,1.38,31.41,12.33.43.84.28,1.87-.38,2.55-4.74,4.85-12.07,8.89-21.02,11.56-8.09,2.41-17.16,3.54-24.93,3.16-.87-.04-1.62-.66-1.8-1.51-1.09-5.12-.45-10.43,1.89-15.24Zm18.28,46.77c-6.94-1.38-12.94-5.35-16.48-10.89-1.77-2.77-2.84-5.8-3.2-8.92-.08-.71.73-1.16,1.31-.75,5.34,3.83,12.19,6.55,20.19,7.97,8,1.42,16.69,1.43,25.06.08.68-.11,1.19.64.83,1.22-5.26,8.65-16.44,13.52-27.71,11.28Z"/><path class="cls-1" d="m12.94,32.18c-.72-.02-1.3-.54-1.39-1.23-.76-5.89,3.47-16.83,12.72-19.77,8.48-2.69,18.46,1.26,23.08,8.14.39.57.29,1.33-.23,1.79-6.66,5.85-22.51,11.35-34.18,11.07Z"/><path class="cls-3" d="m69.4,23.68l10.65-11.25c.29-.3.53-.34.96-.04l10.88,6.07c.38.2.35.62-.29.78l-21.49,5.47c-.96.23-1.33-.4-.71-1.02Z"/><path class="cls-3" d="m79.39,31.73l20.98.46c.59,0,.84.26.55.64l-7.53,9.53c-.43.46-.69.48-1.04.21l-13.3-9.94c-.56-.42-.48-.96.33-.91Z"/><path class="cls-2" d="m28.4,64.17c-7.99-1.11-15.82-7.04-17.15-11.67-.19-.65.13-1.27,1.04-.58,2.53,1.93,12.03,5.11,17.03,5.78,4.66.62,14.41.56,18.11-.38.77-.2,1.06.1.55.67-3.9,4.31-11.45,7.32-19.57,6.19Z"/></g></svg>