<?xml version="1.0" encoding="UTF-8"?><svg id="_レイヤー_2" xmlns="http://www.w3.org/2000/svg" viewBox="0 0 101.04 72.85"><defs><style>.cls-1{fill:#f9b900;}.cls-2{fill:#2b85c8;}.cls-3{fill:#494342;}</style></defs><g id="_レイヤー_1-2"><path class="cls-3" d="m61.31,48.02s-.17-.15-.23-.2c-5.55-4.45-13.1-8.16-21.42-10.57,7.26-2.73,15.5-7.16,20.89-14.21.59-.77.75-1.78.42-2.69C55.31,4.61,37.45-3.78,21.14,1.65,13.06,4.34,6.61,9.94,2.98,17.41c-3.36,6.93-3.89,14.69-1.51,21.95-1.36,6.69-.07,13.56,3.69,19.45,4.35,6.82,11.69,11.7,20.13,13.38,2.21.44,4.41.65,6.58.65,14.18,0,27.02-9,30.21-22.16.23-.96-.06-1.98-.76-2.67Zm-33.86-7.29c8.86,1.16,17.72,4.07,24.56,7.96-16.08,2.62-30.31-.6-39.31-6.28,4.79-.1,9.8-.67,14.74-1.68ZM8.1,19.9c2.96-6.08,8.22-10.64,14.84-12.84,12.35-4.11,25.78,1.38,31.41,12.33.43.84.28,1.87-.38,2.55-4.74,4.85-12.07,8.89-21.02,11.56-8.09,2.41-17.16,3.54-24.93,3.16-.87-.04-1.62-.66-1.8-1.51-1.09-5.12-.45-10.43,1.89-15.24Zm18.28,46.77c-6.94-1.38-12.94-5.35-16.48-10.89-1.77-2.77-2.84-5.8-3.2-8.92-.08-.71.73-1.16,1.31-.75,5.34,3.83,12.19,6.55,20.19,7.97,8,1.42,16.69,1.43,25.06.08.68-.11,1.19.64.83,1.22-5.26,8.65-16.44,13.52-27.71,11.28Z"/><path class="cls-1" d="m12.94,32.18c-.72-.02-1.3-.54-1.39-1.23-.76-5.89,3.47-16.83,12.72-19.77,8.48-2.69,18.46,1.26,23.08,8.14.39.57.29,1.33-.23,1.79-6.66,5.85-22.51,11.35-34.18,11.07Z"/><path class="cls-3" d="m69.4,23.68l10.65-11.25c.29-.3.53-.34.96-.04l10.88,6.07c.38.2.35.62-.29.78l-21.49,5.47c-.96.23-1.33-.4-.71-1.02Z"/><path class="cls-3" d="m79.39,31.73l20.98.46c.59,0,.84.26.55.64l-7.53,9.53c-.43.46-.69.48-1.04.21l-13.3-9.94c-.56-.42-.48-.96.33-.91Z"/><path class="cls-2" d="m28.4,64.17c-7.99-1.11-15.82-7.04-17.15-11.67-.19-.65.13-1.27,1.04-.58,2.53,1.93,12.03,5.11,17.03,5.78,4.66.62,14.41.56,18.11-.38.77-.2,1.06.1.55.67-3.9,4.31-11.45,7.32-19.57,6.19Z"/></g></svg>