<svg width="110" height="36" viewBox="0 0 110 36" fill="none" xmlns="http://www.w3.org/2000/svg">
<path d="M17.9421 35.7534C27.8512 35.7534 35.8841 27.7497 35.8841 17.8767C35.8841 8.00367 27.8512 0 17.9421 0C8.03293 0 0 8.00367 0 17.8767C0 27.7497 8.03293 35.7534 17.9421 35.7534Z" fill="#111111"/>
<path d="M59.4347 35.7534C69.3439 35.7534 77.3768 27.7497 77.3768 17.8767C77.3768 8.00367 69.3439 0 59.4347 0C49.5256 0 41.4927 8.00367 41.4927 17.8767C41.4927 27.7497 49.5256 35.7534 59.4347 35.7534Z" fill="#111111"/>
<path d="M109.914 2.39916C107.271 0.877743 104.217 0 100.957 0C91.0612 0 83.0151 7.98746 83.0151 17.8767C83.0151 27.7659 91.0318 35.7534 100.957 35.7534C104.217 35.7534 107.271 34.8757 109.914 33.3542V2.39916Z" fill="#111111"/>
</svg>
