<svg width="600" height="140" viewBox="0 0 600 140" fill="none" xmlns="http://www.w3.org/2000/svg">
<g clip-path="url(#clip0)">
<path d="M69.8286 140.115C108.394 140.115 139.657 108.749 139.657 70.0573C139.657 31.3657 108.394 0 69.8286 0C31.2633 0 0 31.3657 0 70.0573C0 108.749 31.2633 140.115 69.8286 140.115Z" fill="#111111"/>
<path d="M231.314 140.115C269.88 140.115 301.143 108.749 301.143 70.0573C301.143 31.3657 269.88 0 231.314 0C192.749 0 161.486 31.3657 161.486 70.0573C161.486 108.749 192.749 140.115 231.314 140.115Z" fill="#111111"/>
<path d="M467.772 36.0033C466.4 35.3153 465.372 34.2834 464.686 33.0221C463.886 31.7609 463.543 30.3849 463.543 28.7797C463.543 27.1745 463.886 25.7985 464.686 24.5373C465.486 23.276 466.514 22.3587 467.772 21.5561C469.029 20.7535 470.629 20.5242 472.229 20.5242C473.829 20.5242 475.314 20.8681 476.686 21.5561C478.057 22.2441 479.086 23.276 479.772 24.5373C480.457 25.7985 480.914 27.1745 480.914 28.7797C480.914 30.3849 480.572 31.7609 479.772 33.0221C478.972 34.2834 477.943 35.2007 476.686 36.0033C475.314 36.6912 473.943 37.0352 472.229 37.0352C470.629 37.0352 469.143 36.6912 467.772 36.0033ZM474.743 33.2514C475.543 32.7928 476.114 32.2195 476.572 31.4169C477.029 30.6143 477.257 29.8116 477.257 28.7797C477.257 27.7478 477.029 26.9451 476.572 26.1425C476.114 25.3399 475.543 24.7666 474.743 24.308C473.943 23.8493 473.143 23.62 472.229 23.62C471.314 23.62 470.4 23.8493 469.714 24.308C468.914 24.7666 468.343 25.3399 467.886 26.1425C467.429 26.9451 467.2 27.7478 467.2 28.7797C467.2 29.8116 467.429 30.6143 467.886 31.4169C468.343 32.2195 468.914 32.7928 469.714 33.2514C470.514 33.7101 471.314 33.9394 472.229 33.9394C473.143 33.9394 474.057 33.7101 474.743 33.2514Z" fill="#111111"/>
<path d="M493.943 25.1106C494.857 25.6839 495.657 26.3718 496.114 27.2891C496.686 28.2064 496.914 29.353 496.914 30.6143C496.914 31.8755 496.686 33.0221 496.114 33.9394C495.543 34.8567 494.857 35.6593 493.943 36.1179C493.029 36.6912 492 36.9206 490.857 36.9206C489.143 36.9206 487.886 36.3473 486.972 35.3153V36.6912H483.543V19.9509H487.086V25.9132C488 24.8813 489.257 24.4226 490.743 24.4226C492 24.4226 493.029 24.6519 493.943 25.1106ZM492.457 33.1368C493.029 32.5635 493.372 31.6462 493.372 30.6143C493.372 29.5823 493.029 28.7797 492.457 28.0917C491.886 27.5184 491.086 27.1745 490.172 27.1745C489.257 27.1745 488.572 27.5184 487.886 28.0917C487.2 28.665 486.972 29.5823 486.972 30.6143C486.972 31.6462 487.314 32.4488 487.886 33.1368C488.457 33.8247 489.257 34.0541 490.172 34.0541C491.2 34.0541 491.886 33.8247 492.457 33.1368Z" fill="#111111"/>
<path d="M495.429 40.7044L496.343 38.1818C496.8 38.5258 497.257 38.6405 497.829 38.6405C498.286 38.6405 498.629 38.5258 498.857 38.1818C499.086 37.8379 499.2 37.4939 499.2 36.8059V24.5373H502.743V36.8059C502.743 38.1818 502.286 39.3284 501.486 40.1311C500.686 40.9337 499.543 41.3923 498.057 41.3923C497.029 41.3923 496.114 41.163 495.429 40.7044ZM499.543 22.2441C499.086 21.9001 498.972 21.4415 498.972 20.8682C498.972 20.2949 499.2 19.8362 499.543 19.4922C500 19.1483 500.457 18.9189 501.143 18.9189C501.829 18.9189 502.286 19.1483 502.743 19.4922C503.2 19.8362 503.314 20.2949 503.314 20.8682C503.314 21.4415 503.086 21.9001 502.743 22.3587C502.286 22.7027 501.829 22.932 501.143 22.932C500.457 22.932 500 22.7027 499.543 22.2441Z" fill="#111111"/>
<path d="M518.057 31.6462H508.8C508.915 32.4488 509.372 33.0221 509.943 33.4808C510.515 33.9394 511.315 34.1687 512.229 34.1687C512.915 34.1687 513.372 34.0541 513.943 33.9394C514.4 33.7101 514.857 33.4808 515.314 33.0221L517.143 35.086C516 36.4619 514.286 37.0352 512.114 37.0352C510.743 37.0352 509.486 36.8059 508.457 36.2326C507.429 35.6593 506.629 34.9713 506.057 33.9394C505.486 32.9075 505.143 31.8755 505.143 30.7289C505.143 29.5823 505.372 28.4357 505.943 27.5184C506.515 26.6011 507.315 25.7985 508.229 25.2252C509.143 24.6519 510.286 24.4226 511.543 24.4226C512.686 24.4226 513.829 24.6519 514.743 25.2252C515.657 25.7985 516.457 26.4865 517.029 27.4038C517.6 28.3211 517.829 29.4677 517.829 30.7289C518.172 30.7289 518.057 31.0729 518.057 31.6462ZM509.829 27.7478C509.257 28.2064 508.915 28.7797 508.8 29.5823H514.857C514.743 28.7797 514.4 28.2064 513.829 27.7478C513.257 27.2891 512.572 27.0598 511.886 27.0598C510.972 27.0598 510.286 27.2891 509.829 27.7478Z" fill="#111111"/>
<path d="M523.086 36.2326C522.057 35.6593 521.257 34.9713 520.686 33.9394C520.114 32.9075 519.771 31.8755 519.771 30.7289C519.771 29.4677 520.114 28.4357 520.686 27.5184C521.257 26.6011 522.057 25.7985 523.086 25.2252C524.114 24.6519 525.257 24.4226 526.629 24.4226C527.886 24.4226 529.029 24.6519 529.943 25.2252C530.857 25.7985 531.657 26.4865 532 27.5184L529.257 29.009C528.571 27.8624 527.657 27.2891 526.514 27.2891C525.6 27.2891 524.8 27.6331 524.229 28.2064C523.657 28.7797 523.314 29.697 523.314 30.7289C523.314 31.7609 523.657 32.5635 524.229 33.2514C524.8 33.8247 525.6 34.1687 526.514 34.1687C527.771 34.1687 528.686 33.5954 529.257 32.4488L532 33.9394C531.543 34.8567 530.857 35.6593 529.943 36.2326C529.029 36.8059 527.886 37.0352 526.629 37.0352C525.257 37.0352 524.114 36.6912 523.086 36.2326Z" fill="#111111"/>
<path d="M542.629 36.2326C542.286 36.462 541.829 36.6913 541.372 36.8059C540.914 36.9206 540.343 37.0353 539.772 37.0353C538.286 37.0353 537.143 36.6913 536.457 35.8887C535.657 35.2007 535.314 34.0541 535.314 32.5635V27.5185H533.486V24.7666H535.314V21.7855H538.857V24.7666H541.943V27.5185H538.857V32.4488C538.857 33.0222 538.972 33.3661 539.2 33.5955C539.429 33.8248 539.886 34.0541 540.343 34.0541C540.914 34.0541 541.372 33.9394 541.829 33.5955L542.629 36.2326Z" fill="#111111"/>
<path d="M467.772 75.905C466.4 75.217 465.372 74.1851 464.686 72.9238C463.886 71.6626 463.543 70.2867 463.543 68.6814C463.543 67.0762 463.886 65.7003 464.686 64.439C465.486 63.1777 466.514 62.2605 467.772 61.4578C469.029 60.6552 470.629 60.4259 472.229 60.4259C473.829 60.4259 475.314 60.7699 476.686 61.4578C478.057 62.1458 479.086 63.1777 479.772 64.439C480.457 65.7003 480.914 67.0762 480.914 68.6814C480.914 70.2867 480.572 71.6626 479.772 72.9238C478.972 74.1851 477.943 75.1024 476.686 75.905C475.314 76.593 473.943 76.937 472.229 76.937C470.629 76.937 469.143 76.593 467.772 75.905ZM474.743 73.1532C475.543 72.6945 476.114 72.1212 476.572 71.3186C477.029 70.516 477.257 69.7134 477.257 68.6814C477.257 67.6495 477.029 66.8469 476.572 66.0442C476.114 65.2416 475.543 64.6683 474.743 64.2097C473.943 63.751 473.143 63.5217 472.229 63.5217C471.314 63.5217 470.4 63.751 469.714 64.2097C468.914 64.6683 468.343 65.2416 467.886 66.0442C467.429 66.8469 467.2 67.6495 467.2 68.6814C467.2 69.7134 467.429 70.516 467.886 71.3186C468.343 72.1212 468.914 72.6945 469.714 73.1532C470.514 73.6118 471.314 73.8411 472.229 73.8411C473.143 73.8411 474.057 73.6118 474.743 73.1532Z" fill="#111111"/>
<path d="M488.686 64.6684C489.372 64.3244 490.286 64.2097 491.2 64.2097V67.5349C490.857 67.5349 490.514 67.5349 490.4 67.5349C489.372 67.5349 488.572 67.7642 488 68.3375C487.429 68.9108 487.086 69.7134 487.086 70.86V76.593H483.543V64.439H486.972V66.0443C487.429 65.471 488 65.0123 488.686 64.6684Z" fill="#111111"/>
<path d="M493.371 62.1458C492.914 61.8018 492.8 61.3432 492.8 60.7699C492.8 60.1966 493.029 59.738 493.371 59.394C493.829 59.05 494.286 58.8207 494.971 58.8207C495.657 58.8207 496.114 59.05 496.571 59.394C497.029 59.738 497.143 60.1966 497.143 60.7699C497.143 61.3432 496.914 61.8018 496.571 62.2605C496.114 62.6045 495.657 62.8338 494.971 62.8338C494.286 62.8338 493.829 62.4898 493.371 62.1458ZM493.257 64.439H496.8V76.7077H493.257V64.439Z" fill="#111111"/>
<path d="M511.886 71.5479H502.629C502.743 72.3506 503.2 72.9239 503.772 73.3825C504.343 73.8411 505.143 74.0705 506.057 74.0705C506.743 74.0705 507.2 73.9558 507.772 73.8411C508.229 73.6118 508.686 73.3825 509.143 72.9239L510.972 74.9877C509.829 76.3637 508.115 76.937 505.943 76.937C504.572 76.937 503.315 76.7076 502.286 76.1343C501.257 75.561 500.457 74.8731 499.886 73.8411C499.315 72.8092 498.972 71.7773 498.972 70.6306C498.972 69.484 499.2 68.3374 499.772 67.4202C500.343 66.5029 501.143 65.7003 502.057 65.127C502.972 64.5537 504.115 64.3243 505.372 64.3243C506.515 64.3243 507.657 64.5537 508.572 65.127C509.486 65.7003 510.286 66.3882 510.857 67.3055C511.429 68.2228 511.657 69.3694 511.657 70.6306C512 70.6306 512 70.9746 511.886 71.5479ZM503.657 67.6495C503.086 68.1081 502.743 68.6814 502.629 69.484H508.686C508.572 68.6814 508.229 68.1081 507.657 67.6495C507.086 67.1908 506.4 66.9615 505.715 66.9615C504.915 66.9615 504.229 67.1908 503.657 67.6495Z" fill="#111111"/>
<path d="M525.486 65.5856C526.4 66.5029 526.857 67.8788 526.857 69.5987V76.593H523.314V70.172C523.314 69.2548 523.086 68.4521 522.629 67.9935C522.172 67.5349 521.6 67.3055 520.8 67.3055C519.886 67.3055 519.2 67.5349 518.629 68.1082C518.057 68.6815 517.829 69.4841 517.829 70.6307V76.7077H514.286V64.439H517.714V65.9296C518.172 65.3563 518.743 65.0123 519.429 64.783C520.114 64.5537 520.914 64.3244 521.714 64.3244C523.314 64.2097 524.572 64.6684 525.486 65.5856Z" fill="#111111"/>
<path d="M537.829 76.0197C537.486 76.249 537.029 76.4783 536.571 76.593C536.114 76.7077 535.543 76.8223 534.971 76.8223C533.486 76.8223 532.343 76.4783 531.657 75.6757C530.857 74.9877 530.514 73.8411 530.514 72.3506V67.3055H528.686V64.5537H530.514V61.5725H534.057V64.5537H537.143V67.3055H534.057V72.2359C534.057 72.8092 534.171 73.1532 534.4 73.3825C534.629 73.6118 535.086 73.8411 535.543 73.8411C536.114 73.8411 536.571 73.7265 537.029 73.3825L537.829 76.0197Z" fill="#111111"/>
<path d="M551.657 71.5479H542.4C542.514 72.3506 542.971 72.9239 543.543 73.3825C544.114 73.8411 544.914 74.0705 545.829 74.0705C546.514 74.0705 546.971 73.9558 547.543 73.8411C548 73.6118 548.457 73.3825 548.914 72.9239L550.743 74.9877C549.6 76.3637 547.886 76.937 545.714 76.937C544.343 76.937 543.086 76.7076 542.057 76.1343C541.029 75.561 540.229 74.8731 539.657 73.8411C539.086 72.8092 538.743 71.7773 538.743 70.6306C538.743 69.484 538.972 68.3374 539.543 67.4202C540.114 66.5029 540.914 65.7003 541.829 65.127C542.743 64.5537 543.886 64.3243 545.143 64.3243C546.286 64.3243 547.429 64.5537 548.343 65.127C549.257 65.7003 550.057 66.3882 550.629 67.3055C551.2 68.2228 551.429 69.3694 551.429 70.6306C551.771 70.6306 551.771 70.9746 551.657 71.5479ZM543.429 67.6495C542.857 68.1081 542.514 68.6814 542.4 69.484H548.457C548.343 68.6814 548 68.1081 547.429 67.6495C546.857 67.1908 546.171 66.9615 545.486 66.9615C544.571 66.9615 543.886 67.1908 543.429 67.6495Z" fill="#111111"/>
<path d="M566.743 59.738V76.593H563.314V75.2171C562.4 76.249 561.143 76.8223 559.543 76.8223C558.4 76.8223 557.372 76.593 556.457 76.0197C555.543 75.5611 554.743 74.7585 554.286 73.8412C553.714 72.9239 553.486 71.7773 553.486 70.516C553.486 69.2548 553.714 68.1082 554.286 67.1909C554.857 66.2736 555.543 65.471 556.457 65.0123C557.372 64.5537 558.4 64.2097 559.543 64.2097C561.143 64.2097 562.286 64.6684 563.2 65.7003V59.738H566.743ZM562.286 73.0386C562.857 72.4653 563.2 71.548 563.2 70.516C563.2 69.4841 562.857 68.6815 562.286 67.9935C561.714 67.4202 560.914 67.0762 560.114 67.0762C559.2 67.0762 558.514 67.4202 557.829 67.9935C557.143 68.5668 556.914 69.4841 556.914 70.516C556.914 71.548 557.257 72.3506 557.829 73.0386C558.4 73.7265 559.2 73.9558 560.114 73.9558C561.029 73.9558 561.714 73.6119 562.286 73.0386Z" fill="#111111"/>
<path d="M467.772 115.692C466.514 115.004 465.486 113.972 464.686 112.711C463.886 111.45 463.543 110.074 463.543 108.468C463.543 106.863 463.886 105.487 464.686 104.226C465.486 102.965 466.514 102.048 467.772 101.245C469.029 100.557 470.514 100.213 472.229 100.213C473.6 100.213 474.857 100.442 476 100.901C477.143 101.36 478.057 102.048 478.857 102.965L476.457 105.143C475.429 103.882 474.057 103.309 472.457 103.309C471.429 103.309 470.629 103.538 469.829 103.997C469.029 104.455 468.457 105.029 468 105.831C467.543 106.634 467.314 107.437 467.314 108.468C467.314 109.5 467.543 110.303 468 111.106C468.457 111.908 469.029 112.482 469.829 112.94C470.629 113.399 471.429 113.628 472.457 113.628C474.057 113.628 475.429 113.055 476.457 111.794L478.857 113.972C478.057 114.889 477.143 115.577 476 116.036C474.857 116.495 473.6 116.724 472.229 116.724C470.514 116.724 469.029 116.38 467.772 115.692Z" fill="#111111"/>
<path d="M483.2 115.921C482.171 115.348 481.371 114.66 480.8 113.628C480.229 112.596 479.886 111.564 479.886 110.418C479.886 109.156 480.229 108.125 480.8 107.207C481.371 106.29 482.171 105.487 483.2 104.914C484.229 104.341 485.371 104.111 486.629 104.111C487.886 104.111 489.029 104.341 490.057 104.914C491.086 105.487 491.886 106.175 492.457 107.207C493.029 108.125 493.371 109.271 493.371 110.418C493.371 111.679 493.029 112.711 492.457 113.628C491.886 114.546 491.086 115.348 490.057 115.921C489.029 116.495 487.886 116.724 486.629 116.724C485.371 116.724 484.229 116.38 483.2 115.921ZM488.914 112.826C489.486 112.252 489.829 111.335 489.829 110.303C489.829 109.271 489.486 108.469 488.914 107.781C488.343 107.093 487.543 106.863 486.629 106.863C485.714 106.863 485.029 107.207 484.343 107.781C483.771 108.354 483.429 109.271 483.429 110.303C483.429 111.335 483.771 112.138 484.343 112.826C484.914 113.399 485.714 113.743 486.629 113.743C487.543 113.743 488.343 113.514 488.914 112.826Z" fill="#111111"/>
<path d="M506.857 105.487C507.772 106.405 508.229 107.781 508.229 109.5V116.495H504.686V110.074C504.686 109.156 504.457 108.354 504 107.895C503.543 107.437 502.971 107.207 502.171 107.207C501.257 107.207 500.572 107.437 500 108.01C499.429 108.583 499.2 109.386 499.2 110.532V116.609H495.657V104.226H499.086V105.717C499.543 105.143 500.114 104.799 500.8 104.57C501.486 104.341 502.286 104.111 503.086 104.111C504.686 104.111 505.943 104.57 506.857 105.487Z" fill="#111111"/>
<path d="M515.315 104.57H518.4V107.322H515.429V116.609H511.886V107.322H510.057V104.57H511.886V103.997C511.886 102.621 512.343 101.474 513.143 100.672C513.943 99.869 515.086 99.4103 516.572 99.4103C517.143 99.4103 517.6 99.4103 518.057 99.525C518.515 99.6397 518.972 99.7543 519.2 99.9836L518.286 102.506C517.829 102.162 517.372 102.048 516.8 102.048C515.772 102.048 515.2 102.621 515.2 103.767V104.57H515.315Z" fill="#111111"/>
<path d="M532.343 111.335H523.086C523.2 112.138 523.657 112.711 524.229 113.17C524.8 113.628 525.6 113.858 526.514 113.858C527.2 113.858 527.657 113.743 528.229 113.628C528.686 113.399 529.143 113.17 529.6 112.711L531.429 114.775C530.286 116.151 528.572 116.724 526.4 116.724C525.029 116.724 523.772 116.495 522.743 115.921C521.714 115.348 520.914 114.66 520.343 113.628C519.772 112.596 519.429 111.564 519.429 110.418C519.429 109.271 519.657 108.125 520.229 107.207C520.8 106.29 521.6 105.487 522.514 104.914C523.429 104.341 524.572 104.111 525.829 104.111C526.972 104.111 528.114 104.341 529.029 104.914C529.943 105.487 530.743 106.175 531.314 107.093C531.886 108.01 532.114 109.156 532.114 110.418C532.457 110.418 532.343 110.762 532.343 111.335ZM524 107.437C523.429 107.895 523.086 108.469 522.972 109.271H529.029C528.914 108.469 528.572 107.895 528 107.437C527.429 106.978 526.743 106.749 526.057 106.749C525.257 106.749 524.572 106.978 524 107.437Z" fill="#111111"/>
<path d="M539.886 104.57C540.571 104.226 541.486 104.111 542.4 104.111V107.437C542.057 107.437 541.714 107.437 541.6 107.437C540.571 107.437 539.771 107.666 539.2 108.239C538.629 108.813 538.286 109.615 538.286 110.762V116.495H534.743V104.226H538.171V105.831C538.629 105.258 539.2 104.799 539.886 104.57Z" fill="#111111"/>
<path d="M556.457 111.335H547.2C547.314 112.138 547.772 112.711 548.343 113.17C548.914 113.628 549.714 113.858 550.629 113.858C551.314 113.858 551.772 113.743 552.343 113.628C552.8 113.399 553.257 113.17 553.714 112.711L555.543 114.775C554.4 116.151 552.686 116.724 550.514 116.724C549.143 116.724 547.886 116.495 546.857 115.921C545.829 115.348 545.029 114.66 544.457 113.628C543.886 112.596 543.543 111.564 543.543 110.418C543.543 109.271 543.772 108.125 544.343 107.207C544.914 106.29 545.714 105.487 546.629 104.914C547.543 104.341 548.686 104.111 549.943 104.111C551.086 104.111 552.229 104.341 553.143 104.914C554.057 105.487 554.857 106.175 555.429 107.093C556 108.01 556.229 109.156 556.229 110.418C556.457 110.418 556.457 110.762 556.457 111.335ZM548.114 107.437C547.543 107.895 547.2 108.469 547.086 109.271H553.143C553.029 108.469 552.686 107.895 552.114 107.437C551.543 106.978 550.857 106.749 550.172 106.749C549.372 106.749 548.686 106.978 548.114 107.437Z" fill="#111111"/>
<path d="M569.943 105.487C570.857 106.405 571.314 107.781 571.314 109.5V116.495H567.771V110.074C567.771 109.156 567.543 108.354 567.086 107.895C566.629 107.437 566.057 107.207 565.257 107.207C564.343 107.207 563.657 107.437 563.086 108.01C562.514 108.583 562.286 109.386 562.286 110.532V116.609H558.857V104.226H562.286V105.717C562.743 105.143 563.314 104.799 564 104.57C564.686 104.341 565.486 104.111 566.286 104.111C567.886 104.111 569.029 104.57 569.943 105.487Z" fill="#111111"/>
<path d="M577.029 115.921C576 115.348 575.2 114.66 574.629 113.628C574.057 112.596 573.714 111.564 573.714 110.418C573.714 109.156 574.057 108.125 574.629 107.207C575.2 106.29 576 105.487 577.029 104.914C578.057 104.341 579.2 104.111 580.571 104.111C581.829 104.111 582.971 104.341 583.886 104.914C584.8 105.487 585.6 106.175 585.943 107.207L583.2 108.698C582.514 107.551 581.6 106.978 580.457 106.978C579.543 106.978 578.743 107.322 578.171 107.895C577.6 108.469 577.257 109.386 577.257 110.418C577.257 111.45 577.6 112.252 578.171 112.94C578.743 113.514 579.543 113.858 580.457 113.858C581.714 113.858 582.629 113.284 583.2 112.138L585.943 113.628C585.486 114.546 584.8 115.348 583.886 115.921C582.971 116.495 581.829 116.724 580.571 116.724C579.2 116.724 578.057 116.38 577.029 115.921Z" fill="#111111"/>
<path d="M599.886 111.335H590.629C590.743 112.138 591.2 112.711 591.772 113.17C592.343 113.628 593.143 113.858 594.057 113.858C594.743 113.858 595.2 113.743 595.772 113.628C596.229 113.399 596.686 113.17 597.143 112.711L598.972 114.775C597.829 116.151 596.115 116.724 593.943 116.724C592.572 116.724 591.315 116.495 590.286 115.921C589.257 115.348 588.457 114.66 587.886 113.628C587.315 112.596 586.972 111.564 586.972 110.418C586.972 109.271 587.2 108.125 587.772 107.207C588.343 106.29 589.143 105.487 590.057 104.914C590.972 104.341 592.115 104.111 593.372 104.111C594.515 104.111 595.657 104.341 596.572 104.914C597.486 105.487 598.286 106.175 598.857 107.093C599.429 108.01 599.657 109.156 599.657 110.418C600 110.418 600 110.762 599.886 111.335ZM591.657 107.437C591.086 107.895 590.743 108.469 590.629 109.271H596.686C596.572 108.469 596.229 107.895 595.657 107.437C595.086 106.978 594.4 106.749 593.715 106.749C592.915 106.749 592.229 106.978 591.657 107.437Z" fill="#111111"/>
<path d="M427.771 9.40213C417.486 3.4398 405.6 0 392.914 0C354.4 0 323.086 31.3022 323.086 70.0573C323.086 108.812 354.286 140.115 392.914 140.115C405.6 140.115 417.486 136.675 427.771 130.713V9.40213Z" fill="#111111"/>
</g>
<defs>
<clipPath id="clip0">
<rect width="600" height="140" fill="white"/>
</clipPath>
</defs>
</svg>
