<svg width="14" height="19" viewBox="0 0 14 19" fill="none" xmlns="http://www.w3.org/2000/svg">
<path d="M6.27083 18.6107C6.59896 19.1298 7.36458 19.1298 7.69271 18.6107C13.0156 10.8254 14 10.0098 14 7.11805C14 3.18829 10.8646 0 7 0C3.09896 0 0 3.18829 0 7.11805C0 10.0098 0.947917 10.8254 6.27083 18.6107ZM7 10.0839C5.35937 10.0839 4.08333 8.78634 4.08333 7.11805C4.08333 5.48683 5.35937 4.1522 7 4.1522C8.60417 4.1522 9.91667 5.48683 9.91667 7.11805C9.91667 8.78634 8.60417 10.0839 7 10.0839Z" fill="#111111"/>
</svg>
