<svg width="21" height="18" viewBox="0 0 21 18" fill="none" xmlns="http://www.w3.org/2000/svg">
<path d="M18.1893 4.46747C18.9819 3.81687 19.6952 3.03614 20.25 2.1253C19.5367 2.47229 18.7045 2.73253 17.8723 2.81928C18.7441 2.25542 19.3782 1.38795 19.6952 0.303614C18.9026 0.824096 17.9912 1.21446 17.0797 1.43133C16.2872 0.520482 15.2172 0 14.0284 0C11.7299 0 9.86742 2.03855 9.86742 4.55422C9.86742 4.9012 9.90705 5.24819 9.9863 5.59518C6.53865 5.37831 3.44765 3.55663 1.38699 0.824096C1.03033 1.4747 0.832192 2.25542 0.832192 3.12289C0.832192 4.68434 1.5455 6.07229 2.69472 6.89639C2.02104 6.85301 1.34736 6.67952 0.792564 6.33253V6.3759C0.792564 8.58795 2.21918 10.4096 4.12133 10.8434C3.80431 10.9301 3.40802 11.0169 3.05137 11.0169C2.77397 11.0169 2.5362 10.9735 2.25881 10.9301C2.77397 12.7518 4.31947 14.053 6.14237 14.0964C4.71575 15.3108 2.93249 16.0482 0.990704 16.0482C0.634051 16.0482 0.317025 16.0048 0 15.9614C1.8229 17.2626 4.00245 18 6.38014 18C14.0284 18 18.1893 11.1036 18.1893 5.0747C18.1893 4.85783 18.1893 4.68434 18.1893 4.46747Z" fill="#1DA1F2"/>
</svg>
